<svg xmlns="http://www.w3.org/2000/svg" width="122.869" height="123.189" viewBox="0 0 122.869 123.189">
  <g id="acceptable" transform="translate(-89.93 -17.23)">
    <g id="Group_12895" data-name="Group 12895" transform="translate(90.43 17.731)">
      <path id="Path_18048" data-name="Path 18048" d="M165.247,80.155l-14.04-14.042c-6.466-6.464-15.809,3.33-9.571,9.571l14.042,14.042C161.984,96.029,171.632,86.536,165.247,80.155Z" transform="translate(-94.519 -21.58)" fill="none" stroke="#fff" stroke-miterlimit="10" stroke-width="1"/>
      <path id="Path_18049" data-name="Path 18049" d="M150.541,94.866,136.5,80.818c-6.457-6.454-15.88,3.265-9.569,9.567l14.047,14.056C147.331,110.781,156.9,101.214,150.541,94.866Z" transform="translate(-93.293 -22.803)" fill="none" stroke="#fff" stroke-miterlimit="10" stroke-width="1"/>
      <path id="Path_18050" data-name="Path 18050" d="M181.15,65.614l-46.785-45.76c-6.506-6.51-15.661,3.468-9.571,9.573L170.06,76.7" transform="translate(-93.122 -17.731)" fill="none" stroke="#fff" stroke-miterlimit="10" stroke-width="1"/>
      <path id="Path_18051" data-name="Path 18051" d="M188,96.255c0,4.634-4.306,8.731-9.152,8.734H169.7l0-23.38a10.626,10.626,0,0,1,10.37-10.367h21.862A10.371,10.371,0,0,1,212.3,81.608v19.575a42.443,42.443,0,0,1-12.344,30.287c-15.032,15.032-41.979,19.185-61.057.112l-.051-.084L92.471,85.114a6.769,6.769,0,0,1,9.572-9.573l32.194,32.2" transform="translate(-90.43 -22.183)" fill="none" stroke="#fff" stroke-miterlimit="10" stroke-width="1"/>
      <path id="Path_18052" data-name="Path 18052" d="M196.856,97.3l0-11.491a2.516,2.516,0,0,1,.875-1.964" transform="translate(-99.283 -23.232)" fill="none" stroke="#fff" stroke-miterlimit="10" stroke-width="1"/>
    </g>
    <path id="Path_18053" data-name="Path 18053" d="M188.5,129.24a18.228,18.228,0,0,1-5.323-21.189" transform="translate(-7.598 -7.514)" fill="none" stroke="#fff" stroke-miterlimit="10" stroke-width="1"/>
    <path id="Path_18054" data-name="Path 18054" d="M206.524,102.134" transform="translate(-9.658 -7.021)" fill="none" stroke="#fff" stroke-miterlimit="10" stroke-width="1"/>
    <line id="Line_329" data-name="Line 329" x1="5.323" y2="5.323" transform="translate(148.96 49.867)" fill="none" stroke="#fff" stroke-miterlimit="10" stroke-width="1"/>
    <path id="Path_18055" data-name="Path 18055" d="M193.931,79.247l3.2,4.9" transform="translate(-8.61 -5.117)" fill="none" stroke="#fff" stroke-miterlimit="10" stroke-width="1"/>
    <path id="Path_18056" data-name="Path 18056" d="M202.318,78.466l-4.423,5.6" transform="translate(-8.94 -5.052)" fill="none" stroke="#fff" stroke-miterlimit="10" stroke-width="1"/>
    <line id="Line_330" data-name="Line 330" x1="5.323" y2="5.323" transform="translate(114.213 94.964)" fill="none" stroke="#fff" stroke-miterlimit="10" stroke-width="1"/>
    <line id="Line_331" data-name="Line 331" x1="29.867" y2="34.303" transform="translate(132.695 84.466)" fill="none" stroke="#fff" stroke-miterlimit="10" stroke-width="1"/>
    <line id="Line_332" data-name="Line 332" x1="10.646" y2="10.084" transform="translate(125.302 103.51)" fill="none" stroke="#fff" stroke-miterlimit="10" stroke-width="1"/>
    <line id="Line_333" data-name="Line 333" x1="5.323" y2="5.323" transform="translate(130.33 31.237)" fill="none" stroke="#fff" stroke-miterlimit="10" stroke-width="1"/>
    <line id="Line_334" data-name="Line 334" x1="5.323" y2="5.323" transform="translate(100.758 81.509)" fill="none" stroke="#fff" stroke-miterlimit="10" stroke-width="1"/>
    <path id="Path_18057" data-name="Path 18057" d="M151.368,120.764l13.307-18.63s-7.911,16.042-2.661,23.953a17.356,17.356,0,0,0,13.307,7.985" transform="translate(-5.069 -7.021)" fill="none" stroke="#fff" stroke-miterlimit="10" stroke-width="1"/>
    <line id="Line_335" data-name="Line 335" x1="2.661" y2="2.661" transform="translate(154.283 65.54)" fill="none" stroke="#fff" stroke-miterlimit="10" stroke-width="1"/>
    <line id="Line_336" data-name="Line 336" x1="2.661" y2="2.661" transform="translate(140.975 78.848)" fill="none" stroke="#fff" stroke-miterlimit="10" stroke-width="1"/>
    <line id="Line_337" data-name="Line 337" x1="2.661" y2="2.661" transform="translate(127.668 92.155)" fill="none" stroke="#fff" stroke-miterlimit="10" stroke-width="1"/>
  </g>
</svg>
