<svg xmlns="http://www.w3.org/2000/svg" width="159.041" height="120.054" viewBox="0 0 159.041 120.054">
  <g id="actionable" transform="translate(-33.502 -18.257)">
    <path id="Path_18044" data-name="Path 18044" d="M34,92.325l71.84,1.139a5.215,5.215,0,0,1,0-6.741L34,87.863Z" transform="translate(0 -11.808)" fill="none" stroke="#fff" stroke-miterlimit="10" stroke-width="1"/>
    <path id="Path_18045" data-name="Path 18045" d="M182.968,154.827l16.173-16.173a3.007,3.007,0,0,0,0-4.1l-16.173-16.173a.851.851,0,0,0-1.451.6v9.414H167.732l-1.587,1.586-5.051-2.524a36.669,36.669,0,0,1-9.155,3.8l-1.784,5.349H134.881l-1.784-5.349a36.656,36.656,0,0,1-9.155-3.8l-5.052,2.524-1.589-1.586H80.937v16.421h100.58v9.414a.851.851,0,0,0,1.451.6Z" transform="translate(-8.154 -17.264)" fill="none" stroke="#fff" stroke-miterlimit="10" stroke-width="1"/>
    <path id="Path_18046" data-name="Path 18046" d="M133.1,42.581l1.781-5.349h15.273l1.784,5.349a36.625,36.625,0,0,1,9.155,3.8l5.052-2.525,1.589,1.587h13.785v9.413a.85.85,0,0,0,1.451.6l16.173-16.172a3.008,3.008,0,0,0,0-4.106L182.968,19.006a.85.85,0,0,0-1.451.6v9.414H80.937V45.442H117.3l1.587-1.587,5.051,2.525A36.742,36.742,0,0,1,133.1,42.581Z" transform="translate(-8.154)" fill="none" stroke="#fff" stroke-miterlimit="10" stroke-width="1"/>
    <path id="Path_18047" data-name="Path 18047" d="M121.275,110.853a32.5,32.5,0,0,0,10.019,4.159l1.122.257,1.572,4.711h9.358l1.571-4.709,1.122-.256a32.577,32.577,0,0,0,10.019-4.159l.977-.611,4.45,2.223,6.615-6.616-2.223-4.45.611-.977A32.517,32.517,0,0,0,170.65,90.4l.257-1.123,4.709-1.572V78.352l-4.709-1.571-.257-1.123a32.581,32.581,0,0,0-4.159-10.018l-.611-.977,2.223-4.45L161.487,53.6l-4.45,2.223-.977-.611A32.5,32.5,0,0,0,146.04,51.05l-1.122-.257-1.572-4.709h-9.358l-1.571,4.709-1.122.257a32.557,32.557,0,0,0-10.019,4.159l-.977.611L115.848,53.6l-6.616,6.616,2.225,4.454-.618.979c-2.789,4.479-46.272,7.122-51.29,7.122H58.78v3.911l52.2-1.215a28.737,28.737,0,1,1,0,15.136l-52.2-1.215V93.3h.769c5.021,0,48.5,2.644,51.264,7.074l.607.977-.478,1.086-1.71,3.42,6.616,6.616,4.449-2.223Z" transform="translate(-4.305 -4.748)" fill="none" stroke="#fff" stroke-miterlimit="10" stroke-width="1"/>
    <circle id="Ellipse_248" data-name="Ellipse 248" cx="10.263" cy="10.263" r="10.263" transform="translate(124.099 68.021)" fill="none" stroke="#fff" stroke-miterlimit="10" stroke-width="1"/>
  </g>
</svg>
