<svg xmlns="http://www.w3.org/2000/svg" width="131.496" height="121.961" viewBox="0 0 131.496 121.961">
  <g id="big-wins" transform="translate(-5151.201 1096.186)">
    <g id="Group_12950" data-name="Group 12950">
      <g id="Group_12949" data-name="Group 12949">
        <g id="Group_12945" data-name="Group 12945">
          <path id="Path_18174" data-name="Path 18174" d="M5261.371-1011.865c-.8,2.59-3.636,1.57-4.393,1.246-.121-.051-.188-.086-.188-.086a1.3,1.3,0,0,1-.151.12,10.372,10.372,0,0,1-2.788,1.227c-2.28.721-5.181.863-6.04.063-2.558-2.375,1.614-4.532,6.654-6.588.468-.192.944-.383,1.423-.573l.555-.219C5262.271-1018.971,5262.295-1014.866,5261.371-1011.865Z" fill="none" stroke="#fff" stroke-miterlimit="10" stroke-width="1"/>
          <path id="Path_18175" data-name="Path 18175" d="M5250.131-1012.83a5.8,5.8,0,0,0-1.327.392,1.375,1.375,0,0,0-.662,2.031,2.878,2.878,0,0,0,.293.5c.789,1.086,2.044.494,2.884-.225A1.6,1.6,0,0,0,5250.131-1012.83Z" fill="none" stroke="#fff" stroke-miterlimit="10" stroke-width="1"/>
        </g>
        <g id="Group_12946" data-name="Group 12946">
          <path id="Path_18176" data-name="Path 18176" d="M5261.514-1021.433v0a6.419,6.419,0,0,1-.867,2.261c-.711,1.159-2.479,2.031-4.6,2.932-.271.116-.545.233-.825.349l-.5.206a64.43,64.43,0,0,1-8.648,2.777c-2.587.654-3.633-.384-4.032-1.588a3.412,3.412,0,0,1,1.484-3.874,55.553,55.553,0,0,1,7.676-3.974q.636-.284,1.328-.58l.272-.118a25.726,25.726,0,0,1,2.965-1.087C5259.69-1025.1,5261.357-1023.335,5261.514-1021.433Z" fill="none" stroke="#fff" stroke-miterlimit="10" stroke-width="1"/>
          <path id="Path_18177" data-name="Path 18177" d="M5245.1-1017.5a7.612,7.612,0,0,0-1.684.536,1.692,1.692,0,0,0-.816,2.525,3.411,3.411,0,0,0,.381.606c1.02,1.3,2.609.525,3.67-.394C5247.944-1015.277,5246.84-1017.769,5245.1-1017.5Z" fill="none" stroke="#fff" stroke-miterlimit="10" stroke-width="1"/>
        </g>
        <g id="Group_12947" data-name="Group 12947">
          <path id="Path_18178" data-name="Path 18178" d="M5257.6-1026.494a16.265,16.265,0,0,1-5.106,3.659c-.319.157-.658.321-1.019.486-1.525.7-3.436,1.469-5.894,2.352-4.536,1.632-5.854.321-6.166-1.06a3.42,3.42,0,0,1,.773-2.9,30.46,30.46,0,0,1,7.6-5.888c.355-.2.715-.4,1.083-.594.762-.4,1.553-.785,2.36-1.135C5257.767-1034.388,5259.419-1028.43,5257.6-1026.494Z" fill="none" stroke="#fff" stroke-miterlimit="10" stroke-width="1"/>
          <path id="Path_18179" data-name="Path 18179" d="M5242.2-1024.113a6.731,6.731,0,0,0-1.55.674,1.723,1.723,0,0,0-.525,2.506,3.634,3.634,0,0,0,.372.568c.976,1.227,2.386.521,3.382-.387C5245.195-1021.872,5243.958-1024.551,5242.2-1024.113Z" fill="none" stroke="#fff" stroke-miterlimit="10" stroke-width="1"/>
        </g>
        <g id="Group_12948" data-name="Group 12948">
          <path id="Path_18180" data-name="Path 18180" d="M5249.35-1030.954a.312.312,0,0,0-.048.04q-.172.136-.36.277c-.336.251-.708.5-1.112.761-1.033.655-2.3,1.39-3.673,2.211-5.5,3.281-6.476-.295-6.476-.295s-1.485-2.473,4.142-6.593c.9-.662,1.616-1.31,2.3-1.758a11.726,11.726,0,0,1,1.071-.632c3.006-1.565,4.335-.248,5.613,1.551C5251.833-1033.96,5251.251-1032.495,5249.35-1030.954Z" fill="none" stroke="#fff" stroke-miterlimit="10" stroke-width="1"/>
          <path id="Path_18181" data-name="Path 18181" d="M5240-1030.956a5.946,5.946,0,0,0-1.313.7,1.564,1.564,0,0,0-.222,2.38,3.318,3.318,0,0,0,.429.5c1.092,1.043,2.28.136,3-.829C5242.794-1029.32,5241.415-1031.422,5240-1030.956Z" fill="none" stroke="#fff" stroke-miterlimit="10" stroke-width="1"/>
        </g>
      </g>
    </g>
    <g id="Group_12951" data-name="Group 12951">
      <path id="Path_18182" data-name="Path 18182" d="M5240.121-1035.124a3.2,3.2,0,0,0-2.568-1.586c-3.953-.446-9.428-.372-11.429,3.714-3.581,8.527.29,17.2-.5,26.276.066.777-1.034,1.654-2.342,1.922" fill="none" stroke="#fff" stroke-miterlimit="10" stroke-width="1"/>
      <path id="Path_18183" data-name="Path 18183" d="M5231.853-991.54c3.834-2.726,7.068-6.133,11.756-7.459-3.025-1.19-2.148,1.009,0,0-3.025-1.19-7.074-3.129-7.785-6.692-.42-2.1.557-4.121,1.668-5.842,1.383-2.145,2.268-3.946,2.017-6.656a19.305,19.305,0,0,0-3.64-8.9c-.233-.337-1.32-1.375-1.17-1.892.276-.951,1.834.569,2.2.847" fill="none" stroke="#fff" stroke-miterlimit="10" stroke-width="1"/>
      <path id="Path_18184" data-name="Path 18184" d="M5210.463-975.237" fill="none" stroke="#fff" stroke-miterlimit="10" stroke-width="1"/>
    </g>
    <path id="Path_18185" data-name="Path 18185" d="M5180.693-975.682l42.469-31.932,10.038,21.576-10.294,9.5Z" fill="none" stroke="#fff" stroke-miterlimit="10" stroke-width="1"/>
    <path id="Path_18186" data-name="Path 18186" d="M5243.7-996.671" fill="none" stroke="#fff" stroke-miterlimit="10" stroke-width="1"/>
    <g id="Group_12952" data-name="Group 12952">
      <path id="Path_18187" data-name="Path 18187" d="M5243.357-1090.825l-13.82,9.737-1.208-3.09-1.265-3.241h0l2.642-1.862-3.34-5.811-25.047,17.649-25.048,17.648,4.349,5.1,2.642-1.862,2.626,2.283,2.5,2.177-13.821,9.739c6.893,9.782,19.3,15.221,33.42,9.616q.99-.39,1.99-.855c5.345,3.7,10.572,5.463,15.236,5.607a6.85,6.85,0,0,1-.174-2.054c.248-3.857,4.019-5.973,7.471-6.31a20.969,20.969,0,0,1,4.434.13,4.8,4.8,0,0,1,1.877-.554,4.22,4.22,0,0,1,.465-.015c1.942-4.674,2.29-10.73.406-17.741q.773-.785,1.473-1.586C5251.2-1067.534,5250.25-1081.043,5243.357-1090.825Zm-39.3,54.8a22.216,22.216,0,0,1-22.989-5.49l10.768-7.587,14.226,12.374.006.005C5205.386-1036.462,5204.715-1036.227,5204.053-1036.026Zm35.346-24.905q-.62.834-1.333,1.655l0-.006-6.866-17.559,10.766-7.586A22.231,22.231,0,0,1,5239.4-1060.931Z" fill="none" stroke="#fff" stroke-miterlimit="10" stroke-width="1"/>
      <path id="Path_18188" data-name="Path 18188" d="M5238.8-1013.043l6.753,10.5a2.807,2.807,0,0,1-.744,3.816,2.108,2.108,0,0,0-.509,2.938l.338.48,9.724-6.852,9.723-6.851-.338-.48a2.108,2.108,0,0,0-2.938-.509h0a2.809,2.809,0,0,1-3.844-.583" fill="none" stroke="#fff" stroke-miterlimit="10" stroke-width="1"/>
      <path id="Path_18189" data-name="Path 18189" d="M5239.881-1022.866" fill="none" stroke="#fff" stroke-miterlimit="10" stroke-width="1"/>
      <path id="Path_18190" data-name="Path 18190" d="M5279.266-999.028l-.684.482-14.482,10.2-14.481,10.2-.684.482a1.962,1.962,0,0,0-.474,2.734l16.769-11.816L5282-998.554A1.962,1.962,0,0,0,5279.266-999.028Z" fill="none" stroke="#fff" stroke-miterlimit="10" stroke-width="1"/>
      <path id="Path_18191" data-name="Path 18191" d="M5242.51-993.813a1.5,1.5,0,0,0-.524,1.784,1.468,1.468,0,0,0,.163.3l13.073-9.211,13.072-9.211a1.433,1.433,0,0,0-.225-.253,1.494,1.494,0,0,0-1.856-.108l-11.852,8.351Z" fill="none" stroke="#fff" stroke-miterlimit="10" stroke-width="1"/>
      <path id="Path_18192" data-name="Path 18192" d="M5264.1-988.345l14.478-10.2-8.876-12.6-14.478,10.2-14.486,10.207,8.876,12.6Z" fill="none" stroke="#fff" stroke-miterlimit="10" stroke-width="1"/>
    </g>
    <g id="Group_12966" data-name="Group 12966">
      <g id="Group_12955" data-name="Group 12955">
        <g id="Group_12953" data-name="Group 12953">
          <path id="Path_18193" data-name="Path 18193" d="M5210.967-1019.761l-1.5-1.01c-2.116-1.422-2.782-1.475-5.095-.385l-1.637.772,1.009-1.5c1.423-2.12,1.474-2.787.386-5.1l-.772-1.638,1.5,1.01c2.117,1.423,2.783,1.476,5.1.385l1.637-.772-1.009,1.5c-1.423,2.12-1.474,2.787-.386,5.1Zm-4.154-3.155a4.044,4.044,0,0,1,1.888.518,3.842,3.842,0,0,1,.252-3.333,3.837,3.837,0,0,1-3.332-.252,3.837,3.837,0,0,1-.252,3.332A4.559,4.559,0,0,1,5206.813-1022.916Z" fill="#fff"/>
        </g>
        <g id="Group_12954" data-name="Group 12954">
          <path id="Path_18194" data-name="Path 18194" d="M5212.021-1009.82l-1.5-1.01c-1.537-1.032-1.98-1.067-3.658-.277l-1.637.772,1.009-1.5c1.034-1.537,1.067-1.982.278-3.658l-.772-1.637,1.5,1.009c1.54,1.034,1.984,1.066,3.658.277l1.638-.772-1.01,1.5c-1.033,1.538-1.066,1.982-.277,3.658Zm-3.4-2.835a2.935,2.935,0,0,1,1.2.272,2.85,2.85,0,0,1,.154-2.034,2.86,2.86,0,0,1-2.036-.154,2.844,2.844,0,0,1-.153,2.034A3.241,3.241,0,0,1,5208.62-1012.655Z" fill="#fff"/>
        </g>
      </g>
      <g id="Group_12958" data-name="Group 12958">
        <g id="Group_12956" data-name="Group 12956">
          <path id="Path_18195" data-name="Path 18195" d="M5251.126-1049.452l-.629-1.7c-.887-2.394-1.4-2.826-3.908-3.294l-1.78-.332,1.7-.628c2.394-.886,2.826-1.4,3.295-3.908l.332-1.779.628,1.7c.886,2.394,1.4,2.826,3.907,3.293l1.78.332-1.7.629c-2.4.886-2.826,1.4-3.294,3.907Zm-2.852-5.619a3.838,3.838,0,0,1,2.556,2.154,3.838,3.838,0,0,1,2.153-2.555,3.84,3.84,0,0,1-2.554-2.154A3.84,3.84,0,0,1,5248.274-1055.071Z" fill="#fff"/>
        </g>
        <g id="Group_12957" data-name="Group 12957">
          <path id="Path_18196" data-name="Path 18196" d="M5260.733-1045.594l-.628-1.7c-.642-1.737-.983-2.024-2.8-2.364l-1.78-.332,1.7-.628c1.737-.643,2.024-.984,2.365-2.8l.332-1.779.628,1.7c.643,1.737.983,2.024,2.8,2.363l1.779.332-1.7.629c-1.738.643-2.025.984-2.365,2.8Zm-1.846-4.682a2.845,2.845,0,0,1,1.56,1.316,2.853,2.853,0,0,1,1.315-1.561,2.845,2.845,0,0,1-1.56-1.315A2.853,2.853,0,0,1,5258.887-1050.276Z" fill="#fff"/>
        </g>
      </g>
      <g id="Group_12959" data-name="Group 12959">
        <path id="Path_18197" data-name="Path 18197" d="M5157.519-1011.479l-.629-1.7c-.887-2.394-1.4-2.825-3.909-3.294l-1.78-.332,1.7-.628c2.4-.886,2.827-1.4,3.295-3.907l.332-1.78.628,1.7c.887,2.4,1.4,2.826,3.908,3.294l1.78.332-1.7.628c-2.4.886-2.827,1.4-3.294,3.908Zm-2.852-5.62a3.84,3.84,0,0,1,2.556,2.154,3.833,3.833,0,0,1,2.153-2.555,3.839,3.839,0,0,1-2.555-2.154A3.836,3.836,0,0,1,5154.667-1017.1Z" fill="#fff"/>
      </g>
      <g id="Group_12960" data-name="Group 12960">
        <path id="Path_18198" data-name="Path 18198" d="M5163.423-1030.288l-.628-1.7c-.643-1.737-.983-2.024-2.8-2.364l-1.781-.332,1.7-.628c1.738-.643,2.025-.983,2.365-2.8l.332-1.779.628,1.7c.643,1.737.984,2.024,2.8,2.364l1.78.332-1.7.628c-1.737.643-2.024.983-2.364,2.805Zm-1.847-4.682a2.852,2.852,0,0,1,1.561,1.315,2.839,2.839,0,0,1,1.314-1.559,2.846,2.846,0,0,1-1.559-1.316A2.852,2.852,0,0,1,5161.576-1034.97Z" fill="#fff"/>
      </g>
      <g id="Group_12961" data-name="Group 12961">
        <path id="Path_18199" data-name="Path 18199" d="M5173.433-1013.576l-.628-1.7c-1.4-3.768-2.2-4.447-6.15-5.183l-1.78-.333,1.7-.628c3.769-1.394,4.448-2.2,5.185-6.15l.332-1.78.628,1.7c1.4,3.769,2.2,4.447,6.15,5.184l1.78.332-1.7.629c-3.769,1.394-4.448,2.2-5.185,6.15Zm-4.989-7.519a5.972,5.972,0,0,1,4.685,3.949,5.97,5.97,0,0,1,3.95-4.685,5.971,5.971,0,0,1-4.685-3.95A5.973,5.973,0,0,1,5168.444-1021.095Z" fill="#fff"/>
      </g>
      <g id="Group_12962" data-name="Group 12962">
        <path id="Path_18200" data-name="Path 18200" d="M5182.983-1077.2l-.629-1.7c-.362-.979-.5-1.1-1.532-1.291l-1.779-.332,1.7-.628c.979-.363,1.1-.506,1.292-1.532l.332-1.778.628,1.7c.362.979.506,1.1,1.531,1.291l1.78.333-1.7.628c-.978.362-1.1.505-1.291,1.532Zm-.771-3.592a1.776,1.776,0,0,1,.5.421,1.751,1.751,0,0,1,.421-.5,1.734,1.734,0,0,1-.5-.421A1.768,1.768,0,0,1,5182.212-1080.8Z" fill="#fff"/>
      </g>
      <g id="Group_12965" data-name="Group 12965">
        <g id="Group_12963" data-name="Group 12963">
          <path id="Path_18201" data-name="Path 18201" d="M5215.546-1053.035l-.628-1.7c-1.2-3.233-1.887-3.815-5.275-4.447l-1.781-.332,1.7-.628c3.233-1.2,3.814-1.886,4.447-5.275l.332-1.78.628,1.7c1.2,3.233,1.886,3.814,5.275,4.447l1.779.332-1.7.628c-3.233,1.2-3.814,1.887-4.447,5.276Zm-4.152-6.777a5.187,5.187,0,0,1,3.851,3.247,5.187,5.187,0,0,1,3.247-3.852,5.184,5.184,0,0,1-3.851-3.247A5.193,5.193,0,0,1,5211.394-1059.812Z" fill="#fff"/>
        </g>
        <g id="Group_12964" data-name="Group 12964">
          <path id="Path_18202" data-name="Path 18202" d="M5219.986-1065.305l-.629-1.7c-.5-1.341-.737-1.544-2.141-1.806l-1.779-.332,1.7-.628c1.341-.5,1.543-.736,1.805-2.141l.332-1.78.628,1.7c.5,1.341.737,1.543,2.141,1.8l1.78.332-1.7.628c-1.341.5-1.543.736-1.805,2.141Zm-1.265-4.114a2.229,2.229,0,0,1,.984.83,2.241,2.241,0,0,1,.83-.985,2.241,2.241,0,0,1-.984-.83A2.249,2.249,0,0,1,5218.721-1069.419Z" fill="#fff"/>
        </g>
      </g>
    </g>
    <path id="Path_18203" data-name="Path 18203" d="M5268.5-997.49l-2.784-3.951a2.76,2.76,0,0,1-3.848-.667l-5.294,3.73-5.294,3.73a2.762,2.762,0,0,1-.667,3.849l2.784,3.95a2.762,2.762,0,0,1,3.848.667l5.294-3.73,5.294-3.73A2.761,2.761,0,0,1,5268.5-997.49Z" fill="none" stroke="#fff" stroke-miterlimit="10" stroke-width="1"/>
    <path id="Path_18204" data-name="Path 18204" d="M5175.918-1059.576l50.885-35.854,2.82,6.177-5.367,3.781h0l-39.242,27.2" fill="none" stroke="#fff" stroke-miterlimit="10" stroke-width="1"/>
    <path id="Path_18205" data-name="Path 18205" d="M5220.933-1065.442" fill="none" stroke="#fff" stroke-miterlimit="10" stroke-width="1"/>
    <path id="Path_18206" data-name="Path 18206" d="M5228.614-1074.554" fill="none" stroke="#fff" stroke-miterlimit="10" stroke-width="1"/>
    <line id="Line_356" data-name="Line 356" x2="6.764" y2="6.237" transform="translate(5186.755 -1053.918)" fill="none" stroke="#fff" stroke-miterlimit="10" stroke-width="1"/>
    <line id="Line_357" data-name="Line 357" x2="1.876" y2="5.478" transform="translate(5229.417 -1081.67)" fill="none" stroke="#fff" stroke-miterlimit="10" stroke-width="1"/>
  </g>
</svg>
