<svg xmlns="http://www.w3.org/2000/svg" width="156.047" height="125.691" viewBox="0 0 156.047 125.691">
  <g id="calm" transform="translate(-67.654 -11.571)">
    <g id="Group_12837" data-name="Group 12837" transform="translate(73.391 12.067)">
      <g id="Group_12797" data-name="Group 12797" transform="translate(0 103.838)">
        <g id="Group_12793" data-name="Group 12793" transform="translate(3.337)">
          <g id="Group_12792" data-name="Group 12792">
            <g id="Group_12791" data-name="Group 12791">
              <path id="Path_17849" data-name="Path 17849" d="M91.464,131.728c-2.77,2.471-6.375,3.372-9.529,5.175-1.8,1.351-5.407,4.055-3.154,4.956,4.506,2.254,9.913,0,14.869-1.351,2.253-.9,2.7-2.7,2.837-4.945" transform="translate(-78.062 -131.728)" fill="none" stroke="#fff" stroke-miterlimit="10" stroke-width="1"/>
            </g>
          </g>
        </g>
        <g id="Group_12796" data-name="Group 12796" transform="translate(0 4.277)">
          <g id="Group_12795" data-name="Group 12795">
            <g id="Group_12794" data-name="Group 12794">
              <path id="Path_17850" data-name="Path 17850" d="M81.043,138.159c-4.093,1.149-7.518,3.051-6.706,5.543.914,2.8,6.9,3.055,10.009,1.705a39.153,39.153,0,0,1,4.662-1.936c2-.579,3.652-1.389,5.017-1.848,1.893-.637,2.626-2.75,1.7-4.966-.2.771-1.191,1.456-2.048,1.867-3.6,1.724-8.019,3.552-10.119,3.631s-3.275-.333-3.617-1.388C79.412,139.146,80.183,138.714,81.043,138.159Z" transform="translate(-74.217 -136.657)" fill="none" stroke="#fff" stroke-miterlimit="10" stroke-width="1"/>
            </g>
          </g>
        </g>
      </g>
      <g id="Group_12798" data-name="Group 12798" transform="translate(31.84 33.215)">
        <path id="Path_17851" data-name="Path 17851" d="M126.11,89.213c.236-.241.482-.476.732-.706-.008-.056-.021-.111-.027-.168" transform="translate(-112.918 -55.367)" fill="none" stroke="#fff" stroke-miterlimit="10" stroke-width="1"/>
        <path id="Path_17852" data-name="Path 17852" d="M126.11,89.346" transform="translate(-112.918 -55.5)" fill="none" stroke="#fff" stroke-miterlimit="10" stroke-width="1"/>
        <path id="Path_17853" data-name="Path 17853" d="M125.8,58.661a40.455,40.455,0,0,0-8.319,12.623,14.133,14.133,0,0,1-6.574,6.846" transform="translate(-110.908 -51.443)" fill="none" stroke="#fff" stroke-miterlimit="10" stroke-width="1"/>
        <path id="Path_17854" data-name="Path 17854" d="M140.115,50.343a26.847,26.847,0,0,0-12.044,7.218" transform="translate(-113.177 -50.343)" fill="none" stroke="#fff" stroke-miterlimit="10" stroke-width="1"/>
      </g>
      <g id="Group_12799" data-name="Group 12799" transform="translate(46.555 50.34)">
        <path id="Path_17855" data-name="Path 17855" d="M130.863,70.119c.7-.246.188.673.046,1.08-.368,1.049-.7,2.112-1.011,3.18a54.886,54.886,0,0,0-2.033,10.4" transform="translate(-127.865 -70.078)" fill="none" stroke="#fff" stroke-miterlimit="10" stroke-width="1"/>
      </g>
      <g id="Group_12800" data-name="Group 12800" transform="translate(48.69 103.569)">
        <path id="Path_17856" data-name="Path 17856" d="M143.524,136.318a22.252,22.252,0,0,0,4.008.095,5.009,5.009,0,0,1-1.07-.611" transform="translate(-132.071 -131.998)" fill="none" stroke="#fff" stroke-miterlimit="10" stroke-width="1"/>
        <path id="Path_17857" data-name="Path 17857" d="M130.326,131.418a25.431,25.431,0,0,0,9.329,3.985" transform="translate(-130.326 -131.418)" fill="none" stroke="#fff" stroke-miterlimit="10" stroke-width="1"/>
      </g>
      <g id="Group_12801" data-name="Group 12801" transform="translate(7.542 56.166)">
        <path id="Path_17858" data-name="Path 17858" d="M82.908,82.822c1.02-4.1,4.624-5.452,8.228-5.9,8.561-.9,15.771,3.154,23.251,6.363" transform="translate(-82.908 -76.791)" fill="none" stroke="#fff" stroke-miterlimit="10" stroke-width="1"/>
        <path id="Path_17859" data-name="Path 17859" d="M133.423,133.242a65.319,65.319,0,0,1-11.855-8.324" transform="translate(-88.02 -83.155)" fill="none" stroke="#fff" stroke-miterlimit="10" stroke-width="1"/>
        <path id="Path_17860" data-name="Path 17860" d="M119.184,84.271c2.185,1.119,4.365,2.248,6.525,3.414" transform="translate(-87.705 -77.78)" fill="none" stroke="#fff" stroke-miterlimit="10" stroke-width="1"/>
      </g>
      <g id="Group_12808" data-name="Group 12808" transform="translate(32.055 105.855)">
        <g id="Group_12804" data-name="Group 12804" transform="translate(2.076)">
          <g id="Group_12803" data-name="Group 12803">
            <g id="Group_12802" data-name="Group 12802">
              <path id="Path_17861" data-name="Path 17861" d="M118.985,138.327c1.836,2.474-2.773,5.714-3.972,7.366-.732,1.008-1.659,2.893-1.428,4.175.675,3.75,11.588-5.223,12.77-6.249,1.55-1.343,2.73-2.807,2-4.972-.575-1.7-2.329-3.211-3.422-4.595" transform="translate(-113.549 -134.052)" fill="none" stroke="#fff" stroke-miterlimit="10" stroke-width="1"/>
            </g>
          </g>
        </g>
        <g id="Group_12807" data-name="Group 12807" transform="translate(0 3.016)">
          <g id="Group_12806" data-name="Group 12806">
            <g id="Group_12805" data-name="Group 12805">
              <path id="Path_17862" data-name="Path 17862" d="M124.273,142.085a39.583,39.583,0,0,1-3.6,2.56c-4.374,2.926-5.594,1.519-5.644,1.092-1.671,1.541-4.77,4.549-3.619,6.691.831,1.546,4.268,1.092,7.026-1.027,1.055-.811,3.6-3.369,4.807-4.616,1.6-1.657,4.5-2.5,5.538-3.491,2.333-2.233-.2-4.816-1.683-5.765.181,1.6-1.224,3.224-2.823,4.557" transform="translate(-111.156 -137.528)" fill="none" stroke="#fff" stroke-miterlimit="10" stroke-width="1"/>
            </g>
          </g>
        </g>
      </g>
      <g id="Group_12809" data-name="Group 12809" transform="translate(7.03 57.278)">
        <path id="Path_17863" data-name="Path 17863" d="M97.239,117.02a113.644,113.644,0,0,1-10.674-15.365" transform="translate(-82.879 -81.191)" fill="none" stroke="#fff" stroke-miterlimit="10" stroke-width="1"/>
        <path id="Path_17864" data-name="Path 17864" d="M124.1,128.786c.266,3.191.943,6.351-2.7,7.773-1.447.566-3.246,1-4.711.253-1.6-.818-3.028-2.547-4.332-3.765" transform="translate(-86.291 -84.779)" fill="none" stroke="#fff" stroke-miterlimit="10" stroke-width="1"/>
        <path id="Path_17865" data-name="Path 17865" d="M102.218,82.091c4.99,4.54,8.144,10.4,11,16.83" transform="translate(-84.949 -78.604)" fill="none" stroke="#fff" stroke-miterlimit="10" stroke-width="1"/>
        <path id="Path_17866" data-name="Path 17866" d="M86,98.537c-3.5-6.356-6.757-16.222,1.481-20.464" transform="translate(-82.318 -78.073)" fill="none" stroke="#fff" stroke-miterlimit="10" stroke-width="1"/>
      </g>
      <path id="Path_17867" data-name="Path 17867" d="M150.494,86.258c-2.855-3.508-6.46-6.661-10.966-6.211-4.055,0-7.209,1.352-10.814,3.6a19.077,19.077,0,0,1-3.153,2.253c-8.561,6.759-14.419,14.419-21.178,22.53-3.6,4.055-5.407,8.561-9.012,12.165-2.7,3.154,1.352,7.209,4.505,7.661,2.254.45,4.056-1.352,6.309-2.254,8.11-4.505,15.771-8.561,23.271-13.936,2.557,6.856-1.475,1.024,0,0,1.962,6.276,5.116,12.584,10.974,16.189,9.462,4.956,22.529-.451,23.427-11.626" transform="translate(-76.897 -21.05)" fill="none" stroke="#fff" stroke-miterlimit="10" stroke-width="1"/>
      <path id="Path_17868" data-name="Path 17868" d="M174.289,120.662a25.641,25.641,0,0,0-.911-10.207" transform="translate(-87.329 -25.077)" fill="none" stroke="#fff" stroke-miterlimit="10" stroke-width="1"/>
      <g id="Group_12810" data-name="Group 12810" transform="translate(52.389 85.79)">
        <path id="Path_17869" data-name="Path 17869" d="M142.128,110.93a76.466,76.466,0,0,1-7.31,5.661,2.1,2.1,0,0,1-.23-.348" transform="translate(-134.588 -110.93)" fill="none" stroke="#fff" stroke-miterlimit="10" stroke-width="1"/>
      </g>
      <g id="Group_12816" data-name="Group 12816" transform="translate(41.661 70.305)">
        <g id="Group_12815" data-name="Group 12815">
          <g id="Group_12814" data-name="Group 12814">
            <g id="Group_12813" data-name="Group 12813">
              <g id="Group_12812" data-name="Group 12812">
                <g id="Group_12811" data-name="Group 12811">
                  <path id="Path_17870" data-name="Path 17870" d="M137.979,98.477c-.483-.325-1.274-.856-1.739-1.165-.878-.581-1.681-1.25-2.123-1.539a20.8,20.8,0,0,0-3.294-1.5c-1.25-.6-2.306-1.475-2.851-1.093-1.224.863,2.635,2.769,2.441,3.6-.361.3-1.771.1-2.74-.151-1.16-.3-3.971-1.715-4.361-1.115-.217.333-.036.639.318.908-.686-.236-1.26-.3-1.352.128-.079.365.335.751.923,1.109-.435-.1-.78-.1-.91.106-.289.459.4.974,1.3,1.421-.371-.036-.673.036-.815.307-.266.513,3.264,2.116,3.82,2.326,2.142.811,7.068,1.4,9.016,1.874A5.834,5.834,0,0,1,137.979,98.477Z" transform="translate(-122.226 -93.085)" fill="none" stroke="#fff" stroke-miterlimit="10" stroke-width="1"/>
                </g>
              </g>
            </g>
          </g>
        </g>
      </g>
      <g id="Group_12817" data-name="Group 12817" transform="translate(54.972 32.814)">
        <path id="Path_17871" data-name="Path 17871" d="M154.835,71.638c1.2,4.877,3.908,9.834,1.2,14.79-3.153,5.857-10.363,4.055-15.77,6.308-1.8.45-2.7,3.154-2.7,5.407,7.209,5.857,18.474,9.462,27.486,4.506,16.672-8.561,11.716-31.542,2.254-45.059-.9-.451-1.352-1.352-2.254-2.254-3.6-3.153-7.209-5.857-12.165-5.406a1.165,1.165,0,0,0-.342.933" transform="translate(-137.565 -49.881)" fill="none" stroke="#fff" stroke-miterlimit="10" stroke-width="1"/>
      </g>
      <g id="Group_12825" data-name="Group 12825" transform="translate(59.592 30.691)">
        <g id="Group_12824" data-name="Group 12824">
          <g id="Group_12823" data-name="Group 12823">
            <g id="Group_12822" data-name="Group 12822">
              <g id="Group_12821" data-name="Group 12821">
                <g id="Group_12820" data-name="Group 12820">
                  <g id="Group_12819" data-name="Group 12819">
                    <g id="Group_12818" data-name="Group 12818">
                      <path id="Path_17872" data-name="Path 17872" d="M142.889,51.18c0,2.381,2.053,2.812,4.173,2.917,1.4.069,5.135.076,5.47-1.845a9.31,9.31,0,0,0-.594-2.937" transform="translate(-142.889 -47.683)" fill="none" stroke="#fff" stroke-miterlimit="10" stroke-width="1"/>
                      <path id="Path_17873" data-name="Path 17873" d="M153.264,49.066l-.352-1.631" transform="translate(-144.214 -47.435)" fill="none" stroke="#fff" stroke-miterlimit="10" stroke-width="1"/>
                    </g>
                  </g>
                </g>
              </g>
            </g>
          </g>
        </g>
      </g>
      <g id="Group_12836" data-name="Group 12836" transform="translate(53.78 13.628)">
        <g id="Group_12835" data-name="Group 12835">
          <g id="Group_12834" data-name="Group 12834">
            <g id="Group_12833" data-name="Group 12833">
              <g id="Group_12832" data-name="Group 12832">
                <g id="Group_12831" data-name="Group 12831">
                  <g id="Group_12830" data-name="Group 12830">
                    <g id="Group_12829" data-name="Group 12829">
                      <g id="Group_12828" data-name="Group 12828">
                        <g id="Group_12827" data-name="Group 12827">
                          <g id="Group_12826" data-name="Group 12826">
                            <path id="Path_17874" data-name="Path 17874" d="M152.267,39.282c-.475,4.6-4.21,8.815-9.008,8.935-5.185.129-8.028-5.633-6.77-10.233" transform="translate(-136.192 -29.122)" fill="none" stroke="#fff" stroke-miterlimit="10" stroke-width="1"/>
                            <path id="Path_17875" data-name="Path 17875" d="M136.533,36.634c.5-1.873.713-4.19,2.162-5.624,1.793-1.774,4.655-1.459,6.545-3.238" transform="translate(-136.237 -27.772)" fill="none" stroke="#fff" stroke-miterlimit="10" stroke-width="1"/>
                          </g>
                        </g>
                      </g>
                    </g>
                  </g>
                </g>
              </g>
            </g>
          </g>
        </g>
      </g>
      <path id="Path_17876" data-name="Path 17876" d="M146.951,37.452a1.609,1.609,0,0,1-2.371.124" transform="translate(-83.521 -15.424)" fill="none" stroke="#fff" stroke-miterlimit="10" stroke-width="1"/>
      <path id="Path_17877" data-name="Path 17877" d="M139.275,37.644a1.273,1.273,0,0,1-1.446.053" transform="translate(-82.628 -15.449)" fill="none" stroke="#fff" stroke-miterlimit="10" stroke-width="1"/>
      <path id="Path_17878" data-name="Path 17878" d="M143.9,45.006a3.189,3.189,0,0,1-3.63-.327" transform="translate(-82.951 -16.379)" fill="none" stroke="#fff" stroke-miterlimit="10" stroke-width="1"/>
      <path id="Path_17879" data-name="Path 17879" d="M141.5,38.1l-1.106,2.448a.576.576,0,0,0,.542.813l.564-.017" transform="translate(-82.96 -15.509)" fill="none" stroke="#fff" stroke-linejoin="round" stroke-width="1"/>
      <path id="Path_17880" data-name="Path 17880" d="M134.647,46.012c-4.24-4.394-9.313-10.976-8.905-17.409.287-4.531,4.761-7.793,7.778-10.732,3.068-2.989,6.815-6.127,11.383-5.777,6,.462,9.759,5.746,14.012,9.3a33.5,33.5,0,0,0,8.214,4.861c7.359,3.255,8.255,12.4,10.516,19.22A59.662,59.662,0,0,0,185.1,60.262c1.909,2.8,4.45,5.5,5.81,8.636a5.786,5.786,0,0,1,.453,1.494" transform="translate(-81.027 -12.067)" fill="none" stroke="#fff" stroke-linejoin="round" stroke-width="1"/>
      <path id="Path_17881" data-name="Path 17881" d="M198.856,79.015c0,7.63-8.659,11.491-15.208,11.49" transform="translate(-88.687 -20.92)" fill="none" stroke="#fff" stroke-linejoin="round" stroke-width="1"/>
      <path id="Path_17882" data-name="Path 17882" d="M147.41,26.675s-1.667,8.066,6.488,9.733" transform="translate(-83.876 -13.999)" fill="none" stroke="#fff" stroke-linejoin="round" stroke-width="1"/>
    </g>
    <path id="Path_17883" data-name="Path 17883" d="M158.439,30.621a28.069,28.069,0,0,0,9.733,8.111" transform="translate(-11.963 -2.453)" fill="none" stroke="#fff" stroke-miterlimit="10" stroke-width="1"/>
    <path id="Path_17884" data-name="Path 17884" d="M162.074,37.891A28.073,28.073,0,0,0,171.806,46" transform="translate(-12.443 -3.415)" fill="none" stroke="#fff" stroke-miterlimit="10" stroke-width="1"/>
    <path id="Path_17885" data-name="Path 17885" d="M179.209,60.738a28.072,28.072,0,0,0,9.733,8.11" transform="translate(-14.709 -6.436)" fill="none" stroke="#fff" stroke-miterlimit="10" stroke-width="1"/>
    <path id="Path_17886" data-name="Path 17886" d="M181.618,56.688a16.845,16.845,0,0,0,5.84,4.866" transform="translate(-15.028 -5.9)" fill="none" stroke="#fff" stroke-miterlimit="10" stroke-width="1"/>
    <path id="Path_17887" data-name="Path 17887" d="M156.362,24.91a28.072,28.072,0,0,0,9.733,8.11" transform="translate(-11.688 -1.698)" fill="none" stroke="#fff" stroke-miterlimit="10" stroke-width="1"/>
    <path id="Path_17888" data-name="Path 17888" d="M67.97,43.991a4.427,4.427,0,0,0,2.149.96,4.613,4.613,0,0,0,2.4-.279,5.956,5.956,0,0,0,2.008-1.522,21.961,21.961,0,0,1,1.811-1.84,5.8,5.8,0,0,1,2.238-1.189,6.145,6.145,0,0,1,2.552-.114,5.555,5.555,0,0,1,2.357.984,12.631,12.631,0,0,1,1.867,1.775,8.165,8.165,0,0,0,1.9,1.675A4.4,4.4,0,0,0,89.569,45a4.323,4.323,0,0,0,2.357-.758A11.568,11.568,0,0,0,93.735,42.5a9.674,9.674,0,0,1,1.952-1.731,5.588,5.588,0,0,1,2.349-.81,6.064,6.064,0,0,1,2.593.262,6.153,6.153,0,0,1,2.121,1.294c.67.6,1.235,1.305,1.872,1.939a5.291,5.291,0,0,0,1.969,1.317A4.48,4.48,0,0,0,111.2,43.7c.29-.268.567-.554.829-.849" transform="translate(0 -3.684)" fill="none" stroke="#fff" stroke-linejoin="round" stroke-width="1"/>
    <path id="Path_17889" data-name="Path 17889" d="M68.49,51.26a4.417,4.417,0,0,0,2.148.961,4.621,4.621,0,0,0,2.4-.279,5.933,5.933,0,0,0,2.008-1.522,21.962,21.962,0,0,1,1.811-1.84,5.806,5.806,0,0,1,2.239-1.189,6.14,6.14,0,0,1,2.551-.113A5.544,5.544,0,0,1,84,48.262a12.625,12.625,0,0,1,1.867,1.775,8.125,8.125,0,0,0,1.9,1.675,4.4,4.4,0,0,0,2.322.556,4.322,4.322,0,0,0,2.356-.758,11.568,11.568,0,0,0,1.809-1.736,9.775,9.775,0,0,1,1.952-1.731,5.608,5.608,0,0,1,2.349-.81,6.081,6.081,0,0,1,2.594.262,6.176,6.176,0,0,1,2.12,1.294c.67.6,1.235,1.305,1.872,1.939a5.289,5.289,0,0,0,1.969,1.316,4.479,4.479,0,0,0,4.614-1.074c.289-.268.566-.554.828-.85" transform="translate(-0.069 -4.645)" fill="none" stroke="#fff" stroke-linejoin="round" stroke-width="1"/>
    <path id="Path_17890" data-name="Path 17890" d="M69.009,59.568a4.417,4.417,0,0,0,2.149.961,4.623,4.623,0,0,0,2.4-.279,5.93,5.93,0,0,0,2.007-1.522,21.973,21.973,0,0,1,1.812-1.84A5.8,5.8,0,0,1,79.611,55.7a6.141,6.141,0,0,1,2.551-.113,5.543,5.543,0,0,1,2.358.984,12.617,12.617,0,0,1,1.866,1.775,8.129,8.129,0,0,0,1.9,1.675,4.4,4.4,0,0,0,2.321.556,4.32,4.32,0,0,0,2.356-.758,11.568,11.568,0,0,0,1.809-1.736,9.775,9.775,0,0,1,1.952-1.731,5.608,5.608,0,0,1,2.349-.81,6.081,6.081,0,0,1,2.594.262,6.168,6.168,0,0,1,2.12,1.294c.67.6,1.236,1.305,1.873,1.939a5.279,5.279,0,0,0,1.968,1.316,4.478,4.478,0,0,0,4.614-1.074c.29-.268.566-.554.828-.85" transform="translate(-0.137 -5.743)" fill="none" stroke="#fff" stroke-linejoin="round" stroke-width="1"/>
    <path id="Path_17891" data-name="Path 17891" d="M195.186,43.991a4.427,4.427,0,0,0,2.149.96,4.613,4.613,0,0,0,2.4-.279,5.956,5.956,0,0,0,2.008-1.522,21.962,21.962,0,0,1,1.811-1.84,5.8,5.8,0,0,1,2.238-1.189,6.145,6.145,0,0,1,2.552-.114,5.555,5.555,0,0,1,2.357.984,12.631,12.631,0,0,1,1.867,1.775,8.165,8.165,0,0,0,1.9,1.675,4.4,4.4,0,0,0,2.321.556,4.318,4.318,0,0,0,2.356-.758,11.536,11.536,0,0,0,1.81-1.736,9.693,9.693,0,0,1,1.951-1.731,5.6,5.6,0,0,1,2.35-.81,6.064,6.064,0,0,1,2.593.262,6.154,6.154,0,0,1,2.121,1.294c.67.6,1.235,1.305,1.872,1.939a5.291,5.291,0,0,0,1.969,1.317,4.48,4.48,0,0,0,4.613-1.075c.29-.268.567-.554.829-.849" transform="translate(-16.822 -3.684)" fill="none" stroke="#fff" stroke-linejoin="round" stroke-width="1"/>
    <path id="Path_17892" data-name="Path 17892" d="M195.706,51.26a4.417,4.417,0,0,0,2.148.961,4.621,4.621,0,0,0,2.4-.279,5.933,5.933,0,0,0,2.008-1.522,21.96,21.96,0,0,1,1.811-1.84,5.806,5.806,0,0,1,2.239-1.189,6.14,6.14,0,0,1,2.551-.113,5.544,5.544,0,0,1,2.357.984,12.625,12.625,0,0,1,1.867,1.775,8.125,8.125,0,0,0,1.9,1.675,4.4,4.4,0,0,0,2.322.556,4.322,4.322,0,0,0,2.356-.758,11.568,11.568,0,0,0,1.809-1.736,9.775,9.775,0,0,1,1.952-1.731,5.608,5.608,0,0,1,2.349-.81,6.081,6.081,0,0,1,2.594.262,6.176,6.176,0,0,1,2.12,1.294c.67.6,1.235,1.305,1.872,1.939a5.288,5.288,0,0,0,1.969,1.316,4.479,4.479,0,0,0,4.614-1.074c.289-.268.566-.554.828-.85" transform="translate(-16.891 -4.645)" fill="none" stroke="#fff" stroke-linejoin="round" stroke-width="1"/>
    <path id="Path_17893" data-name="Path 17893" d="M196.225,59.568a4.417,4.417,0,0,0,2.149.961,4.619,4.619,0,0,0,2.4-.279,5.925,5.925,0,0,0,2.008-1.522,21.973,21.973,0,0,1,1.812-1.84,5.8,5.8,0,0,1,2.238-1.189,6.141,6.141,0,0,1,2.551-.113,5.539,5.539,0,0,1,2.357.984,12.58,12.58,0,0,1,1.867,1.775,8.112,8.112,0,0,0,1.9,1.675,4.4,4.4,0,0,0,2.321.556,4.322,4.322,0,0,0,2.356-.758,11.568,11.568,0,0,0,1.809-1.736,9.775,9.775,0,0,1,1.952-1.731,5.608,5.608,0,0,1,2.349-.81,6.081,6.081,0,0,1,2.594.262A6.176,6.176,0,0,1,231,57.1c.67.6,1.236,1.305,1.873,1.939a5.278,5.278,0,0,0,1.968,1.316,4.478,4.478,0,0,0,4.614-1.074c.29-.268.566-.554.828-.85" transform="translate(-16.959 -5.743)" fill="none" stroke="#fff" stroke-linejoin="round" stroke-width="1"/>
  </g>
</svg>
