<svg xmlns="http://www.w3.org/2000/svg" width="102.243" height="89.261" viewBox="0 0 102.243 89.261">
  <g id="confident" transform="translate(-94.908 -49.205)">
    <path id="Path_17838" data-name="Path 17838" d="M185.308,95.882a37.791,37.791,0,0,0-3.271-15.533c5.928-8.482,1.329-27.8,1.125-28.613l-.205-.92-.817-.2c-11.446-3.373-24.015,4.6-26.876,6.642a44.953,44.953,0,0,0-8.38-1.431v-.1h-3.066v.1a51.284,51.284,0,0,0-8.073,1.329c-2.35-1.635-15.328-10.015-27.182-6.643l-.818.205-.2.919c-.205.818-5.008,20.03,1.328,28.1a38.8,38.8,0,0,0-3.474,16.146,60.912,60.912,0,0,1-.92,9.095c-1.124,7.46-2.146,15.226,2.248,20.336,7.358,8.584,25.241,10.423,37.2,10.73h3.066c11.854-.205,29.84-2.146,37.2-10.73,4.293-5.11,3.168-12.876,2.044-20.336A60.9,60.9,0,0,1,185.308,95.882Z" fill="none" stroke="#fff" stroke-miterlimit="10" stroke-width="1"/>
    <path id="Path_17839" data-name="Path 17839" d="M164.359,60.933a30.136,30.136,0,0,0-5.212-2.351c4.19-2.657,13.182-7.153,21.255-5.211,1.227,5.416,2.862,17.168.1,23.606a35.439,35.439,0,0,0-2.964-4.6" fill="none" stroke="#fff" stroke-miterlimit="10" stroke-width="1"/>
    <path id="Path_17840" data-name="Path 17840" d="M113.468,71.969a34.268,34.268,0,0,0-2.964,4.5c-3.168-5.927-1.431-17.679-.2-23.1,8.175-1.84,17.27,2.554,21.46,5.109a44.12,44.12,0,0,0-5.008,2.248" fill="none" stroke="#fff" stroke-miterlimit="10" stroke-width="1"/>
    <path id="Path_17841" data-name="Path 17841" d="M116.6,73.1a37.794,37.794,0,0,1,2.586-2.87c.54,4.257,5.245,12.877,9.671,6.8,4.545-4.668,2.5-10.8,4.545-15.909,1.022-1.022,2.043-1.022,3.463-1.009.132,5.955-.823.177,0,0a57.913,57.913,0,0,0,2.745,17.809c.852,2.423,2.524,7.02,5.737,7.024s4.881-4.555,5.737-6.974a57.394,57.394,0,0,0,2.745-17.756c.883.206,2.632.4,3.321.979,2.821,6.058-.245,15.256,6.909,17.3,4.087,1.022,8.175-3.065,7.449-8.162,1.041,1.041-.522,4.131,0,0a37.314,37.314,0,0,1,2.931,3.3" fill="none" stroke="#fff" stroke-miterlimit="10" stroke-width="1"/>
    <path id="Path_17842" data-name="Path 17842" d="M141.769,116.274l-4.356-5.724a3.358,3.358,0,0,1,2.862-5.351h9.582a3.8,3.8,0,0,1,3.235,6.1l-3.857,4.978A4.666,4.666,0,0,1,141.769,116.274Z" fill="none" stroke="#fff" stroke-miterlimit="10" stroke-width="1"/>
    <path id="Path_17843" data-name="Path 17843" d="M149.981,88.152a5.076,5.076,0,0,0,.125,1.368,13.99,13.99,0,0,0-4.729-.746,14.506,14.506,0,0,0-4.728.746c0-.5.124-.871.124-1.368h-32.6c0,8.586,7.342,15.554,16.3,15.554a16.482,16.482,0,0,0,15.057-9.581,11.379,11.379,0,0,1,11.7,0,16.346,16.346,0,0,0,15.056,9.581c8.96,0,16.3-6.968,16.3-15.554Z" fill="none" stroke="#fff" stroke-miterlimit="10" stroke-width="1"/>
    <path id="Path_17844" data-name="Path 17844" d="M145.512,117.205a10.775,10.775,0,1,1-21.059-2.663" fill="none" stroke="#fff" stroke-miterlimit="10" stroke-width="1"/>
    <path id="Path_17845" data-name="Path 17845" d="M166.012,113.507a10.778,10.778,0,1,1-20.687,3.7" fill="none" stroke="#fff" stroke-miterlimit="10" stroke-width="1"/>
    <g id="Group_12788" data-name="Group 12788">
      <line id="Line_262" data-name="Line 262" x2="34.194" y2="10.789" transform="translate(162.806 117.699)" fill="none" stroke="#fff" stroke-miterlimit="10" stroke-width="1"/>
      <line id="Line_263" data-name="Line 263" x1="37.924" y1="15.493" transform="translate(156.102 120.55)" fill="none" stroke="#fff" stroke-miterlimit="10" stroke-width="1"/>
      <line id="Line_264" data-name="Line 264" x2="25.994" y2="13.009" transform="translate(153.909 125.01)" fill="none" stroke="#fff" stroke-miterlimit="10" stroke-width="1"/>
    </g>
    <g id="Group_12789" data-name="Group 12789">
      <line id="Line_265" data-name="Line 265" x1="34.194" y2="10.789" transform="translate(95.058 115.392)" fill="none" stroke="#fff" stroke-miterlimit="10" stroke-width="1"/>
      <line id="Line_266" data-name="Line 266" y1="15.493" x2="37.924" transform="translate(98.032 118.243)" fill="none" stroke="#fff" stroke-miterlimit="10" stroke-width="1"/>
      <line id="Line_267" data-name="Line 267" x1="25.994" y2="13.009" transform="translate(112.155 122.703)" fill="none" stroke="#fff" stroke-miterlimit="10" stroke-width="1"/>
    </g>
    <line id="Line_268" data-name="Line 268" x2="13.561" y2="14.555" transform="translate(116.604 88.152)" fill="none" stroke="#fff" stroke-miterlimit="10" stroke-width="1"/>
    <path id="Path_17846" data-name="Path 17846" d="M124.028,88.152" fill="none" stroke="#fff" stroke-miterlimit="10" stroke-width="1"/>
    <line id="Line_269" data-name="Line 269" x1="1.12" y2="4.604" transform="translate(139.529 89.52)" fill="none" stroke="#fff" stroke-miterlimit="10" stroke-width="1"/>
    <line id="Line_270" data-name="Line 270" x2="1.12" y2="4.604" transform="translate(150.106 89.52)" fill="none" stroke="#fff" stroke-miterlimit="10" stroke-width="1"/>
    <path id="Path_17847" data-name="Path 17847" d="M122.368,88.152" fill="none" stroke="#fff" stroke-miterlimit="10" stroke-width="1"/>
    <path id="Path_17848" data-name="Path 17848" d="M133.724,100.923" fill="none" stroke="#fff" stroke-miterlimit="10" stroke-width="1"/>
    <line id="Line_271" data-name="Line 271" x2="10.666" y2="10.666" transform="translate(124.028 88.152)" fill="none" stroke="#fff" stroke-miterlimit="10" stroke-width="1"/>
    <line id="Line_272" data-name="Line 272" x2="11.907" y2="14.555" transform="translate(157.761 88.152)" fill="none" stroke="#fff" stroke-miterlimit="10" stroke-width="1"/>
    <line id="Line_273" data-name="Line 273" x2="10.126" y2="12.771" transform="translate(164.938 88.152)" fill="none" stroke="#fff" stroke-miterlimit="10" stroke-width="1"/>
    <line id="Line_274" data-name="Line 274" x2="9.682" y2="12.035" transform="translate(166.906 88.152)" fill="none" stroke="#fff" stroke-miterlimit="10" stroke-width="1"/>
  </g>
</svg>
