<svg xmlns="http://www.w3.org/2000/svg" width="124.215" height="122.328" viewBox="0 0 124.215 122.328">
  <g id="dance" transform="translate(-3842.289 1307.896)">
    <path id="Path_18174" data-name="Path 18174" d="M3898.916-1279.552c-2.44-3.1-3.983-7.113-3.983-9.782,0-4.894,5.188-8.861,11.588-8.861s11.588,3.967,11.588,8.861c0,3.163-2.168,8.219-5.431,11.4" fill="none" stroke="#fff" stroke-miterlimit="10" stroke-width="1"/>
    <path id="Path_18175" data-name="Path 18175" d="M3884.227-1299.535s1.228-1.46,1.2-2.054c-.045-.977-1.971-2.251-2.278-3.18-.209-.63-.248-2.5.4-2.623s.877,1.752,1.319,2.223c.965,1.028,4.595,2.882,2.542,5.128a7.649,7.649,0,0,0-1.248,2.357Z" fill="none" stroke="#fff" stroke-miterlimit="10" stroke-width="1"/>
    <path id="Path_18176" data-name="Path 18176" d="M3922.443-1295.116s-.781-1.74-.592-2.3c.311-.927,2.512-1.626,3.061-2.435.373-.549.921-2.334.329-2.633s-1.322,1.445-1.877,1.777c-1.209.725-5.208,1.517-3.847,4.238a7.7,7.7,0,0,1,.556,2.609Z" fill="none" stroke="#fff" stroke-miterlimit="10" stroke-width="1"/>
    <g id="Group_12929" data-name="Group 12929">
      <path id="Path_18177" data-name="Path 18177" d="M3923.13-1191.989l-.225-2.341-1.417,1.021-.053,2.238,4.236.982Z" fill="none" stroke="#fff" stroke-linejoin="round" stroke-width="1"/>
      <path id="Path_18178" data-name="Path 18178" d="M3917.573-1221.112c.758.8,3.943,27.887,3.943,27.887l1.363-1.363s7.212-30.636,6.573-31.617c-3.867-5.941-8.848-15.057-12.708-20.869" fill="none" stroke="#fff" stroke-miterlimit="10" stroke-width="1"/>
      <path id="Path_18179" data-name="Path 18179" d="M3916.393-1246.354" fill="none" stroke="#fff" stroke-miterlimit="10" stroke-width="1"/>
    </g>
    <g id="Group_12930" data-name="Group 12930">
      <path id="Path_18180" data-name="Path 18180" d="M3900.086-1190.179l.874-3.571-2.561.769-1.222,3.276,5.6,3.637Z" fill="none" stroke="#fff" stroke-linejoin="round" stroke-width="1"/>
      <path id="Path_18181" data-name="Path 18181" d="M3895.526-1241.109c2.184,5.687,5.724,14.747,8.16,20.2.449,1.006-5.345,27.676-5.345,27.676l2.727-.676s15.791-26.71,15.515-27.846c-1.7-7.022-4.429-17.859-6.13-24.6" fill="none" stroke="#fff" stroke-miterlimit="10" stroke-width="1"/>
    </g>
    <path id="Path_18182" data-name="Path 18182" d="M3900.387-1281.836s-1.463,4.424-5.062,2.72" fill="none" stroke="#fff" stroke-miterlimit="10" stroke-width="1"/>
    <path id="Path_18183" data-name="Path 18183" d="M3904.057-1277.427a8.977,8.977,0,0,1,.3-3.458" fill="none" stroke="#fff" stroke-miterlimit="10" stroke-width="1"/>
    <path id="Path_18184" data-name="Path 18184" d="M3907.119-1285.807c-.176-.6-.616-.492-1.011-.235.61-2.488-.079-4.8-1.684-5.351-1.757-.6-3.945,1.134-4.887,3.878s-.282,5.459,1.475,6.062c1.282.44,2.793-.367,3.883-1.9C3905.723-1283.825,3907.383-1284.9,3907.119-1285.807Z" fill="none" stroke="#fff" stroke-miterlimit="10" stroke-width="1"/>
    <path id="Path_18185" data-name="Path 18185" d="M3898.655-1242.7a45.738,45.738,0,0,1,5.035-1.954,39.522,39.522,0,0,1,13.759-2.059c-2.576-3.59-6.44-9.412-6.9-12.621,0,0,16.275-9.839,21.1-13.921,1.021-.864-9.441-23.089-9.441-23.089l-2.7.939s1.661,12.15,2.076,16.928c.034.394-16.326.744-16.326.744a6.766,6.766,0,0,1-4.594,1.429c-2.831,0-5.127-1.152-5.127-2.573a1.366,1.366,0,0,1,.138-.592s-11.82-4.477-15.435-7c-.221-.155,6.67-12.145,6.67-12.145l-2.146-1.838s-13.421,14.821-13.335,15.808c.6,6.762,16.553,21.524,16.553,21.524a34.833,34.833,0,0,0,.958,3.981c2.21,7.344,4.771,14.9,5.973,18.394q.955-.567,1.992-1.1" fill="none" stroke="#fff" stroke-miterlimit="10" stroke-width="1"/>
    <path id="Path_18186" data-name="Path 18186" d="M3897.66-1294.1" fill="none" stroke="#fff" stroke-miterlimit="10" stroke-width="1"/>
    <path id="Path_18187" data-name="Path 18187" d="M3867.168-1228.169a31.937,31.937,0,0,1-9.383-22.653,31.924,31.924,0,0,1,8.555-21.794" fill="none" stroke="#fff" stroke-miterlimit="10" stroke-width="1"/>
    <path id="Path_18188" data-name="Path 18188" d="M3852.172-1228.169a31.937,31.937,0,0,1-9.383-22.653,31.924,31.924,0,0,1,8.555-21.794" fill="none" stroke="#fff" stroke-miterlimit="10" stroke-width="1"/>
    <path id="Path_18189" data-name="Path 18189" d="M3941.625-1272.616a31.937,31.937,0,0,1,9.383,22.653,31.925,31.925,0,0,1-8.555,21.794" fill="none" stroke="#fff" stroke-miterlimit="10" stroke-width="1"/>
    <path id="Path_18190" data-name="Path 18190" d="M3956.621-1272.616a31.938,31.938,0,0,1,9.383,22.653,31.924,31.924,0,0,1-8.555,21.794" fill="none" stroke="#fff" stroke-miterlimit="10" stroke-width="1"/>
  </g>
</svg>
