<svg xmlns="http://www.w3.org/2000/svg" width="132.098" height="130.261" viewBox="0 0 132.098 130.261">
  <g id="disappointment" transform="translate(-86.415 -17.959)">
    <g id="Group_12890" data-name="Group 12890" transform="translate(116.108 47.536)">
      <path id="Path_18033" data-name="Path 18033" d="M190.593,136.657a1.245,1.245,0,0,1-2.169-.314l-15.772-20.025" transform="translate(-123.073 -55.366)" fill="none" stroke="#fff" stroke-miterlimit="10" stroke-width="1"/>
      <path id="Path_18034" data-name="Path 18034" d="M160.962,118.13l24,35.619h9.882c.838-.108,1.463-1.174,1.405-2.4V121.994c0-13.619-5.984-24.741-14.313-27.969a1.214,1.214,0,0,1-.5.129h-.382l0,.012c-1.165,3.772-3.078,6.851-4.677,10.224a2.035,2.035,0,0,1-1.229,1.2" transform="translate(-122.129 -53.565)" fill="none" stroke="#fff" stroke-miterlimit="10" stroke-width="1"/>
      <path id="Path_18035" data-name="Path 18035" d="M141.753,115.167l-13.684,21.082a1.245,1.245,0,0,1-2.169.314" transform="translate(-119.295 -55.273)" fill="none" stroke="#fff" stroke-miterlimit="10" stroke-width="1"/>
      <path id="Path_18036" data-name="Path 18036" d="M140.316,104.558a1.362,1.362,0,0,1-1.1-.768,22.38,22.38,0,0,1-3.125-10.416c-.526.133-1.05.287-1.578.4a7.023,7.023,0,0,1-1.527.174c-8.308,3.29-14.272,14.4-14.272,27.994V151.3c-.058,1.223.567,2.29,1.405,2.4h9.882l22.87-36.229" transform="translate(-118.714 -53.512)" fill="none" stroke="#fff" stroke-miterlimit="10" stroke-width="1"/>
      <path id="Path_18037" data-name="Path 18037" d="M177.09,63.247c-.693-2.644-3.9-5.476-4.03-6.673s.315-1.384.315-1.384-.063-.063-.693-.063-1.7.126-1.7.126a8.074,8.074,0,0,0-.314-1.825,24.929,24.929,0,0,0-1.323-3.274l-.377.693a1.316,1.316,0,0,1-1.2.63l.059-1.468a2.554,2.554,0,0,1-1.126.25c-.258,0-.518,0-.777.006a2.734,2.734,0,0,1-1.749.03c-.774.02-1.551.047-2.328.087a25.325,25.325,0,0,1-9.957,2.467,2.349,2.349,0,0,1-1.364-.419c-.073.028-.148.048-.221.077l-.209.085c-.174.077-.347.153-.519.232q-.567.259-1.12.546a24.319,24.319,0,0,0-2.144,1.245q-.516.336-1.012.7c-.047.034-.093.069-.139.1-.154.13-.313.254-.466.383a18.377,18.377,0,0,0-1.819,1.77q-.2.227-.4.461c-.038.045-.127.162-.188.243-.21.29-.418.579-.611.881a15.228,15.228,0,0,0-1.1,2.065c-.029.075-.078.2-.111.292-.074.2-.142.4-.208.6-.132.415-.244.834-.346,1.256a2.517,2.517,0,0,1-2.5,1.845,17.423,17.423,0,0,0-.246,2.434A15.709,15.709,0,0,0,139,76.467a16.748,16.748,0,0,1,.96,2.992,15,15,0,0,1,2.135-4.353,2.7,2.7,0,0,1,2.577-1.218,15.614,15.614,0,0,1,4.212-3.338,6.086,6.086,0,0,0-2.388,4.566,2.582,2.582,0,0,1,.271.6c0,.008,0,.019,0,.027a24.815,24.815,0,0,1,3.372-3.179,14.168,14.168,0,0,1,6.17-3.211,14.684,14.684,0,0,0-2.959,2.959,10.644,10.644,0,0,0-2.015,3.652s1.385-1.511,8.058-4.282a19.1,19.1,0,0,1,11.9-1.2,25.257,25.257,0,0,0-.12,3.383,2.591,2.591,0,0,1,2.155,2.526,4.665,4.665,0,0,0,.017.482,5.754,5.754,0,0,0,.188.673,10.385,10.385,0,0,0,1.029,1.7c.036.044.077.084.113.128.414-1.653,1.136-2.092,1.906-3.222C177.53,74.768,177.782,65.891,177.09,63.247Z" transform="translate(-120.205 -50.007)" fill="none" stroke="#fff" stroke-miterlimit="10" stroke-width="1"/>
      <path id="Path_18038" data-name="Path 18038" d="M152.895,116.358c1.886-3.86,4.339-8.927,4.434-9.433,1.854-4.447-1.7-14.26-4.315-12.076-1.233,1.029-.692,3.514.221,5.856a4.248,4.248,0,0,1-1.273-1.623,33.723,33.723,0,0,1-1.223-6.957c-.158-2.9-2.3-6.8-3.78-2.329s-4.746,13.286-.761,17.088a31.741,31.741,0,0,0,3.52,2.951l-3.437,4.176" transform="translate(-120.781 -53.059)" fill="none" stroke="#fff" stroke-miterlimit="10" stroke-width="1"/>
      <path id="Path_18039" data-name="Path 18039" d="M164.562,115.444c-1.886-3.861-3.88-8.013-3.975-8.519-1.853-4.447,1.7-14.26,4.315-12.076,1.234,1.029.692,3.514-.221,5.856a4.239,4.239,0,0,0,1.273-1.623,33.725,33.725,0,0,0,1.223-6.957c.158-2.9,2.3-6.8,3.78-2.329s4.746,13.286.761,17.088a31.659,31.659,0,0,1-3.52,2.951l3.437,4.176" transform="translate(-122.057 -53.059)" fill="none" stroke="#fff" stroke-miterlimit="10" stroke-width="1"/>
      <path id="Path_18040" data-name="Path 18040" d="M144.871,95.268a24.113,24.113,0,0,1-3.782-13.219" transform="translate(-120.522 -52.597)" fill="none" stroke="#fff" stroke-miterlimit="10" stroke-width="1"/>
      <path id="Path_18041" data-name="Path 18041" d="M176.768,82.049a24.1,24.1,0,0,1-3.782,13.219" transform="translate(-123.1 -52.597)" fill="none" stroke="#fff" stroke-miterlimit="10" stroke-width="1"/>
      <line id="Line_320" data-name="Line 320" x1="51.543" transform="translate(11.291 100.184)" fill="none" stroke="#fff" stroke-miterlimit="10" stroke-width="1"/>
    </g>
    <path id="Path_18042" data-name="Path 18042" d="M188.926,76.3l5.259,7.95.2-11.934L202.6,86.079l2.313-15.864,15.546,3.917-9.582-12.853,13.763-8.223L208.78,50.743,212.7,35.2l-12.853,9.582-8.223-13.763-2.313,15.864L181.03,43.9l2.117,5.271" transform="translate(-7.643 -0.936)" fill="none" stroke="#fff" stroke-miterlimit="10" stroke-width="1"/>
    <path id="Path_18043" data-name="Path 18043" d="M149.8,47.242l5.06-8.079-10.944,4.762,9.124-13.183-15.4,4.463-2.87-15.773-7.733,14.044-13.183-9.124,4.463,15.4-15.773,2.87,14.044,7.733L107.46,63.537l15.4-4.462.713,8.77,3.921-4.11" transform="translate(-1.299)" fill="none" stroke="#fff" stroke-miterlimit="10" stroke-width="1"/>
    <line id="Line_321" data-name="Line 321" x2="12.675" y2="4.062" transform="translate(137.677 108.001)" fill="none" stroke="#fff" stroke-miterlimit="10" stroke-width="1"/>
    <line id="Line_322" data-name="Line 322" y1="4.267" x2="12.607" transform="translate(154.124 107.899)" fill="none" stroke="#fff" stroke-miterlimit="10" stroke-width="1"/>
    <g id="Group_12891" data-name="Group 12891" transform="translate(86.466 71.43)">
      <line id="Line_323" data-name="Line 323" x1="11.333" y2="8.758" transform="translate(10.347 7.644)" fill="none" stroke="#fff" stroke-miterlimit="10" stroke-width="1"/>
      <line id="Line_324" data-name="Line 324" x1="4.725" y2="14.074" transform="translate(23.904 13.429)" fill="none" stroke="#fff" stroke-miterlimit="10" stroke-width="1"/>
      <line id="Line_325" data-name="Line 325" x1="16.203" y2="1.671" transform="translate(0 0)" fill="none" stroke="#fff" stroke-miterlimit="10" stroke-width="1"/>
    </g>
    <g id="Group_12892" data-name="Group 12892" transform="translate(199.644 84.374)">
      <line id="Line_326" data-name="Line 326" x2="13.545" y2="4.653" transform="translate(3.375 12.775)" fill="none" stroke="#fff" stroke-miterlimit="10" stroke-width="1"/>
      <line id="Line_327" data-name="Line 327" y1="3.789" x2="14.354" transform="translate(4.387)" fill="none" stroke="#fff" stroke-miterlimit="10" stroke-width="1"/>
      <line id="Line_328" data-name="Line 328" x2="10.302" y2="12.617" transform="translate(0 21.552)" fill="none" stroke="#fff" stroke-miterlimit="10" stroke-width="1"/>
    </g>
  </g>
</svg>
