<svg xmlns="http://www.w3.org/2000/svg" width="88.256" height="109.016" viewBox="0 0 88.256 109.016">
  <g id="distressed" transform="translate(-5939.235 1079.533)">
    <path id="Path_18207" data-name="Path 18207" d="M6024.255-1018.81" fill="none" stroke="#fff" stroke-miterlimit="10" stroke-width="1"/>
    <path id="Path_18208" data-name="Path 18208" d="M6007.349-986.194q.46-.534.921-1.088" fill="none" stroke="#fff" stroke-miterlimit="10" stroke-width="1"/>
    <path id="Path_18209" data-name="Path 18209" d="M5959.317-986.175q8.256,9.588,16.207,13.179a16.18,16.18,0,0,0,16.052-.321c5.218-2.457,10.494-6.75,15.773-12.877" fill="none" stroke="#fff" stroke-miterlimit="10" stroke-width="1"/>
    <path id="Path_18210" data-name="Path 18210" d="M5943.124-1016.917" fill="none" stroke="#fff" stroke-miterlimit="10" stroke-width="1"/>
    <path id="Path_18211" data-name="Path 18211" d="M6024.255-1018.81q1.036-3.934,1.768-8.087,4.142-23.307-9.567-37.69a44.4,44.4,0,0,0-33.387-14.446q-19.888.1-33.195,14.35-13.34,14.2-9.118,37.465.969,5.361,2.368,10.3" fill="none" stroke="#fff" stroke-miterlimit="10" stroke-width="1"/>
    <path id="Path_18212" data-name="Path 18212" d="M6015.012-1046.384c2.343,12.1-1.67,23.339-9.567,24.752s-14.607-8.058-17.561-20.579c-2.857-12.006,1.188-19.936,9.086-21.316C6004.867-1064.94,6012.347-1060.156,6015.012-1046.384Z" fill="none" stroke="#fff" stroke-miterlimit="10" stroke-width="1"/>
    <path id="Path_18213" data-name="Path 18213" d="M5951.8-1046.513c-2.087,12.168.642,23.275,8.475,24.913s14.832-7.609,18.171-20.033c3.21-11.91-.578-19.936-8.443-21.573C5962.169-1064.844,5954.176-1060.221,5951.8-1046.513Z" fill="none" stroke="#fff" stroke-miterlimit="10" stroke-width="1"/>
    <path id="Path_18214" data-name="Path 18214" d="M5989.843-1013.157c-1.67-4.174-3.853-6.228-6.614-6.228-2.728,0-5.1,2.119-7.159,6.388a37.392,37.392,0,0,0-3.242,15.282,40.532,40.532,0,0,0,1.894,14.767c1.445,3.917,4.141,5.875,8.058,5.875,3.916-.032,6.677-1.926,8.25-5.682,1.606-3.788,2.248-8.732,1.862-14.9A50.055,50.055,0,0,0,5989.843-1013.157Z" fill="none" stroke="#fff" stroke-miterlimit="10" stroke-width="1"/>
    <path id="Path_18215" data-name="Path 18215" d="M5987.6-986.575a5.758,5.758,0,0,0-4.269-2.376,6.465,6.465,0,0,0-4.623,1.316,5.5,5.5,0,0,0-2.312,3.724,6.006,6.006,0,0,0,1.028,4.43c.931,1.445,2.568,2.248,4.847,2.344,2.312.128,4.013-.321,5.169-1.381a4.856,4.856,0,0,0,1.766-3.724A6.8,6.8,0,0,0,5987.6-986.575Z" fill="none" stroke="#fff" stroke-miterlimit="10" stroke-width="1"/>
    <path id="Path_18216" data-name="Path 18216" d="M5953.02-1020.477q-3.179-4.141-7.031-2.793-3.418,1.445-2.6,6.646a26.809,26.809,0,0,0,1.8,6.26c2.279,6.774,3.146,11.076,2.568,12.938.578-1.862-.289-6.164-2.568-12.938a25.26,25.26,0,0,1-1.8-6.26l-.032-.161c-3.082.257-3.885,2.954-2.376,8.058a39.249,39.249,0,0,1,1.477,17.432c-.289,2.215-.546,4.4-.706,6.614-.321,4.141.545,7.03,2.536,8.668a4.65,4.65,0,0,0,2.472,1.123,7.975,7.975,0,0,0,8.154-3.274,26.022,26.022,0,0,0,2.889-4.623c4.495-9.278,5.972-17.4,4.366-24.4-1.7-6.421-4.141-9.6-7.319-9.5q-6.743.432-2.857,11.557c1.573,4.2,2.054,7.127,1.412,8.764.642-1.637.161-4.559-1.412-8.764q-3.9-11.124,2.857-11.557A18.172,18.172,0,0,0,5953.02-1020.477Z" fill="none" stroke="#fff" stroke-miterlimit="10" stroke-width="1"/>
    <path id="Path_18217" data-name="Path 18217" d="M6024.193-1004.81q4.575-11.653.161-12.135a18.417,18.417,0,0,1-1.22,5.425c-2.023,5.394-2.954,9.663-2.793,12.874-.129-3.179.8-7.48,2.793-12.874a17.655,17.655,0,0,0,1.22-5.425,6.667,6.667,0,0,0-3.211-6.485q-5.922-2.553-9.374,6.581,6.743.434,2.857,11.557c-1.573,4.206-2.183,7.095-1.765,8.668-.386-1.573.192-4.462,1.765-8.668q3.9-11.124-2.857-11.557c-3.178-.1-5.618,3.05-7.319,9.5-1.606,6.966-.129,15.12,4.366,24.4a26.014,26.014,0,0,0,2.889,4.623c2.183,2.793,4.751,3.885,7.737,3.307,2.889-.61,4.077-3.339,3.531-8.155-.128-.834-.257-1.637-.353-2.471A53.262,53.262,0,0,1,6024.193-1004.81Z" fill="none" stroke="#fff" stroke-miterlimit="10" stroke-width="1"/>
  </g>
</svg>
