<svg xmlns="http://www.w3.org/2000/svg" width="156.776" height="95" viewBox="0 0 156.776 95">
  <g id="gold" transform="translate(-6861.93 466)">
    <path id="Path_18218" data-name="Path 18218" d="M6955.5-371.5h-57l7-36h32Z" fill="none" stroke="#fff" stroke-miterlimit="10" stroke-width="1"/>
    <path id="Path_18219" data-name="Path 18219" d="M6941.5-429.5" fill="none" stroke="#fff" stroke-miterlimit="10" stroke-width="1"/>
    <path id="Path_18220" data-name="Path 18220" d="M6963.5-465.5h32l18,36" fill="none" stroke="#fff" stroke-miterlimit="10" stroke-width="1"/>
    <line id="Line_358" data-name="Line 358" y1="58" x2="58" transform="translate(6905.5 -465.5)" fill="none" stroke="#fff" stroke-miterlimit="10" stroke-width="1"/>
    <line id="Line_359" data-name="Line 359" y1="58" x2="58" transform="translate(6937.5 -465.5)" fill="none" stroke="#fff" stroke-miterlimit="10" stroke-width="1"/>
    <line id="Line_360" data-name="Line 360" y1="58" x2="58" transform="translate(6955.5 -429.5)" fill="none" stroke="#fff" stroke-miterlimit="10" stroke-width="1"/>
    <g id="Group_12779" data-name="Group 12779">
      <path id="Path_17797" data-name="Path 17797" d="M6987.186-378.375l.239-1.556c.428-2.793.164-3.484-2.014-5.286l-1.213-1,1.556.238c2.793.429,3.485.165,5.286-2.012l1-1.213-.238,1.556c-.428,2.793-.165,3.485,2.013,5.287l1.213,1-1.556-.239c-2.792-.429-3.486-.165-5.287,2.013Zm-.186-6.589a4.251,4.251,0,0,1,1.443,3.788,4.245,4.245,0,0,1,3.787-1.442,4.255,4.255,0,0,1-1.443-3.788,4.24,4.24,0,0,1-3.787,1.443Z" fill="#fff"/>
    </g>
    <g id="Group_12780" data-name="Group 12780">
      <path id="Path_17798" data-name="Path 17798" d="M6864.919-418.5l.238-1.556c.428-2.793.165-3.484-2.014-5.287l-1.213-1,1.556.238c2.793.429,3.485.165,5.286-2.012l1-1.213-.238,1.556c-.428,2.793-.165,3.485,2.013,5.287l1.213,1-1.556-.239c-2.793-.429-3.486-.165-5.287,2.013Zm-.187-6.589a4.248,4.248,0,0,1,1.443,3.788,4.245,4.245,0,0,1,3.787-1.442,4.256,4.256,0,0,1-1.443-3.788,4.24,4.24,0,0,1-3.788,1.443Z" fill="#fff"/>
    </g>
    <g id="Group_12780-2" data-name="Group 12780">
      <path id="Path_17798-2" data-name="Path 17798" d="M6910.31-439.5l.431-2.8c.77-5.028.295-6.273-3.627-9.519l-2.184-1.8,2.8.428c5.029.773,6.275.3,9.518-3.622l1.8-2.184-.429,2.8c-.77,5.029-.3,6.275,3.625,9.519l2.184,1.8-2.8-.43c-5.028-.773-6.276-.3-9.519,3.624Zm-.335-11.863a7.655,7.655,0,0,1,2.6,6.82,7.637,7.637,0,0,1,6.818-2.6,7.66,7.66,0,0,1-2.6-6.821,7.634,7.634,0,0,1-6.82,2.6Z" fill="#fff"/>
    </g>
    <g id="Group_12781" data-name="Group 12781">
      <path id="Path_17799" data-name="Path 17799" d="M6885.039-398.267l-.546-1.476c-.716-1.937-1.1-2.258-3.127-2.636l-1.547-.288,1.476-.547c1.938-.717,2.257-1.1,2.636-3.128l.289-1.547.546,1.476c.717,1.938,1.1,2.258,3.127,2.637l1.547.289-1.476.546c-1.937.717-2.257,1.1-2.636,3.127Zm-2.226-4.656a3.07,3.07,0,0,1,1.971,1.661,3.085,3.085,0,0,1,1.662-1.971,3.076,3.076,0,0,1-1.971-1.662,3.073,3.073,0,0,1-1.662,1.973Z" fill="#fff"/>
    </g>
    <g id="Group_12782" data-name="Group 12782">
      <path id="Path_17800" data-name="Path 17800" d="M7007.887-390.459l.238-1.556c.662-4.32.221-5.478-3.147-8.263l-1.213-1,1.556.238c4.32.661,5.478.221,8.263-3.147l1-1.213-.238,1.556c-.662,4.32-.221,5.478,3.147,8.262l1.213,1-1.556-.239c-4.319-.661-5.478-.221-8.263,3.147Zm-1.253-9.535c2.288,2.1,2.854,3.579,2.539,6.666,2.1-2.289,3.582-2.85,6.665-2.54-2.288-2.1-2.853-3.578-2.538-6.665-2.095,2.288-3.578,2.853-6.666,2.538Z" fill="#fff"/>
    </g>
  </g>
</svg>
