<svg xmlns="http://www.w3.org/2000/svg" width="93.007" height="135.725" viewBox="0 0 93.007 135.725">
  <g id="good" transform="translate(-4261.533 1324.419)">
    <g id="Group_12898" data-name="Group 12898">
      <path id="Path_18071" data-name="Path 18071" d="M4301.162-1292.088c-12.328-5.49-3.976-21.46,2.88-27.756,0,0,3-9.393,27.774.4s9.2,12.262,9.2,12.262,12.176,3.151,9.2,12.262-15.254,18.306-21.467,18.391-3.065-3.065-3.065-3.065" fill="none" stroke="#fff" stroke-miterlimit="10" stroke-width="1"/>
      <path id="Path_18072" data-name="Path 18072" d="M4305.522-1304.118a34.721,34.721,0,0,0-3.7,7.641c-4.141,12.063-1.239,23.991,6.482,26.641,5.634,1.935,12.275-1.611,17.064-8.355,3.634-2.074,10.937-6.807,9.773-10.783-.772-2.637-2.708-2.162-4.444-1.033a31.016,31.016,0,0,0,.772-11.046" fill="none" stroke="#fff" stroke-miterlimit="10" stroke-width="1"/>
      <path id="Path_18073" data-name="Path 18073" d="M4320.2-1284.959a8.089,8.089,0,0,1-8.1,8.082,8.089,8.089,0,0,1-8.082-8.082Z" fill="none" stroke="#fff" stroke-miterlimit="10" stroke-width="1"/>
      <rect id="Rectangle_6118" data-name="Rectangle 6118" width="9.366" height="2.554" transform="translate(4316.573 -1297.732)" fill="none" stroke="#fff" stroke-miterlimit="10" stroke-width="1"/>
      <rect id="Rectangle_6119" data-name="Rectangle 6119" width="5.96" height="2.554" transform="translate(4304.652 -1297.732)" fill="none" stroke="#fff" stroke-miterlimit="10" stroke-width="1"/>
      <path id="Path_18074" data-name="Path 18074" d="M4310.612-1297.732s.17,8.515-3.321,8.941,6.131,0,6.131,0" fill="none" stroke="#fff" stroke-miterlimit="10" stroke-width="1"/>
      <path id="Path_18075" data-name="Path 18075" d="M4309.864-1292.493a1.208,1.208,0,0,1,.193-.6c.01-.017.017-.036.027-.054.026-.08.048-.16.066-.242.008-.1.019-.2.02-.3a1.584,1.584,0,0,1,.169-.7,1.7,1.7,0,0,0-2.35-.509,1.7,1.7,0,0,0-.509,2.35,1.7,1.7,0,0,0,2.35.509l.024-.016A1.207,1.207,0,0,1,4309.864-1292.493Z" fill="none" stroke="#fff" stroke-miterlimit="10" stroke-width="1"/>
      <circle id="Ellipse_249" data-name="Ellipse 249" cx="1.703" cy="1.703" r="1.703" transform="translate(4319.979 -1295.177)" fill="none" stroke="#fff" stroke-miterlimit="10" stroke-width="1"/>
      <path id="Path_18076" data-name="Path 18076" d="M4319.426-1282.66c-1.587.014-9.48,1.282-8.856-1.36" fill="none" stroke="#fff" stroke-miterlimit="10" stroke-width="1"/>
      <path id="Path_18077" data-name="Path 18077" d="M4317.946-1279.255c-1.786,0-9.376-1.157-10.22.649" fill="none" stroke="#fff" stroke-miterlimit="10" stroke-width="1"/>
      <path id="Path_18078" data-name="Path 18078" d="M4327.073-1259.844c-2.155-3.984-4.138-8.067-6.233-12.084" fill="none" stroke="#fff" stroke-miterlimit="10" stroke-width="1"/>
      <path id="Path_18079" data-name="Path 18079" d="M4312.349-1268.787a105.532,105.532,0,0,1,3,10.946" fill="none" stroke="#fff" stroke-miterlimit="10" stroke-width="1"/>
      <path id="Path_18080" data-name="Path 18080" d="M4304.221-1310.249s-6.386,2.3,0,6.131c4.381,2.629,15.853,1.611,24.523,2.719,3.969.507,7.351,1.46,9.2,3.412" fill="none" stroke="#fff" stroke-miterlimit="10" stroke-width="1"/>
      <path id="Path_18081" data-name="Path 18081" d="M4341.322-1261.583c-13.741,2.454-26.413,4.69-39.829,7.671-2.236,5.218-2.236,10.435-3.726,15.652-4.472,12.671-12.272,21.138-11.846,35.9l62.159.852-.6-6.727" fill="none" stroke="#fff" stroke-miterlimit="10" stroke-width="1"/>
      <path id="Path_18082" data-name="Path 18082" d="M4340.622-1188.694" fill="none" stroke="#fff" stroke-miterlimit="10" stroke-width="1"/>
      <path id="Path_18083" data-name="Path 18083" d="M4334.091-1229.315c.94-11.18-2.787-28.323,9.884-33.541,3.727-1.49,8.2,2.236,8.944,5.963a168.058,168.058,0,0,1-.049,39.024" fill="none" stroke="#fff" stroke-miterlimit="10" stroke-width="1"/>
      <path id="Path_18084" data-name="Path 18084" d="M4344.979-1209.456c-9.233-1.534-31.244-19.23-31.244-19.23l2.256-5.7s21.6,4.364,31.352,10.175C4356.907-1218.52,4353.184-1208.093,4344.979-1209.456Z" fill="none" stroke="#fff" stroke-miterlimit="10" stroke-width="1"/>
      <path id="Path_18085" data-name="Path 18085" d="M4301.671-1253.88c-2.75.2-5.693,1.117-7.55,3.7-3.32,4.61-5.568,21.288-4.859,29.229" fill="none" stroke="#fff" stroke-miterlimit="10" stroke-width="1"/>
      <path id="Path_18086" data-name="Path 18086" d="M4317.213-1234.113c-1.534-1.032-3.311-2.3-3.325-2.309a10.663,10.663,0,0,1-1.054-2.614,8.249,8.249,0,0,1-.652-3.509c.095-.787.351-2.48-.09-2.595a1.05,1.05,0,0,0-1.06.442,4.322,4.322,0,0,0-.848,1.912c-.052.277-.124.647-.175,1.131v.036l-.017.179a12.614,12.614,0,0,0,.032,2.268,37.76,37.76,0,0,0-5.892-.683,1.325,1.325,0,0,0-1.066,1.385,1.262,1.262,0,0,0,.089.449h0a1.027,1.027,0,0,0,.227.348.979.979,0,0,0,.35.226,1.673,1.673,0,0,0-.6,2.214h0a3.154,3.154,0,0,0,.291.45l.009.011a2.134,2.134,0,0,0-.426,1.776.91.91,0,0,0,.385.619h0c-.544.324-.266,1.364.5,1.713a6.187,6.187,0,0,0,1.6.463h0c.31.054.6.1.869.146s.53.084.785.122a31.517,31.517,0,0,0,3.214.364,30.671,30.671,0,0,1,3.429.621" fill="none" stroke="#fff" stroke-miterlimit="10" stroke-width="1"/>
      <path id="Path_18087" data-name="Path 18087" d="M4319.006-1228.943" fill="none" stroke="#fff" stroke-miterlimit="10" stroke-width="1"/>
    </g>
    <g id="Group_12899" data-name="Group 12899">
      <line id="Line_339" data-name="Line 339" x1="19.725" y1="13.484" transform="translate(4266.253 -1266.665)" fill="none" stroke="#fff" stroke-miterlimit="10" stroke-width="1"/>
      <line id="Line_340" data-name="Line 340" x1="21.911" y1="5.313" transform="translate(4261.651 -1249.826)" fill="none" stroke="#fff" stroke-miterlimit="10" stroke-width="1"/>
      <line id="Line_341" data-name="Line 341" x1="16.194" y1="20.735" transform="translate(4273.556 -1281.945)" fill="none" stroke="#fff" stroke-miterlimit="10" stroke-width="1"/>
    </g>
  </g>
</svg>
