<svg xmlns="http://www.w3.org/2000/svg" width="139.635" height="106.546" viewBox="0 0 139.635 106.546">
  <g id="just-a-few-clicks" transform="translate(-5718.535 1096.638)">
    <line id="Line_275" data-name="Line 275" x1="11.077" y2="17.125" transform="translate(5817.907 -1089.919)" fill="none" stroke="#fff" stroke-miterlimit="10" stroke-width="1"/>
    <line id="Line_276" data-name="Line 276" x1="1.859" y2="20.31" transform="translate(5805.732 -1096.592)" fill="none" stroke="#fff" stroke-miterlimit="10" stroke-width="1"/>
    <line id="Line_277" data-name="Line 277" x1="13.786" y2="15.031" transform="translate(5830.675 -1078.82)" fill="none" stroke="#fff" stroke-miterlimit="10" stroke-width="1"/>
    <line id="Line_278" data-name="Line 278" x1="16.106" y2="12.512" transform="translate(5841.757 -1065.289)" fill="none" stroke="#fff" stroke-miterlimit="10" stroke-width="1"/>
    <path id="Path_17906" data-name="Path 17906" d="M5804.085-990.593a30.178,30.178,0,0,0,30.167-30.165v-12.11a30.178,30.178,0,0,0-30.165-30.165H5749.2a30.179,30.179,0,0,0-30.165,30.165v12.11a30.179,30.179,0,0,0,30.165,30.166Z" fill="none" stroke="#fff" stroke-miterlimit="10" stroke-width="1"/>
    <path id="Path_17907" data-name="Path 17907" d="M5814.053-1020.741a6.05,6.05,0,0,0,6.047-6.053,6.05,6.05,0,0,0-6.047-6.047h-15.89a6.05,6.05,0,0,0-6.053,6.047,6.05,6.05,0,0,0,6.047,6.053h15.9Z" fill="none" stroke="#fff" stroke-miterlimit="10" stroke-width="1"/>
    <path id="Path_17908" data-name="Path 17908" d="M5820.421-1026.011c.007.263,0,.529-.019.8h13.848v-3.161h-14.119A12.392,12.392,0,0,1,5820.421-1026.011Z" fill="none" stroke="#fff" stroke-miterlimit="10" stroke-width="1"/>
    <path id="Path_17909" data-name="Path 17909" d="M5787.357-1026.633a8.951,8.951,0,0,1-.119,1.417h5.1c0-.032-.008-.063-.011-.1a6.325,6.325,0,0,1-.14-3.057h-5A8.878,8.878,0,0,1,5787.357-1026.633Z" fill="none" stroke="#fff" stroke-miterlimit="10" stroke-width="1"/>
    <path id="Path_17910" data-name="Path 17910" d="M5784.544-990.593h2.949v-72.44h-2.953v72.44Z" fill="none" stroke="#fff" stroke-miterlimit="10" stroke-width="1"/>
    <path id="Path_17911" data-name="Path 17911" d="M5813.356-1022.228a4.563,4.563,0,0,0,4.564-4.564,4.563,4.563,0,0,0-4.564-4.563H5798.84a4.563,4.563,0,0,0-4.563,4.563,4.563,4.563,0,0,0,4.563,4.564h14.516Z" fill="none" stroke="#fff" stroke-miterlimit="10" stroke-width="1"/>
    <path id="Path_17912" data-name="Path 17912" d="M5846.608-1031.684a42.72,42.72,0,0,1,.254,7.512" fill="none" stroke="#fff" stroke-miterlimit="10" stroke-width="1"/>
    <path id="Path_17913" data-name="Path 17913" d="M5844.123-1025.223a9.481,9.481,0,0,0-.205-3.963" fill="none" stroke="#fff" stroke-miterlimit="10" stroke-width="1"/>
    <path id="Path_17914" data-name="Path 17914" d="M5841.407-1028.435a16.4,16.4,0,0,1,.047,2.884" fill="none" stroke="#fff" stroke-miterlimit="10" stroke-width="1"/>
  </g>
</svg>
