<svg xmlns="http://www.w3.org/2000/svg" width="119.215" height="121.964" viewBox="0 0 119.215 121.964">
  <g id="mind-boggling" transform="translate(-76.092 -22.788)">
    <path id="Path_18058" data-name="Path 18058" d="M136.859,122.384a20.174,20.174,0,0,0,1.738-3.444" transform="translate(-11.574 -18.37)" fill="none" stroke="#fff" stroke-miterlimit="10" stroke-width="1"/>
    <path id="Path_18059" data-name="Path 18059" d="M182.383,101.762c1.4,2.643,5.562,8.054,2.577,10.872-.93.877-2.1.413-3.042,1.03-1.328.87-.3,2.247.057,3.327.864,2.623-4.478,4.38-3.735,4.231-1.286.692-.743.149,0,0,1.157.9,2.243,2.533,1.7,4.162-.543,1.086-2.172,0-2.715,1.629-.543,2.173-1.086,4.344-2.173,5.43-3.8,3.258-8.145-1.086-11.946-2.715a8.055,8.055,0,0,0-7.059,0c-1.63,1.086-2.716,3.8-2.173,5.43,1.086,3.8,3.258,7.059,5.43,10.86a57.3,57.3,0,0,1,5.13,12.844c-.178-.446-.335-.9-.486-1.357.168.45.327.9.486,1.357-8.707.082-17.415.023-26.123-.023H107.824l21.117-35.786" transform="translate(-5.998 -15.071)" fill="none" stroke="#fff" stroke-miterlimit="10" stroke-width="1"/>
    <path id="Path_18060" data-name="Path 18060" d="M135.151,29.313a38.554,38.554,0,0,0-29.377,17.675c-.5-10.873-12.839-17.518-22.188-11.9a14.662,14.662,0,1,0,17.272,23.54,38.322,38.322,0,0,0,22.255,44.095" transform="translate(0 -1.157)" fill="none" stroke="#fff" stroke-miterlimit="10" stroke-width="1"/>
    <path id="Path_18061" data-name="Path 18061" d="M135.361,103.631c-2.469,4.252-.3,9.683,2.961,12.94a52.746,52.746,0,0,0,25.72,12.648" transform="translate(-11.082 -15.43)" fill="none" stroke="#fff" stroke-miterlimit="10" stroke-width="1"/>
    <path id="Path_18062" data-name="Path 18062" d="M138.879,79.462c-1.11-2.445-3.045-5.022-6.04-4.595a7.19,7.19,0,0,0-5.41,4.76,18.246,18.246,0,0,0,1.13,13.351,10.749,10.749,0,0,0,5.334,5.121" transform="translate(-9.614 -9.897)" fill="none" stroke="#fff" stroke-miterlimit="10" stroke-width="1"/>
    <path id="Path_18063" data-name="Path 18063" d="M127.826,140.752s19.387,5.81,23.459,17.594,3.91,7.819,3.91,7.819H114.142l9.775-17.594" transform="translate(-7.211 -22.559)" fill="none" stroke="#fff" stroke-miterlimit="10" stroke-width="1"/>
    <path id="Path_18064" data-name="Path 18064" d="M102.2,58.213s-21.558,9.829-19.549-5.865,9.775-15.64,9.775-15.64" transform="translate(-1.139 -2.577)" fill="none" stroke="#fff" stroke-miterlimit="10" stroke-width="1"/>
    <path id="Path_18065" data-name="Path 18065" d="M103.942,57.652S88.249,57.49,92.213,43.968" transform="translate(-2.877 -3.972)" fill="none" stroke="#fff" stroke-miterlimit="10" stroke-width="1"/>
    <path id="Path_18066" data-name="Path 18066" d="M129.317,105.211s-15.694-9.83-17.594-27.369" transform="translate(-6.747 -10.477)" fill="none" stroke="#fff" stroke-miterlimit="10" stroke-width="1"/>
    <path id="Path_18067" data-name="Path 18067" d="M122.425,87.152s-6.027-8.091-5.864-11.729" transform="translate(-7.675 -10.012)" fill="none" stroke="#fff" stroke-miterlimit="10" stroke-width="1"/>
    <path id="Path_18068" data-name="Path 18068" d="M106.626,60.049s.154-3.953,6.073-7.7,13.738-15.585,21.5-15.64" transform="translate(-5.768 -2.577)" fill="none" stroke="#fff" stroke-miterlimit="10" stroke-width="1"/>
    <path id="Path_18069" data-name="Path 18069" d="M118.794,51.157c4.06-2.342,9.014-4.965,13.835-4.772" transform="translate(-8.105 -4.434)" fill="none" stroke="#fff" stroke-miterlimit="10" stroke-width="1"/>
    <line id="Line_338" data-name="Line 338" y1="5.865" transform="translate(104.976 45.861)" fill="none" stroke="#fff" stroke-miterlimit="10" stroke-width="1"/>
    <path id="Path_18070" data-name="Path 18070" d="M171.332,55.89s.13-.032.141-.038a.825.825,0,0,0,.112-.109.689.689,0,0,0,.057-.165.716.716,0,0,0-.018-.2.791.791,0,0,0-.1-.2.917.917,0,0,0-.19-.172,1.021,1.021,0,0,0-.267-.111,1.15,1.15,0,0,0-.321-.024,1.3,1.3,0,0,0-.347.082,1.426,1.426,0,0,0-.337.2,1.552,1.552,0,0,0-.288.316,1.7,1.7,0,0,0-.2.419,1.813,1.813,0,0,0-.082.494,1.976,1.976,0,0,0,.063.534,2.129,2.129,0,0,0,.223.529,2.264,2.264,0,0,0,.383.477,2.4,2.4,0,0,0,.528.377,2.584,2.584,0,0,0,.646.232,2.7,2.7,0,0,0,.722.052,2.878,2.878,0,0,0,.747-.151,3.024,3.024,0,0,0,.712-.364,3.128,3.128,0,0,0,.617-.565,3.306,3.306,0,0,0,.465-.741,3.434,3.434,0,0,0,.262-.874,3.587,3.587,0,0,0,.022-.95,3.767,3.767,0,0,0-.239-.959,3.909,3.909,0,0,0-.5-.894,4.04,4.04,0,0,0-.747-.757,4.187,4.187,0,0,0-.953-.553,4.345,4.345,0,0,0-1.1-.292,4.467,4.467,0,0,0-1.179.008,4.645,4.645,0,0,0-1.171.327,4.775,4.775,0,0,0-1.077.643,4.952,4.952,0,0,0-.9.93,5.086,5.086,0,0,0-.64,1.167,5.205,5.205,0,0,0-.322,1.33,5.334,5.334,0,0,0,.039,1.406,5.507,5.507,0,0,0,.415,1.384,5.673,5.673,0,0,0,.783,1.26,5.806,5.806,0,0,0,1.113,1.037,5.929,5.929,0,0,0,1.378.729,6.086,6.086,0,0,0,1.559.352,6.241,6.241,0,0,0,1.634-.069,6.387,6.387,0,0,0,1.6-.5A6.559,6.559,0,0,0,176,60.562a6.665,6.665,0,0,0,1.177-1.3A6.821,6.821,0,0,0,178,57.676a6.966,6.966,0,0,0,.382-1.786,7.119,7.119,0,0,0-.1-1.862,7.276,7.276,0,0,0-.591-1.809,7.412,7.412,0,0,0-1.063-1.624,7.542,7.542,0,0,0-1.477-1.317,7.712,7.712,0,0,0-1.8-.9,7.872,7.872,0,0,0-2.014-.412,7.987,7.987,0,0,0-2.09.128,8.142,8.142,0,0,0-2.021.679,8.3,8.3,0,0,0-1.807,1.2,8.449,8.449,0,0,0-1.458,1.66,8.59,8.59,0,0,0-.992,2.017,8.738,8.738,0,0,0-.443,2.242,8.892,8.892,0,0,0,.158,2.318,9.045,9.045,0,0,0,.768,2.234,9.167,9.167,0,0,0,1.343,1.989,9.33,9.33,0,0,0,1.842,1.6,9.492,9.492,0,0,0,2.228,1.08,9.608,9.608,0,0,0,2.471.472,9.729,9.729,0,0,0,2.546-.188,9.918,9.918,0,0,0,2.446-.856,10.074,10.074,0,0,0,2.172-1.483,10.255,10.255,0,0,0,2.905-4.466,10.508,10.508,0,0,0,.5-2.7,10.639,10.639,0,0,0-.219-2.775,10.756,10.756,0,0,0-.944-2.658,10.911,10.911,0,0,0-1.622-2.354,11.114,11.114,0,0,0-2.207-1.878,11.229,11.229,0,0,0-2.654-1.256,11.413,11.413,0,0,0-2.926-.532,11.594,11.594,0,0,0-5.874,1.281,11.787,11.787,0,0,0-2.536,1.763,11.969,11.969,0,0,0-2.017,2.39A12.159,12.159,0,0,0,159,55.89a12.456,12.456,0,0,0,1.4,6.313,12.672,12.672,0,0,0,1.9,2.72,12.868,12.868,0,0,0,2.572,2.157,13.059,13.059,0,0,0,6.461,2.025,13.347,13.347,0,0,0,6.754-1.517,13.566,13.566,0,0,0,2.9-2.043,13.8,13.8,0,0,0,3.818-6.046,14,14,0,0,0,.622-3.61,14.237,14.237,0,0,0-1.634-7.195,14.528,14.528,0,0,0-5.121-5.522,14.751,14.751,0,0,0-3.5-1.609,14.9,14.9,0,0,0-3.838-.652,15.122,15.122,0,0,0-7.636,1.752,15.419,15.419,0,0,0-5.844,5.443,15.7,15.7,0,0,0-2.379,7.782,15.985,15.985,0,0,0,1.87,8.075,16.281,16.281,0,0,0,5.765,6.166,16.514,16.514,0,0,0,3.928,1.785,16.719,16.719,0,0,0,8.665.284,17.02,17.02,0,0,0,7.777-4.163,17.324,17.324,0,0,0,4.73-7.625,17.6,17.6,0,0,0,.284-9.121,17.9,17.9,0,0,0-4.39-8.172,18.2,18.2,0,0,0-8.021-4.958,18.486,18.486,0,0,0-9.577-.284,18.681,18.681,0,0,0-4.571,1.735,18.922,18.922,0,0,0-7.134,6.733,19.225,19.225,0,0,0-2.851,9.544,19.513,19.513,0,0,0,2.343,9.838,19.812,19.812,0,0,0,7.055,7.457,20.114,20.114,0,0,0,9.985,2.968,20.4,20.4,0,0,0,10.278-2.46,20.7,20.7,0,0,0,7.779-7.377,21,21,0,0,0,3.087-10.425A21.293,21.293,0,0,0,189.9,45.171a21.575,21.575,0,0,0-7.7-8.1,21.884,21.884,0,0,0-10.865-3.205,22.172,22.172,0,0,0-11.159,2.7,22.449,22.449,0,0,0-8.424,8.022,22.74,22.74,0,0,0-3.323,11.306,23.039,23.039,0,0,0,2.814,11.6,23.348,23.348,0,0,0,8.345,8.746,23.641,23.641,0,0,0,11.747,3.441,23.929,23.929,0,0,0,12.04-2.933,24.228,24.228,0,0,0,9.068-8.667A24.52,24.52,0,0,0,196,55.89a24.814,24.814,0,0,0-3.051-12.481,25.1,25.1,0,0,0-8.989-9.391,25.4,25.4,0,0,0-12.627-3.677,25.687,25.687,0,0,0-12.922,3.169,25.975,25.975,0,0,0-9.713,9.312,26.267,26.267,0,0,0-3.8,13.069,26.664,26.664,0,0,0,7.43,19,27.006,27.006,0,0,0,11.97,7.238,27.288,27.288,0,0,0,14.137.284,27.586,27.586,0,0,0,12.517-6.9,27.994,27.994,0,0,0,8.569-19.624,28.425,28.425,0,0,0-7.946-20.246,28.873,28.873,0,0,0-20.246-8.827,29.224,29.224,0,0,0-14.684,3.641A29.61,29.61,0,0,0,142.54,48.175a30.045,30.045,0,0,0,2.6,22.839,30.487,30.487,0,0,0,18.252,14.518,30.827,30.827,0,0,0,15.961.284A31.225,31.225,0,0,0,198.545,71.6a31.654,31.654,0,0,0,3.564-23.958,32,32,0,0,0-8.039-14.491,32.391,32.391,0,0,0-22.737-9.859,32.83,32.83,0,0,0-23.361,9.236A33.269,33.269,0,0,0,137.854,55.89a33.713,33.713,0,0,0,9.494,23.984,34.161,34.161,0,0,0,23.984,10.375A34.606,34.606,0,0,0,195.939,80.5,35.042,35.042,0,0,0,206.572,55.89" transform="translate(-11.764 0)" fill="none" stroke="#fff" stroke-miterlimit="10" stroke-width="1"/>
  </g>
</svg>
