<svg xmlns="http://www.w3.org/2000/svg" width="103.546" height="110.171" viewBox="0 0 103.546 110.171">
  <g id="often" transform="translate(-92.522 -38.815)">
    <circle id="Ellipse_232" data-name="Ellipse 232" cx="9.138" cy="9.138" r="9.138" transform="translate(133.159 64.644)" fill="none" stroke="#fff" stroke-miterlimit="10" stroke-width="1"/>
    <path id="Path_17828" data-name="Path 17828" d="M140.7,148.486a76.8,76.8,0,0,0-14.054-16.84q-9.929-9.039-26.3-12.892v-11.84a2.52,2.52,0,0,1,2.817-2.5,70.937,70.937,0,0,1,34.592,13.709,64.261,64.261,0,0,1,21.8,30.365Z" fill="none" stroke="#fff" stroke-miterlimit="10" stroke-width="1"/>
    <path id="Path_17829" data-name="Path 17829" d="M100.345,143.342v-19.4q14.356,3.616,22.912,11.431a73.264,73.264,0,0,1,11.459,13.114H102.865a2.519,2.519,0,0,1-2.52-2.519v-2.625" fill="none" stroke="#fff" stroke-miterlimit="10" stroke-width="1"/>
    <path id="Path_17830" data-name="Path 17830" d="M115.608,139A57.4,57.4,0,0,0,92.824,124.17" fill="none" stroke="#fff" stroke-miterlimit="10" stroke-width="1"/>
    <path id="Path_17831" data-name="Path 17831" d="M92.623,108.255c17.987,3.695,36.453,14.466,45.7,30.331" fill="none" stroke="#fff" stroke-miterlimit="10" stroke-width="1"/>
    <path id="Path_17832" data-name="Path 17832" d="M97.169,131.42a52.329,52.329,0,0,1,15.552,11.9" fill="none" stroke="#fff" stroke-miterlimit="10" stroke-width="1"/>
    <path id="Path_17833" data-name="Path 17833" d="M161.066,130q-1.853,1.215-3.561,2.478a69.688,69.688,0,0,0-11.667-14.175l.246-.184q15.369-11.445,37.147-13.713a2.52,2.52,0,0,1,2.781,2.506v14.233Q170.535,123.814,161.066,130Z" fill="none" stroke="#fff" stroke-miterlimit="10" stroke-width="1"/>
    <path id="Path_17834" data-name="Path 17834" d="M186.012,143.342v2.625a2.519,2.519,0,0,1-2.519,2.519H164.866l-.531-1.593a66.562,66.562,0,0,0-4.3-10.015q1.8-1.357,3.793-2.661,8.264-5.418,22.183-7.953v17.078" fill="none" stroke="#fff" stroke-miterlimit="10" stroke-width="1"/>
    <path id="Path_17835" data-name="Path 17835" d="M169.494,120.282a76.862,76.862,0,0,1,21.468-6.7" fill="none" stroke="#fff" stroke-miterlimit="10" stroke-width="1"/>
    <path id="Path_17836" data-name="Path 17836" d="M192.706,132.112a50.493,50.493,0,0,0-13.131,4.855" fill="none" stroke="#fff" stroke-miterlimit="10" stroke-width="1"/>
    <path id="Path_17837" data-name="Path 17837" d="M178.806,141.116c5.4-2.892,11.073-5.528,17.194-6.378" fill="none" stroke="#fff" stroke-miterlimit="10" stroke-width="1"/>
    <g id="Group_12787" data-name="Group 12787">
      <line id="Line_241" data-name="Line 241" y1="13.85" x2="13.85" transform="translate(153.336 48.957)" fill="none" stroke="#fff" stroke-miterlimit="10" stroke-width="1"/>
      <line id="Line_242" data-name="Line 242" y1="9.215" x2="17.283" transform="translate(156.019 57.267)" fill="none" stroke="#fff" stroke-miterlimit="10" stroke-width="1"/>
      <line id="Line_243" data-name="Line 243" y1="3.781" x2="19.218" transform="translate(157.515 66.998)" fill="none" stroke="#fff" stroke-miterlimit="10" stroke-width="1"/>
      <line id="Line_244" data-name="Line 244" x2="19.486" y2="1.98" transform="translate(157.694 75.326)" fill="none" stroke="#fff" stroke-miterlimit="10" stroke-width="1"/>
      <line id="Line_245" data-name="Line 245" x2="18.064" y2="7.57" transform="translate(156.542 79.728)" fill="none" stroke="#fff" stroke-miterlimit="10" stroke-width="1"/>
      <line id="Line_246" data-name="Line 246" x2="15.076" y2="12.503" transform="translate(154.157 83.603)" fill="none" stroke="#fff" stroke-miterlimit="10" stroke-width="1"/>
      <line id="Line_247" data-name="Line 247" x2="10.78" y2="16.352" transform="translate(150.747 86.615)" fill="none" stroke="#fff" stroke-miterlimit="10" stroke-width="1"/>
      <line id="Line_248" data-name="Line 248" x2="5.55" y2="18.783" transform="translate(146.607 88.504)" fill="none" stroke="#fff" stroke-miterlimit="10" stroke-width="1"/>
      <line id="Line_249" data-name="Line 249" x1="0.162" y2="19.585" transform="translate(141.935 89.105)" fill="none" stroke="#fff" stroke-miterlimit="10" stroke-width="1"/>
      <line id="Line_250" data-name="Line 250" x1="5.86" y2="18.689" transform="translate(131.747 88.366)" fill="none" stroke="#fff" stroke-miterlimit="10" stroke-width="1"/>
      <line id="Line_251" data-name="Line 251" x1="11.049" y2="16.172" transform="translate(122.478 86.352)" fill="none" stroke="#fff" stroke-miterlimit="10" stroke-width="1"/>
      <line id="Line_252" data-name="Line 252" x1="15.281" y2="12.252" transform="translate(114.93 83.236)" fill="none" stroke="#fff" stroke-miterlimit="10" stroke-width="1"/>
      <line id="Line_253" data-name="Line 253" x1="18.187" y2="7.27" transform="translate(109.759 79.29)" fill="none" stroke="#fff" stroke-miterlimit="10" stroke-width="1"/>
      <line id="Line_254" data-name="Line 254" x1="19.516" y2="1.658" transform="translate(107.412 74.855)" fill="none" stroke="#fff" stroke-miterlimit="10" stroke-width="1"/>
      <line id="Line_255" data-name="Line 255" x1="19.153" y1="4.099" transform="translate(108.094 66.217)" fill="none" stroke="#fff" stroke-miterlimit="10" stroke-width="1"/>
      <line id="Line_256" data-name="Line 256" x1="17.128" y1="9.5" transform="translate(111.745 56.567)" fill="none" stroke="#fff" stroke-miterlimit="10" stroke-width="1"/>
      <line id="Line_257" data-name="Line 257" x1="13.619" y1="14.077" transform="translate(118.049 48.398)" fill="none" stroke="#fff" stroke-miterlimit="10" stroke-width="1"/>
      <line id="Line_258" data-name="Line 258" x1="8.928" y1="17.433" transform="translate(126.459 42.42)" fill="none" stroke="#fff" stroke-miterlimit="10" stroke-width="1"/>
      <line id="Line_259" data-name="Line 259" x1="3.463" y1="19.278" transform="translate(136.245 39.151)" fill="none" stroke="#fff" stroke-miterlimit="10" stroke-width="1"/>
      <line id="Line_260" data-name="Line 260" y1="19.45" x2="2.302" transform="translate(144.257 38.874)" fill="none" stroke="#fff" stroke-miterlimit="10" stroke-width="1"/>
      <line id="Line_261" data-name="Line 261" y1="17.936" x2="7.868" transform="translate(148.64 41.613)" fill="none" stroke="#fff" stroke-miterlimit="10" stroke-width="1"/>
    </g>
  </g>
</svg>
