<svg xmlns="http://www.w3.org/2000/svg" width="134.647" height="116.773" viewBox="0 0 134.647 116.773">
  <g id="prayer" transform="translate(-5316.029 1089.549)">
    <path id="Path_17955" data-name="Path 17955" d="M5357.955-1018.834a.586.586,0,0,0-.151.313,3.523,3.523,0,0,0,1.525,3.346,4.638,4.638,0,0,0,3.811.542,6.094,6.094,0,0,0,1.9-.917l.121-.188c.064-.114.133-.214.2-.337a6.926,6.926,0,0,0,.334-.7,5.552,5.552,0,0,0,.361-1.289,4.27,4.27,0,0,0,.036-1.023c-.015-.136-.034-.259-.055-.366-.145-.011-.291-.02-.44-.022-.516-.013-1.052.011-1.61.04l-1.692.086-3.9.2a.356.356,0,0,1-.019.106A.336.336,0,0,1,5357.955-1018.834Z" fill="none" stroke="#fff" stroke-miterlimit="10" stroke-width="1"/>
    <path id="Path_17956" data-name="Path 17956" d="M5397.722-974.757c8.107,1.043,28.687,4.383,31.476-11.555" fill="none" stroke="#fff" stroke-miterlimit="10" stroke-width="1"/>
    <path id="Path_17957" data-name="Path 17957" d="M5371.8-987.632l.828,1.317c.587.944,1.241,2.012,1.934,3.186.349.587.71,1.2,1.076,1.836s.747,1.293,1.13,1.973.78,1.376,1.175,2.092l.137.247c2.6.213,10.874,7.8,16.85.631" fill="none" stroke="#fff" stroke-miterlimit="10" stroke-width="1"/>
    <path id="Path_17958" data-name="Path 17958" d="M5392.943-981.495a2.237,2.237,0,0,1-1.77.35c-.208-.031-.157-.393.05-.367a4.373,4.373,0,0,0,1.591-.2C5392.932-981.742,5393.051-981.583,5392.943-981.495Z" fill="none" stroke="#fff" stroke-miterlimit="10" stroke-width="1"/>
    <path id="Path_17959" data-name="Path 17959" d="M5387.993-1054.954c.317.7.612,1.3.836,1.756l.506,1.041a.283.283,0,0,0,.121.382.406.406,0,0,0,.045.018l.06.089.072.106a1.131,1.131,0,0,1,.1.16l.113.216c.036.076.073.161.112.251a5.644,5.644,0,0,1,.211.618,7.477,7.477,0,0,1,.167.739c.043.262.089.535.119.815s.063.558.1.846.062.564.106.838.1.545.16.813l.2.81c.068.267.131.529.185.777l.013.06a4.9,4.9,0,0,0,.754-.325,15.281,15.281,0,0,0,1.477-.983c.059-.043.137.041.1.1a4.186,4.186,0,0,1-1.333,1.3,6.7,6.7,0,0,1-.873.48l.014.07c.084.4.142.736.183.988,1.426,1.13,2.776,2.359,4.251,3.428a9.9,9.9,0,0,0,2.218,1.289,4.956,4.956,0,0,0,2.7.172c.262-.038.457.307.192.456-1.4.787-3.242-.038-4.469-.8a38.786,38.786,0,0,1-4.274-3.334q-.3-.254-.614-.5a.332.332,0,0,1-.236.139.34.34,0,0,1-.346-.192s-.064-.135-.166-.376l-.087-.208c-1-.739-2.022-1.423-3.081-2.089.474.579.944,1.224,1.418,1.917.53.769,1.037,1.6,1.553,2.476a8.156,8.156,0,0,1,.688,1.507,4.771,4.771,0,0,1,.262,1.8,3.109,3.109,0,0,1-.744,1.852,3.715,3.715,0,0,1-1.632,1.047,7.766,7.766,0,0,1-1.714.351c-.562.058-1.08.087-1.63.1a9.23,9.23,0,0,1-1.677-.082,5.272,5.272,0,0,1-.847-.2c-.139-.042-.277-.1-.412-.153l-.2-.091-.182-.094a5.241,5.241,0,0,1-.711-.478c-.213-.168-.409-.344-.591-.519-.367-.35-.688-.7-1-1.006-.148-.138-.329-.32-.478-.45l-.232-.208-.241-.2c-.318-.265-.64-.5-.957-.723a14.68,14.68,0,0,0-1.816-1.065,15.308,15.308,0,0,0-1.5-.639l-.22-.076c.171.16.337.32.495.482.372.377.723.762,1.068,1.142s.693.748,1.045,1.1c.176.176.354.35.536.516s.367.329.558.5l1.157.972a10,10,0,0,1,2.052,2.264,8.107,8.107,0,0,1,.733,1.39,3.8,3.8,0,0,1,.278,1.6,2.878,2.878,0,0,1-.581,1.58l-.065.085-.033.042-.016.021a.273.273,0,0,1-.031.037l-.12.121a2.871,2.871,0,0,1-.328.277,3.3,3.3,0,0,1-.681.389,7.129,7.129,0,0,1-1.372.4l-.274.055v.007a.336.336,0,0,1-.329.268.313.313,0,0,1-.068-.007c-.131-.028-.261-.061-.391-.1a3.525,3.525,0,0,1,.822.79,4.031,4.031,0,0,1,.674,1.447,3.863,3.863,0,0,1,.083.459l.022.243c.006.083,0,.176,0,.266a4.168,4.168,0,0,1-.141,1.03,5.252,5.252,0,0,1-1.1,2.035,6.171,6.171,0,0,1-.913.872c-.088.065-.171.131-.265.2s-.2.136-.281.189l-.129.08-.065.04-.085.049c-.1.054-.194.112-.295.161a10.477,10.477,0,0,1-2.618.913c-.464.1-.935.189-1.415.263s-.965.137-1.47.187a13.224,13.224,0,0,1-3.2-.031c-.551-.081-1.076-.2-1.586-.3l-.1-.019.01.025a4.416,4.416,0,0,1,.223,1.291,5.773,5.773,0,0,1-.209,1.67,6.667,6.667,0,0,1-.315.9c-.059.151-.144.313-.222.472l-.112.206-.028.052-.014.026-.007.013v.007l-.013.022-.067.109a9.656,9.656,0,0,1-1.308,1.709,13.318,13.318,0,0,1-1.7,1.487,20.47,20.47,0,0,1-1.914,1.254c-.328.19-.659.373-.989.551l-.5.263-.488.249c-.659.334-1.309.648-1.956.935s-1.283.546-1.9.756" fill="none" stroke="#fff" stroke-miterlimit="10" stroke-width="1"/>
    <path id="Path_17960" data-name="Path 17960" d="M5429.2-986.311c-4.623-3.621-11.624-12.016-16-15.93a17.941,17.941,0,0,1-2.759-2.984c-.618-.877-.921-1.91-1.458-2.785a9.4,9.4,0,0,1-1.518-3.308c-.253-1.252-.394-2.537-.521-3.806-.56-5.569-.26-11.139-.4-16.719a10.671,10.671,0,0,0-.334-3.71,14.666,14.666,0,0,0-1.733-2.143,56,56,0,0,1-4.618-6.907c-1.417-2.566-2.4-5.81-4.809-7.663-2.021-1.556-4.83-1.455-7.053-2.687" fill="none" stroke="#fff" stroke-miterlimit="10" stroke-width="1"/>
    <path id="Path_17961" data-name="Path 17961" d="M5354.2-1005.711c.291.474,1.088.474,1.486.872,4.382,4.781,7.968,9.164,12.351,13.945a17.394,17.394,0,0,0,7.571,4.781c5.18,1.992,10.359,4.383,15.937,3.187-.687.7-1.672.458-2.492.855a2.321,2.321,0,0,0,.563.25,1.722,1.722,0,0,0-.563-.25c2.841,2.731,5.653,5.506,8.743,7.958" fill="none" stroke="#fff" stroke-miterlimit="10" stroke-width="1"/>
    <path id="Path_17962" data-name="Path 17962" d="M5354.811-1005.909c-.2.071-.406.136-.608.2" fill="none" stroke="#fff" stroke-miterlimit="10" stroke-width="1"/>
    <path id="Path_17963" data-name="Path 17963" d="M5370.464-1028.421c-.129-.094-.251-.19-.367-.289l-.51-.151c-.19-.061-.406-.107-.631-.163s-.465-.121-.723-.169a27.7,27.7,0,0,0-3.74-.519,43.726,43.726,0,0,0-4.923-.061c-.9.028-1.848.087-2.824.149l-3.031.214-3.205.229-1.657.118c-.557.04-1.1.08-1.63.17a6.107,6.107,0,0,0-.767.178c-.123.039-.245.079-.363.128l-.044.017-.019.007h-.007l-.1.046-.194.091a4.263,4.263,0,0,0-.621.406c-.1.073-.195.167-.294.25a2.085,2.085,0,0,0-.268.28,4.68,4.68,0,0,0-.468.627,4.671,4.671,0,0,0-.352.7c-.054.12-.088.247-.132.371a2.148,2.148,0,0,0-.094.381l-.037.193-.023.194-.012.1v.09l-.011.224c.007.128,0,.239.015.376l.016.2.03.2c.016.132.052.261.079.391a2.535,2.535,0,0,0,.115.385,5.054,5.054,0,0,0,.755,1.42,4.741,4.741,0,0,0,.539.6c.094.1.2.177.3.265l.343.25a1.518,1.518,0,0,0,.172.11l.165.1a3.837,3.837,0,0,0,.357.188,3.67,3.67,0,0,0,.378.168l.192.079.2.066a8.86,8.86,0,0,0,1.656.371,15.347,15.347,0,0,0,1.74.11c1.172.015,2.368-.073,3.566-.136l7.014-.386,1.691-.093c.558-.031,1.13-.061,1.711-.048a10.037,10.037,0,0,1,1.72.188c.543.1,1.051.214,1.534.283a11.9,11.9,0,0,0,2.872.012c.473-.047.94-.113,1.4-.181s.9-.143,1.33-.234a11.141,11.141,0,0,0,1.771-.522" fill="none" stroke="#fff" stroke-miterlimit="10" stroke-width="1"/>
    <path id="Path_17964" data-name="Path 17964" d="M5385.243-1044.01h-.008a1.911,1.911,0,0,0-1.052.428,5.614,5.614,0,0,0-2.126,2.954,3.011,3.011,0,0,0,.1,2.269,4.135,4.135,0,0,0,.6.745c.1.112.209.223.309.34.154.178.3.37.44.555a6.856,6.856,0,0,0,.684.808,9.168,9.168,0,0,0,1.074,0,11.741,11.741,0,0,0,2.941-.414,2.33,2.33,0,0,0,1.029-.651,1.761,1.761,0,0,0,.417-1.037,3.38,3.38,0,0,0-.184-1.273,7.708,7.708,0,0,0-.55-1.27c-.361-.659-.732-1.295-1.1-1.9a5.189,5.189,0,0,1-1.092-.762A2.55,2.55,0,0,0,5385.243-1044.01Z" fill="none" stroke="#fff" stroke-miterlimit="10" stroke-width="1"/>
    <path id="Path_17965" data-name="Path 17965" d="M5376.9-1036.4a1.22,1.22,0,0,0-1.447-.026,4.272,4.272,0,0,0-1.2,1.408,4.636,4.636,0,0,0-.687,1.429c-.2.918.2,1.959,1.208,3.182a7.4,7.4,0,0,0,2.931,2.334c.039-.005.079-.01.109-.016l.153-.027a5.373,5.373,0,0,0,.6-.148,3.784,3.784,0,0,0,1.084-.54,2.953,2.953,0,0,0,.426-.374c.072-.07.1-.121.163-.192l.1-.135c.02-.022-.01.01,0,0l.018-.01.017-.028.034-.055a3.083,3.083,0,0,0,.4-.979,4.422,4.422,0,0,0,.117-1.207,3.212,3.212,0,0,0-.321-1.28c-.025-.049-.045-.1-.075-.148l-.1-.156-.048-.078-.045-.062-.1-.142c-.141-.186-.289-.367-.449-.543a12.94,12.94,0,0,0-1.03-1.012c-.441-.394-.911-.781-1.376-1.19a.336.336,0,0,1-.475,0Z" fill="none" stroke="#fff" stroke-miterlimit="10" stroke-width="1"/>
    <path id="Path_17966" data-name="Path 17966" d="M5386.859-1043.976c-.266-.4-.531-.78-.79-1.135-.463-.63-.92-1.178-1.34-1.651l-.31-.338c-.1-.107-.2-.205-.3-.3-.189-.2-.376-.364-.541-.519l-.086-.08a.321.321,0,0,1-.106.017.337.337,0,0,1-.27-.134,7.421,7.421,0,0,0-2.072-1.763c-.224-.146-.457-.3-.678-.454a71.6,71.6,0,0,0-6.737-4.235c-2.07-1.144-4.294-2.163-6.513-1.88a7.786,7.786,0,0,0-4.63,2.653c-.082.1-.157.175-.214.238a17.131,17.131,0,0,0-1.536,2.022q.324.341.624.678c.335.373.648.739.948,1.094l.849,1.034.777.94q.369.45.7.837c.449.516.849.956,1.188,1.308l.279.28q.316.146.633.3c.931.44,1.86.9,2.778,1.393s1.847,1,2.74,1.582q.409.272.807.566a.336.336,0,0,1,.172-.017l.388.067c.252.046.621.121,1.085.245a14.231,14.231,0,0,1,3.653,1.584c.352.218.713.458,1.071.728l.271.2.273.222c.194.154.337.288.529.457.351.322.682.654,1.023.956a6.3,6.3,0,0,0,.519.425,4.075,4.075,0,0,0,.532.334l.153.075.144.061c.085.032.171.064.26.091l-.167-.217" fill="none" stroke="#fff" stroke-miterlimit="10" stroke-width="1"/>
    <path id="Path_17967" data-name="Path 17967" d="M5372.848-1027.364a6.838,6.838,0,0,1-1.678-.618,1.437,1.437,0,0,0-.9.649,4.247,4.247,0,0,0-.441,1.89l-.1,1.223a2.618,2.618,0,0,0,.025.855c.139.505.625.913,1.531,1.283a15.1,15.1,0,0,0,2.8.837,3,3,0,0,0,2.663-.36.332.332,0,0,1,.322-.072c.091-.084.178-.169.261-.257a4.268,4.268,0,0,0,.938-1.54,3.059,3.059,0,0,0,.157-.783c0-.057.009-.109.008-.169v-.181c0-.06-.012-.118-.016-.177a1.373,1.373,0,0,0-.022-.173,3.112,3.112,0,0,0-.423-1.15,2.643,2.643,0,0,0-.588-.685,2.38,2.38,0,0,0-.471-.3l-.177-.078-.04-.018a.376.376,0,0,1-.066-.04,14.23,14.23,0,0,1-1.46.093A9.64,9.64,0,0,1,5372.848-1027.364Z" fill="none" stroke="#fff" stroke-miterlimit="10" stroke-width="1"/>
    <path id="Path_17968" data-name="Path 17968" d="M5357.142-1018.8l-2.032.1-.155.008-.917.5-1.414.755-1.842.965c-.673.355-1.41.726-2.186,1.124s-1.6.816-2.448,1.238l-2.625,1.309a10.641,10.641,0,0,0-2.407,1.389l-.054.052-.011.01-.011.012-.127.142-.126.14c-.021.034-.042.068-.064.1l-.067.1c-.023.035-.045.083-.068.124a2,2,0,0,0-.13.259,3.231,3.231,0,0,0-.274,1.148,3.365,3.365,0,0,0,.63,2.163c.059.066.117.133.174.2s.127.117.187.178a2.824,2.824,0,0,0,.443.333c.327.209.714.411,1.1.619.765.419,1.487.819,2.145,1.2s1.247.73,1.774,1.019.987.529,1.378.7.7.3.916.383l.333.121h0a.337.337,0,0,1,.179.153c.159.031.358.075.588.136a11.655,11.655,0,0,1,1.138.364,13.652,13.652,0,0,1,1.409.627,14.624,14.624,0,0,1,1.57.927,16.73,16.73,0,0,1,1.609,1.238c.523.453,1.011.929,1.512,1.353l.187.158.093.079.011.01h.006c-.01-.008.032.026-.022-.017l.025.021.052.041.419.333c.145.121.266.2.394.295l.385.277c.277.183.545.379.833.547l.424.263.432.251c.284.172.585.315.87.48.295.148.582.3.875.441s.575.286.863.415c.143.067.284.133.423.2l.418.188c.55.246,1.078.476,1.568.687l.118.051c-.783-.9-1.525-1.8-2.233-2.679-.861-1.076-1.663-2.13-2.435-3.114s-1.5-1.909-2.192-2.747-1.346-1.582-1.935-2.235-1.132-1.194-1.582-1.636-.807-.772-1.069-1c-.5.456-1.031.879-1.555,1.309a7.713,7.713,0,0,1-1.587,1.2c-.154.067-.394-.091-.265-.265a8.048,8.048,0,0,1,1.6-1.358c.5-.39,1-.785,1.513-1.15l-.033-.03c-.109.028-.216.057-.32.082-.539.132-1.013.254-1.416.39a5.391,5.391,0,0,0-.99.419l-.18.1-.151.1c-.093.063-.157.118-.219.162l-.2.178a.336.336,0,0,1-.476-.018.337.337,0,0,1-.016-.44l.164-.21c.067-.07.153-.168.255-.263l.165-.151.2-.157a6.222,6.222,0,0,1,1.081-.639c.432-.2.926-.385,1.447-.576l.394-.143.4-.151c.27-.106.54-.217.824-.343.562-.25,1.15-.532,1.751-.846s1.223-.654,1.848-1l.944-.535q.468-.271.926-.554c.612-.374,1.2-.772,1.753-1.187a14.107,14.107,0,0,0,1.51-1.313c.076-.076.147-.152.22-.229" fill="none" stroke="#fff" stroke-miterlimit="10" stroke-width="1"/>
    <path id="Path_17969" data-name="Path 17969" d="M5381.412-1050.445a11.411,11.411,0,0,1,1.459,1.069l.31.187a10.374,10.374,0,0,1,.926.626,14.1,14.1,0,0,1,1.32,1.12c.147.139.3.289.448.444,1.307.851,2.665,1.635,3.946,2.519v-.009a.2.2,0,0,1-.083-.229c-.031-.088-.062-.178-.094-.271q-.127-.361-.254-.759c-.085-.266-.174-.546-.25-.841-.039-.147-.073-.3-.106-.451l-.045-.229-.036-.237c-.044-.311-.074-.618-.1-.914s-.03-.585-.045-.858-.022-.533-.04-.776-.035-.469-.062-.675-.056-.391-.09-.553c-.02-.081-.037-.156-.051-.227l-.048-.181c-.024-.1-.069-.214-.088-.277l-.035-.1a.24.24,0,0,0-.075-.331.217.217,0,0,0-.07-.03l-.173-.25c-.112-.163-.283-.4-.486-.71s-.456-.684-.726-1.13-.573-.953-.867-1.531a15.238,15.238,0,0,1-.849-1.941c-.069-.187-.124-.36-.181-.536-.064-.2-.113-.376-.167-.564-.107-.371-.2-.742-.31-1.1a4.808,4.808,0,0,0-.913-1.866c-.052-.057-.109-.115-.163-.163l-.035-.031-.018-.016-.03-.024-.061-.049-.009-.007h-.005l-.023-.016a2.435,2.435,0,0,0-.408-.238,4.033,4.033,0,0,0-1.008-.292,3.255,3.255,0,0,0-1.973.124,2.54,2.54,0,0,0-.722.591,7.1,7.1,0,0,0-.65.879c-.107.157-.206.316-.3.474s-.191.316-.28.473-.178.313-.261.468-.162.31-.236.465a12.157,12.157,0,0,0-.687,1.794,10.266,10.266,0,0,0-.322,1.6c-.037.241-.04.471-.062.683s-.015.409-.021.585.006.331,0,.468.012.263.016.361l.009.162c1.51.911,2.99,1.879,4.423,2.893Z" fill="none" stroke="#fff" stroke-miterlimit="10" stroke-width="1"/>
    <path id="Path_17970" data-name="Path 17970" d="M5359.789-1031.747c-5.7-.584-9.679-4.967-14.461-7.357a4.046,4.046,0,0,0-5.113,2.566c-.024.073-.047.148-.067.223a9.092,9.092,0,0,0,2.758,8.073" fill="none" stroke="#fff" stroke-miterlimit="10" stroke-width="1"/>
    <path id="Path_17971" data-name="Path 17971" d="M5376.2-1037.275c-.355-.331-.7-.671-1.042-1.008-.368-.358-.733-.713-1.108-1.048-.187-.169-.379-.331-.565-.485l-.151-.121-.076-.061-.069-.052c-.1-.075-.2-.149-.3-.22a14.452,14.452,0,0,0-1.261-.8c-.871-.5-1.788-.932-2.725-1.353s-1.866-.828-2.8-1.213-1.863-.758-2.788-1.107q-.694-.264-1.382-.51l-1.367-.491c-1.816-.63-3.581-1.184-5.278-1.672a11.406,11.406,0,0,0-2.336-.511,3.924,3.924,0,0,0-.508,0,1.034,1.034,0,0,0-.109.01.988.988,0,0,0-.12.016l-.076.013-.037.007h-.025l-.1.025a3.4,3.4,0,0,0-.882.358,11.055,11.055,0,0,0-2.761,2.783c-.771.978-1.415,1.848-1.9,2.589a18.106,18.106,0,0,0-1.048,1.757l-.137.272-.022.049c.484.085.761.141.761.141a.338.338,0,0,1,.26.249,4.126,4.126,0,0,1,.773.255,7.826,7.826,0,0,1,1.175.642c.4.259.813.549,1.236.834.217.146.417.274.659.424s.459.28.7.422c.485.282.993.567,1.516.851l1.6.863.808.443.39.211c.114.056.228.114.357.17a15.772,15.772,0,0,0,1.578.582c.538.175,1.078.344,1.592.538.259.1.5.2.75.313.2.1.386.193.567.3q.3-.448.629-.879l-.306-.084c-.238-.066-.471-.148-.708-.223s-.466-.163-.7-.245-.459-.17-.684-.261c-.453-.173-.886-.368-1.306-.555s-.819-.379-1.193-.566-.726-.371-1.05-.539c-.645-.341-1.178-.627-1.548-.836l-.581-.327a.335.335,0,0,1-.147-.452.336.336,0,0,1,.452-.148h0l2.193,1c.331.145.687.305,1.066.464l.582.249.611.25c.417.162.846.331,1.287.486.22.08.442.159.666.229s.448.151.676.212.453.134.679.193l.678.172.274.058a.494.494,0,0,1,.055.012l.341.071c.221.046.442.074.658.111s.43.057.638.083.413.051.606.058l.57.034h1.08a4.9,4.9,0,0,1,.519.018,2.041,2.041,0,0,1,.923.254,1.809,1.809,0,0,1,.175.124,1.746,1.746,0,0,1,.139.138c.035.043.064.085.091.123a.348.348,0,0,1,.13.041s.06.035.175.109a4.3,4.3,0,0,1,.472.364,6.931,6.931,0,0,1,.66.676c.237.28.486.61.744.977s.526.771.843,1.163c.08.1.164.2.242.286.043.046.075.089.126.141l.154.157.039.039.007.008.018.016.075.066.151.134a1.5,1.5,0,0,0,.16.13l.168.127a6.986,6.986,0,0,0,3.712,1.236,10.766,10.766,0,0,0,1.449-.019" fill="none" stroke="#fff" stroke-miterlimit="10" stroke-width="1"/>
    <path id="Path_17972" data-name="Path 17972" d="M5342.292-1023.651v-.023l-.429.035c-.455.04-1.089.1-1.823.232-.183.034-.373.069-.567.114-.1.021-.2.042-.3.067s-.192.049-.26.07a.525.525,0,0,0-.13.058l-.008.005c-.012.007-.029.019-.021.015h0l-.008.007a.584.584,0,0,0-.047.046,1.132,1.132,0,0,0-.12.17c-.019.033-.047.085-.061.113-.027.055-.058.118-.073.153a6.558,6.558,0,0,0-.394,1.311l-.154.774c-.051.262-.1.522-.146.781-.1.517-.167,1.028-.214,1.523a7.994,7.994,0,0,0-.013,1.434c.024.224.051.456.092.657l.037.178.037.142c.021.091.057.192.088.289a4.836,4.836,0,0,0,.507,1.04,3.9,3.9,0,0,0,.633.739,3,3,0,0,0,.608.433,1.812,1.812,0,0,0,.25.122l.1.045.089.029.164.055.04.013c.012,0,.022.01.034.016.072-.037.144-.075.215-.11.488-.243.941-.438,1.4-.648l2.68-1.19c.869-.388,1.712-.755,2.513-1.1s1.557-.677,2.259-.97l1.916-.806.609-.25" fill="none" stroke="#fff" stroke-miterlimit="10" stroke-width="1"/>
    <path id="Path_17973" data-name="Path 17973" d="M5354.091-1053.891c-.085-.021-.017,0-.034-.007h.007Z" fill="none" stroke="#fff" stroke-miterlimit="10" stroke-width="1"/>
    <path id="Path_17974" data-name="Path 17974" d="M5359.859-1050.09c-2.549-2.2-6.227-5.569-9.734-3.255-2.925,1.931-3.763,5.913-4.552,9.074" fill="none" stroke="#fff" stroke-miterlimit="10" stroke-width="1"/>
    <path id="Path_17975" data-name="Path 17975" d="M5367.807-1032.952c-.1-.155-.176-.282-.238-.377a.382.382,0,0,1-.089.011.408.408,0,0,1-.155-.03.4.4,0,0,1-.046-.022l-.053-.029-.033-.02h-.076a.282.282,0,0,1-.07-.013c-.022-.006-.052-.007-.079-.013s-.058-.009-.089-.016c-.13-.017-.3-.072-.555-.093-.124-.011-.263-.017-.418-.017h-.526l-.565-.007c-.2-.01-.42-.027-.639-.041s-.441-.04-.665-.068-.454-.055-.684-.1-.466-.079-.7-.133l-.406-.094c-.27.34-.525.692-.767,1.052a5.826,5.826,0,0,1,.646.516,4.36,4.36,0,0,1,.7.812,3.5,3.5,0,0,1,.249.437c.865.025,1.686.074,2.454.148a27.047,27.047,0,0,1,3.838.613c.253.054.488.127.713.185-.263-.337-.481-.663-.677-.95C5368.381-1031.975,5368.055-1032.563,5367.807-1032.952Z" fill="none" stroke="#fff" stroke-miterlimit="10" stroke-width="1"/>
    <path id="Path_17976" data-name="Path 17976" d="M5370.51-1039.343" fill="none" stroke="#fff" stroke-miterlimit="10" stroke-width="1"/>
    <g id="Group_12868" data-name="Group 12868">
      <line id="Line_287" data-name="Line 287" x1="2.869" y2="2.869" transform="translate(5369.075 -1039.343)" fill="none" stroke="#fff" stroke-miterlimit="10" stroke-width="1"/>
      <line id="Line_288" data-name="Line 288" x1="1.434" y2="1.434" transform="translate(5367.641 -1039.343)" fill="none" stroke="#fff" stroke-miterlimit="10" stroke-width="1"/>
    </g>
    <g id="Group_12869" data-name="Group 12869">
      <line id="Line_289" data-name="Line 289" x1="2.869" y2="2.869" transform="translate(5379.036 -1046.514)" fill="none" stroke="#fff" stroke-miterlimit="10" stroke-width="1"/>
      <line id="Line_290" data-name="Line 290" x1="1.434" y2="1.434" transform="translate(5377.602 -1046.514)" fill="none" stroke="#fff" stroke-miterlimit="10" stroke-width="1"/>
    </g>
    <g id="Group_12870" data-name="Group 12870">
      <line id="Line_291" data-name="Line 291" x1="0.615" y2="4.01" transform="translate(5365.68 -1027.588)" fill="none" stroke="#fff" stroke-miterlimit="10" stroke-width="1"/>
      <line id="Line_292" data-name="Line 292" x1="0.308" y2="2.005" transform="translate(5363.675 -1025.891)" fill="none" stroke="#fff" stroke-miterlimit="10" stroke-width="1"/>
    </g>
    <path id="Path_17977" data-name="Path 17977" d="M5380.892-984.474s16.586,3.9,18.3-7.535" fill="none" stroke="#fff" stroke-miterlimit="10" stroke-width="1"/>
    <path id="Path_17978" data-name="Path 17978" d="M5399.224-976.7s11.459,2.7,12.642-5.205" fill="none" stroke="#fff" stroke-miterlimit="10" stroke-width="1"/>
    <path id="Path_17979" data-name="Path 17979" d="M5399.224-979.355s7.847,1.845,8.658-3.565" fill="none" stroke="#fff" stroke-miterlimit="10" stroke-width="1"/>
    <line id="Line_293" data-name="Line 293" x1="0.199" y2="24.543" transform="translate(5376.207 -1089.545)" fill="none" stroke="#fff" stroke-miterlimit="10" stroke-width="1"/>
    <line id="Line_294" data-name="Line 294" x1="2.16" y2="12.727" transform="translate(5386.287 -1088.967)" fill="none" stroke="#fff" stroke-miterlimit="10" stroke-width="1"/>
    <line id="Line_295" data-name="Line 295" x1="4.258" y2="12.187" transform="translate(5395.963 -1086.383)" fill="none" stroke="#fff" stroke-miterlimit="10" stroke-width="1"/>
    <line id="Line_296" data-name="Line 296" x1="12.081" y2="23.837" transform="translate(5399.316 -1081.866)" fill="none" stroke="#fff" stroke-miterlimit="10" stroke-width="1"/>
    <line id="Line_297" data-name="Line 297" x1="12.383" y2="16.318" transform="translate(5409.277 -1075.542)" fill="none" stroke="#fff" stroke-miterlimit="10" stroke-width="1"/>
    <line id="Line_298" data-name="Line 298" x1="9.616" y2="8.613" transform="translate(5421.105 -1067.591)" fill="none" stroke="#fff" stroke-miterlimit="10" stroke-width="1"/>
    <line id="Line_299" data-name="Line 299" x1="24.066" y2="18.336" transform="translate(5414.257 -1058.237)" fill="none" stroke="#fff" stroke-miterlimit="10" stroke-width="1"/>
    <line id="Line_300" data-name="Line 300" x1="20.633" y2="10.033" transform="translate(5423.62 -1047.742)" fill="none" stroke="#fff" stroke-miterlimit="10" stroke-width="1"/>
    <line id="Line_301" data-name="Line 301" x1="23.131" y2="5.866" transform="translate(5425.214 -1036.403)" fill="none" stroke="#fff" stroke-miterlimit="10" stroke-width="1"/>
    <line id="Line_302" data-name="Line 302" x1="32.44" y2="1.174" transform="translate(5418.042 -1024.539)" fill="none" stroke="#fff" stroke-miterlimit="10" stroke-width="1"/>
    <line id="Line_303" data-name="Line 303" x1="25.39" y1="3.708" transform="translate(5425.214 -1016.194)" fill="none" stroke="#fff" stroke-miterlimit="10" stroke-width="1"/>
    <line id="Line_304" data-name="Line 304" y1="2.108" x2="12.736" transform="translate(5317.427 -1008.571)" fill="none" stroke="#fff" stroke-miterlimit="10" stroke-width="1"/>
    <line id="Line_305" data-name="Line 305" x2="12.909" y2="0.052" transform="translate(5316.031 -1018.436)" fill="none" stroke="#fff" stroke-miterlimit="10" stroke-width="1"/>
    <line id="Line_306" data-name="Line 306" x2="12.718" y2="2.211" transform="translate(5316.658 -1030.475)" fill="none" stroke="#fff" stroke-miterlimit="10" stroke-width="1"/>
    <line id="Line_307" data-name="Line 307" x2="12.169" y2="4.308" transform="translate(5319.29 -1042.238)" fill="none" stroke="#fff" stroke-miterlimit="10" stroke-width="1"/>
    <line id="Line_308" data-name="Line 308" x2="11.277" y2="6.283" transform="translate(5323.852 -1053.396)" fill="none" stroke="#fff" stroke-miterlimit="10" stroke-width="1"/>
    <line id="Line_309" data-name="Line 309" x2="10.067" y2="8.081" transform="translate(5330.217 -1063.633)" fill="none" stroke="#fff" stroke-miterlimit="10" stroke-width="1"/>
    <line id="Line_310" data-name="Line 310" x2="3.898" y2="12.306" transform="translate(5363.582 -1088.058)" fill="none" stroke="#fff" stroke-miterlimit="10" stroke-width="1"/>
  </g>
</svg>
