<svg xmlns="http://www.w3.org/2000/svg" width="185.301" height="100.52" viewBox="0 0 185.301 100.52">
  <g id="problematic" transform="translate(-4019.571 1302.328)">
    <path id="Path_18088" data-name="Path 18088" d="M4104.341-1257.41c2.264-1.374,4.674-3.054,5.41-4.36,3.406-6.031,5.061-27.242,5.061-27.242l-6.714-1.091-7.255,23.361-14.59.83" fill="none" stroke="#fff" stroke-miterlimit="10" stroke-width="1"/>
    <path id="Path_18089" data-name="Path 18089" d="M4071.268-1268.425a49.248,49.248,0,0,1,2.75,4.676" fill="none" stroke="#fff" stroke-miterlimit="10" stroke-width="1"/>
    <path id="Path_18090" data-name="Path 18090" d="M4078.041-1267.668c-.673-.772-1.335-1.554-2-2.338" fill="none" stroke="#fff" stroke-miterlimit="10" stroke-width="1"/>
    <path id="Path_18091" data-name="Path 18091" d="M4081.051-1259.858" fill="none" stroke="#fff" stroke-miterlimit="10" stroke-width="1"/>
    <path id="Path_18092" data-name="Path 18092" d="M4111.273-1291.994l-1.5,1.817a17.659,17.659,0,0,1,3.079.625c.822-1.681,1.689-3.488,1.73-3.708.807-1.936-.739-6.208-1.879-5.257-.536.448-.3,1.53.1,2.549a1.845,1.845,0,0,1-.555-.707,14.682,14.682,0,0,1-.532-3.029c-.069-1.262-1-2.96-1.645-1.014s-2.066,5.783-.332,7.439A13.971,13.971,0,0,0,4111.273-1291.994Z" fill="none" stroke="#fff" stroke-miterlimit="10" stroke-width="1"/>
    <path id="Path_18093" data-name="Path 18093" d="M4090.854-1214.837q-1.333.672-2.706,1.27l1.154,1.743a13.93,13.93,0,0,0-1.657,1.119c-1.9,1.466-.879,5.429-.44,7.433s1.543.41,1.742-.838a14.7,14.7,0,0,1,.842-2.957,1.857,1.857,0,0,1,.625-.646c-.5.973-.848,2.024-.36,2.525,1.035,1.064,3.014-3.025,2.412-5.034C4092.446-1210.478,4091.566-1212.913,4090.854-1214.837Z" fill="none" stroke="#fff" stroke-miterlimit="10" stroke-width="1"/>
    <path id="Path_18094" data-name="Path 18094" d="M4075.965-1281.907a9.809,9.809,0,0,1-.034,10.9c-2.178,3.083-6.37,3.229-8.177-.347" fill="none" stroke="#fff" stroke-miterlimit="10" stroke-width="1"/>
    <path id="Path_18095" data-name="Path 18095" d="M4077.734-1286.589c-.444-.517-2.1,1.332-2.587.852-.39-.387,1.047-1.686.675-2.09-1.948-2.106-10.453,2.481-10.529,4.579a4.573,4.573,0,0,0-1.514,2.025c-1.391,4.134,2.927,9.887,3.3,9.8a8.539,8.539,0,0,0,1.759-2.806c.12-.5-1.681-1.577-1.052-3.075.512-1.217,1.641-1.7,2.533-.32,1.823,2.81,1.189-.51,1.692-2.229s3.49-2.6,3.49-2.6c-.019-.051-.043-.1-.063-.148l.275-.037S4078.457-1285.746,4077.734-1286.589Z" fill="none" stroke="#fff" stroke-miterlimit="10" stroke-width="1"/>
    <g id="Group_12902" data-name="Group 12902">
      <g id="_03_Sitting" data-name=" 03 Sitting">
        <g id="leg">
          <path id="Path_18096" data-name="Path 18096" d="M4122.261-1264.726c-2.217.653-4.765,7.07-6.8,13.471a2.419,2.419,0,0,1,.979,1.54,25.014,25.014,0,0,1,.456,6.644c.886-.209,1.783-.365,2.676-.494,1.312-2.959,4.248-5.161,6.864-7.047a2.682,2.682,0,0,1,.888-.834c.757-2.487,1.286-4.436,1.286-4.436,2.523-1.088,5.686-.318,14.223-4.565,4.269-2.124,14.387-8.894,17.762-10.882v-2.3C4152.7-1271.4,4125.463-1265.67,4122.261-1264.726Z" fill="none" stroke="#fff" stroke-miterlimit="10" stroke-width="1"/>
        </g>
        <g id="leg-2">
          <path id="Path_18097" data-name="Path 18097" d="M4134.5-1254.719c-3.61-1.71-14.134,9.509-17.337,13.06a2.821,2.821,0,0,1,.065.773c-.326,5.427-2.607,10.182-4.642,15.124,8.413,4.157,18.849-19.006,21.39-18.16,2.608.868,2.536,2.543,9.865,6.227,4.26,2.142,15.215,4.607,19.055,5.373h5.354C4160.875-1235.922,4137.516-1253.289,4134.5-1254.719Z" fill="none" stroke="#fff" stroke-miterlimit="10" stroke-width="1"/>
        </g>
        <path id="Path_18098" data-name="Path 18098" d="M4086.252-1242.133c5.017,4.912,12.548,10.8,25.269,18.013,0,0,9.546-20.5,3.579-26.729-6.836-3.41-30.92-18.435-37.213-16.286a8.134,8.134,0,0,0-3.534,3.556c-.908,1.578-.85,3.69.172,6.169" fill="none" stroke="#fff" stroke-miterlimit="10" stroke-width="1"/>
      </g>
      <g id="table">
        <g id="Group_12901" data-name="Group 12901">
          <g id="hand">
            <path id="Path_18099" data-name="Path 18099" d="M4074.39-1257.853c.023-1.414,15.167,2.56,14.084,4.824l-2.465,9.387" fill="none" stroke="#fff" stroke-miterlimit="10" stroke-width="1"/>
            <path id="Path_18100" data-name="Path 18100" d="M4086.009-1243.642l-3.241,12.325,8.83,15.883-3.781,1.984s-8.75-7.4-13.732-15.333c-3.121-4.971.756-26.84.3-29.069" fill="none" stroke="#fff" stroke-miterlimit="10" stroke-width="1"/>
          </g>
        </g>
      </g>
    </g>
    <path id="Path_18101" data-name="Path 18101" d="M4164.759-1279.678l-1.446,3.015-3.551,2.486.692,1.781-.818,2.608,6.1.589.013-2.592-.852-.02.8-1.036-.057-6.911Z" fill="none" stroke="#fff" stroke-miterlimit="10" stroke-width="1"/>
    <path id="Path_18102" data-name="Path 18102" d="M4176.089-1229.982l-3.874-.592-4-3.132-1.761,1.384-3.2-.026,1.425,7.045,2.911-.871-.269-.962,1.436.547,7.729-2.425Z" fill="none" stroke="#fff" stroke-miterlimit="10" stroke-width="1"/>
    <path id="Path_18103" data-name="Path 18103" d="M4164.42-1294.2a35.951,35.951,0,0,1,23.513,44" fill="none" stroke="#fff" stroke-miterlimit="10" stroke-width="1"/>
    <path id="Path_18104" data-name="Path 18104" d="M4179.407-1301.852a35.95,35.95,0,0,1,23.512,44" fill="none" stroke="#fff" stroke-miterlimit="10" stroke-width="1"/>
    <path id="Path_18105" data-name="Path 18105" d="M4060.019-1233.917a35.95,35.95,0,0,1-23.512-44" fill="none" stroke="#fff" stroke-miterlimit="10" stroke-width="1"/>
    <path id="Path_18106" data-name="Path 18106" d="M4045.032-1226.261a35.951,35.951,0,0,1-23.512-44" fill="none" stroke="#fff" stroke-miterlimit="10" stroke-width="1"/>
  </g>
</svg>
