<svg xmlns="http://www.w3.org/2000/svg" width="110.477" height="105.73" viewBox="0 0 110.477 105.73">
  <g id="rarely" transform="translate(-7107.879 467.004)">
    <circle id="Ellipse_249" data-name="Ellipse 249" cx="13.135" cy="13.135" r="13.135" transform="translate(7112.536 -392.547)" fill="none" stroke="#fff" stroke-miterlimit="10" stroke-width="1"/>
    <path id="Path_18221" data-name="Path 18221" d="M7213.007-439.124l-75.014,71.93a17.565,17.565,0,0,1-24.761-.52h0a17.565,17.565,0,0,1,.519-24.762l75.015-71.929" fill="none" stroke="#fff" stroke-miterlimit="10" stroke-width="1"/>
    <line id="Line_361" data-name="Line 361" y1="67.032" x2="69.908" transform="translate(7131.367 -464.405)" fill="none" stroke="#fff" stroke-miterlimit="10" stroke-width="1"/>
    <line id="Line_362" data-name="Line 362" x1="73.134" y2="70.126" transform="translate(7144.877 -456.636)" fill="none" stroke="#fff" stroke-miterlimit="10" stroke-width="1"/>
    <line id="Line_363" data-name="Line 363" x1="75.014" y2="71.929" transform="translate(7141.746 -466.644)" fill="none" stroke="#fff" stroke-miterlimit="10" stroke-width="1"/>
    <circle id="Ellipse_250" data-name="Ellipse 250" cx="4.378" cy="4.378" r="4.378" transform="translate(7118.232 -383.904)" fill="none" stroke="#fff" stroke-miterlimit="10" stroke-width="1"/>
    <circle id="Ellipse_251" data-name="Ellipse 251" cx="1.876" cy="1.876" r="1.876" transform="translate(7126.989 -387.656)" fill="none" stroke="#fff" stroke-miterlimit="10" stroke-width="1"/>
    <g id="Group_12985" data-name="Group 12985">
      <g id="Group_12779" data-name="Group 12779">
        <path id="Path_17797" data-name="Path 17797" d="M7157.869-361.274l.3-1.946c.535-3.494.205-4.358-2.519-6.613l-1.518-1.251,1.947.3c3.493.537,4.359.207,6.612-2.517l1.251-1.517-.3,1.946c-.535,3.494-.206,4.36,2.518,6.614l1.518,1.251-1.947-.3c-3.492-.537-4.36-.207-6.613,2.518Zm-.233-8.242a5.315,5.315,0,0,1,1.8,4.738,5.313,5.313,0,0,1,4.738-1.8,5.316,5.316,0,0,1-1.805-4.739,5.3,5.3,0,0,1-4.738,1.8Z" fill="#fff"/>
      </g>
      <g id="Group_12779-2" data-name="Group 12779">
        <path id="Path_17797-2" data-name="Path 17797" d="M7117.485-417.326l.271-1.762c.484-3.162.185-3.945-2.281-5.985L7114.1-426.2l1.762.27c3.162.485,3.945.186,5.984-2.278l1.133-1.374-.27,1.762c-.484,3.162-.187,3.946,2.279,5.986l1.373,1.132-1.761-.271c-3.161-.485-3.947-.187-5.986,2.279Zm-.211-7.46a4.813,4.813,0,0,1,1.634,4.288,4.807,4.807,0,0,1,4.288-1.632,4.815,4.815,0,0,1-1.634-4.289,4.8,4.8,0,0,1-4.288,1.634Z" fill="#fff"/>
      </g>
      <g id="Group_12779-3" data-name="Group 12779">
        <path id="Path_17797-3" data-name="Path 17797" d="M7137.521-428.311l.172-1.121c.308-2.013.118-2.511-1.451-3.81l-.874-.72,1.121.171c2.013.309,2.511.119,3.809-1.45l.721-.874-.172,1.122c-.308,2.012-.119,2.511,1.451,3.809l.874.721-1.121-.172c-2.012-.309-2.512-.119-3.81,1.45Zm-.134-4.748a3.063,3.063,0,0,1,1.04,2.729,3.06,3.06,0,0,1,2.729-1.039,3.063,3.063,0,0,1-1.04-2.729,3.055,3.055,0,0,1-2.729,1.039Z" fill="#fff"/>
      </g>
      <g id="Group_12779-4" data-name="Group 12779">
        <path id="Path_17797-4" data-name="Path 17797" d="M7122.51-433.315l.172-1.121c.308-2.013.118-2.511-1.451-3.809l-.874-.721,1.121.172c2.013.309,2.511.118,3.809-1.45l.721-.874-.172,1.121c-.308,2.013-.119,2.511,1.451,3.81l.874.72-1.121-.172c-2.012-.309-2.512-.119-3.81,1.451Zm-.134-4.748a3.065,3.065,0,0,1,1.04,2.73,3.058,3.058,0,0,1,2.729-1.039,3.065,3.065,0,0,1-1.04-2.73,3.056,3.056,0,0,1-2.729,1.04Z" fill="#fff"/>
      </g>
      <g id="Group_12779-5" data-name="Group 12779">
        <path id="Path_17797-5" data-name="Path 17797" d="M7183.637-379.605l.221-1.113c.4-2,.227-2.5-1.285-3.868l-.842-.758,1.113.22c2,.4,2.5.227,3.868-1.284l.758-.842-.22,1.113c-.4,2-.228,2.5,1.284,3.869l.842.758-1.113-.221c-2-.4-2.5-.227-3.869,1.285Zm.072-4.749a3.064,3.064,0,0,1,.921,2.772,3.055,3.055,0,0,1,2.771-.92,3.066,3.066,0,0,1-.921-2.772,3.054,3.054,0,0,1-2.771.92Z" fill="#fff"/>
      </g>
    </g>
  </g>
</svg>
