<svg xmlns="http://www.w3.org/2000/svg" width="152.055" height="94.679" viewBox="0 0 152.055 94.679">
  <g id="scream" transform="translate(-349 341.327)">
    <g id="Group_12925" data-name="Group 12925" transform="translate(387.225 -340.853)">
      <path id="Path_18152" data-name="Path 18152" d="M478.236-288.313a25.9,25.9,0,0,0-.724-2.787c-11.686-36.681-21.194-47.93-29.2-49.6a8.707,8.707,0,0,0-5.473.835,12.339,12.339,0,0,1-5.744.924,12.331,12.331,0,0,1-3.809-.924,8.7,8.7,0,0,0-5.472-.835c-8,1.667-17.51,12.916-29.2,49.6a25.743,25.743,0,0,0-.724,2.787c-3.946,19.973,5.1,35.284,32.369,40.435a42.076,42.076,0,0,0,6.847.72,42.023,42.023,0,0,0,8.752-.72C473.133-253.029,482.182-268.34,478.236-288.313Z" transform="translate(-397.016 340.853)" fill="none" stroke="#fff" stroke-miterlimit="10" stroke-width="1"/>
      <path id="Path_18153" data-name="Path 18153" d="M476.98-280.455c-.012.25-.029.5-.049.747-.011.164-.025.325-.043.489-.037.376-.083.747-.141,1.118-.026.166-.054.336-.083.5-.032.187-.069.371-.107.555-.029.141-.057.282-.089.42-.014.072-.031.143-.049.215-.034.141-.066.279-.1.417a.533.533,0,0,1-.026.095c-.04.164-.086.327-.135.491-.052.181-.107.359-.164.534q-.073.233-.155.466a2.257,2.257,0,0,1-.086.236c-.032.1-.069.2-.109.3-.057.164-.121.325-.19.486-.035.089-.072.178-.112.264q-.177.413-.371.818c-.086.178-.175.353-.267.529-.069.129-.138.258-.21.388-.049.092-.1.184-.152.273-.072.129-.146.256-.224.382-.27.451-.56.9-.873,1.33-.063.092-.129.181-.2.273-.086.12-.178.241-.273.361s-.178.228-.27.339a.125.125,0,0,1-.026.035l-.241.293c-.031.04-.066.08-.1.12-.135.162-.275.319-.416.478-.08.092-.166.184-.253.275-.126.135-.256.273-.388.405l-.034.034c-.147.153-.3.3-.451.446-.129.126-.264.252-.4.373-.074.072-.149.141-.227.207-.411.373-.845.732-1.293,1.086-.08.063-.161.127-.244.189s-.158.121-.238.178-.182.138-.273.2c-.3.219-.6.428-.908.638-.126.086-.256.172-.388.256s-.3.2-.451.29q-1.258.789-2.666,1.512c-.2.1-.4.2-.606.3-.478.232-.966.463-1.469.681-.2.092-.408.178-.615.268-.3.129-.615.256-.931.382-.256.1-.517.2-.781.3l-.035.014c-.534.2-1.086.4-1.649.586-.282.1-.569.193-.86.284q-.871.281-1.784.541c-.3.086-.609.173-.919.256q-1.835.5-3.827.917a.38.38,0,0,0-.06.011c-.675.144-1.365.282-2.069.408q-2.633.486-5.528.841c-.393.052-.8.1-1.2.143-.075.009-.152.018-.227.023a21.37,21.37,0,0,1-4.293,0c-.075-.006-.153-.014-.228-.023-.4-.045-.8-.092-1.2-.143q-2.9-.353-5.528-.841c-.7-.127-1.393-.264-2.068-.408a.418.418,0,0,0-.06-.011q-1.992-.419-3.828-.917c-.31-.083-.618-.17-.919-.256q-.914-.259-1.784-.541c-.291-.092-.578-.186-.859-.284q-.845-.279-1.646-.586c-.014-.006-.026-.009-.037-.014-.264-.1-.526-.2-.782-.3-.316-.127-.627-.253-.931-.382-.207-.089-.414-.175-.615-.268-.5-.218-.991-.448-1.468-.681-.2-.1-.405-.2-.607-.3q-1.409-.72-2.666-1.512c-.152-.095-.3-.192-.451-.29s-.261-.17-.388-.256c-.31-.21-.612-.42-.908-.638-.092-.066-.182-.135-.273-.2s-.158-.118-.239-.178-.164-.127-.244-.189c-.448-.353-.882-.712-1.293-1.086-.077-.066-.152-.135-.227-.207-.135-.121-.27-.248-.4-.373-.155-.146-.3-.293-.451-.446l-.035-.034c-.132-.132-.261-.27-.388-.405-.086-.092-.172-.184-.252-.275-.141-.158-.282-.316-.417-.478-.037-.04-.072-.08-.1-.12l-.241-.293a.137.137,0,0,1-.025-.035c-.092-.111-.182-.224-.271-.339s-.186-.241-.273-.361c-.069-.092-.135-.181-.2-.273-.313-.434-.6-.88-.873-1.33-.077-.127-.152-.253-.224-.382-.052-.089-.1-.182-.153-.273-.072-.13-.14-.259-.209-.388-.092-.176-.181-.351-.267-.529q-.193-.4-.37-.818c-.041-.086-.078-.175-.112-.264-.069-.161-.132-.322-.19-.486-.041-.1-.078-.2-.109-.3a2.276,2.276,0,0,1-.087-.236q-.081-.233-.155-.466c-.057-.175-.111-.353-.163-.534-.049-.164-.1-.327-.135-.491a.593.593,0,0,1-.026-.095c-.037-.138-.069-.276-.1-.417-.018-.072-.035-.143-.049-.215-.032-.138-.061-.279-.089-.42-.037-.184-.075-.368-.106-.555-.029-.166-.057-.336-.084-.5-.057-.371-.1-.742-.141-1.118-.017-.164-.031-.325-.043-.489-.02-.247-.037-.5-.049-.747a29.275,29.275,0,0,1,.793-7.971,17.978,17.978,0,0,1,.673-2.224q1.7-4.572,3.332-8.5c9.373-22.573,17.174-29.905,23.849-31.1,3.532-.63,5.7,1.307,9.54,2.066,3.841-.759,6.008-2.7,9.539-2.066,6.675,1.193,14.476,8.525,23.849,31.1q1.634,3.935,3.333,8.5a18.254,18.254,0,0,1,.673,2.224A29.336,29.336,0,0,1,476.98-280.455Z" transform="translate(-397.743 338.715)" fill="none" stroke="#fff" stroke-miterlimit="10" stroke-width="1"/>
      <g id="Group_12922" data-name="Group 12922" transform="translate(7.662 8.345)">
        <path id="Path_18154" data-name="Path 18154" d="M449.568-330.247c-3.531-.63-5.7,1.307-9.539,2.066-3.842-.759-6.008-2.7-9.54-2.066-6.674,1.193-14.475,8.525-23.849,31.1a5.243,5.243,0,0,0,2.928-.175,6.927,6.927,0,0,0,3.008-2.063,7.147,7.147,0,0,0,1.166-1.876,6.446,6.446,0,0,0,.5-1.985,5.254,5.254,0,0,0-.216-1.977,5.921,5.921,0,0,0,.966-.135,6.913,6.913,0,0,0,3.209-1.733,7.238,7.238,0,0,0,1.362-1.738,6.371,6.371,0,0,0,.7-1.923,4.844,4.844,0,0,0-.365-3.063c.072.023.143.045.218.063a6.943,6.943,0,0,0,3.646-.066,7.1,7.1,0,0,0,2.009-.92,6.43,6.43,0,0,0,1.509-1.385,4.948,4.948,0,0,0,1.06-2.516,6.222,6.222,0,0,0,1.319,1.037,7.534,7.534,0,0,0,3.83,1.014,7.42,7.42,0,0,0,4.359-1.362,4.937,4.937,0,0,0,2.178-3.953,4.935,4.935,0,0,0,2.178,3.953,7.418,7.418,0,0,0,4.359,1.362,7.535,7.535,0,0,0,3.83-1.014,6.262,6.262,0,0,0,1.319-1.037,4.94,4.94,0,0,0,1.06,2.516,6.464,6.464,0,0,0,1.509,1.385,7.117,7.117,0,0,0,2.009.92,6.942,6.942,0,0,0,3.646.066c.075-.018.147-.04.219-.063a4.848,4.848,0,0,0-.365,3.063,6.391,6.391,0,0,0,.7,1.923,7.239,7.239,0,0,0,1.362,1.738,6.917,6.917,0,0,0,3.21,1.733,5.922,5.922,0,0,0,.965.135,5.252,5.252,0,0,0-.215,1.977,6.422,6.422,0,0,0,.5,1.985,7.172,7.172,0,0,0,1.167,1.876,6.929,6.929,0,0,0,3.008,2.063,5.243,5.243,0,0,0,2.928.175C464.044-321.721,456.243-329.054,449.568-330.247Z" transform="translate(-406.641 330.371)" fill="none" stroke="#fff" stroke-miterlimit="10" stroke-width="1"/>
        <g id="Group_12921" data-name="Group 12921" transform="translate(4.98 2.304)">
          <path id="Path_18155" data-name="Path 18155" d="M431.971-326.957c-.158-.909-1.542-.524-1.385.382a32.156,32.156,0,0,0,1.5,5.593c.316.861,1.705.489,1.386-.382A32.186,32.186,0,0,1,431.971-326.957Z" transform="translate(-416.501 327.476)" fill="none" stroke="#fff" stroke-miterlimit="10" stroke-width="1"/>
          <path id="Path_18156" data-name="Path 18156" d="M421.468-316.477a.722.722,0,0,0-.983-.257.737.737,0,0,0-.257.982,22.051,22.051,0,0,0,1.072,2.192.719.719,0,0,0,1.241-.725A21.729,21.729,0,0,1,421.468-316.477Z" transform="translate(-414.375 325.305)" fill="none" stroke="#fff" stroke-miterlimit="10" stroke-width="1"/>
          <path id="Path_18157" data-name="Path 18157" d="M414.239-304.323a.736.736,0,0,0-.982-.258.724.724,0,0,0-.258.982,6.858,6.858,0,0,1,.727,1.3.74.74,0,0,0,.884.5.723.723,0,0,0,.5-.884A8.459,8.459,0,0,0,414.239-304.323Z" transform="translate(-412.897 322.827)" fill="none" stroke="#fff" stroke-miterlimit="10" stroke-width="1"/>
          <path id="Path_18158" data-name="Path 18158" d="M464.436-326.957a32.11,32.11,0,0,1-1.5,5.593c-.319.871,1.069,1.243,1.385.382a32.15,32.15,0,0,0,1.5-5.593C465.979-327.481,464.594-327.866,464.436-326.957Z" transform="translate(-423.09 327.476)" fill="none" stroke="#fff" stroke-miterlimit="10" stroke-width="1"/>
          <path id="Path_18159" data-name="Path 18159" d="M476.037-316.735a.722.722,0,0,0-.983.257,21.893,21.893,0,0,1-1.072,2.192.719.719,0,0,0,1.24.725,22.233,22.233,0,0,0,1.073-2.192A.737.737,0,0,0,476.037-316.735Z" transform="translate(-425.332 325.305)" fill="none" stroke="#fff" stroke-miterlimit="10" stroke-width="1"/>
          <path id="Path_18160" data-name="Path 18160" d="M483.328-304.581a.736.736,0,0,0-.982.258,8.459,8.459,0,0,0-.871,1.641.722.722,0,0,0,.5.884.741.741,0,0,0,.884-.5,6.9,6.9,0,0,1,.726-1.3A.724.724,0,0,0,483.328-304.581Z" transform="translate(-426.872 322.827)" fill="none" stroke="#fff" stroke-miterlimit="10" stroke-width="1"/>
          <path id="Path_18161" data-name="Path 18161" d="M447.849-326.518q-.029,1.245-.058,2.49a.719.719,0,0,0,1.437,0l.057-2.49A.719.719,0,0,0,447.849-326.518Z" transform="translate(-420.012 327.422)" fill="none" stroke="#fff" stroke-miterlimit="10" stroke-width="1"/>
        </g>
      </g>
      <path id="Path_18162" data-name="Path 18162" d="M463.482-289.673c0,9.478-8.968,17.16-20.031,17.16s-20.034-7.682-20.034-17.16c0-8.54,7.282-15.623,16.818-16.936v.074A20.566,20.566,0,0,1,437-295.294a5.57,5.57,0,0,0-.886,3.624c.315,3.059,3.236,5.511,6.814,5.721,4.305.255,7.89-2.66,7.89-6.294a5.563,5.563,0,0,0-.816-2.886,21.78,21.78,0,0,1-3.335-11.21v-.27C456.2-305.293,463.482-298.213,463.482-289.673Z" transform="translate(-402.399 333.87)" fill="none" stroke="#fff" stroke-miterlimit="10" stroke-width="1"/>
      <path id="Path_18163" data-name="Path 18163" d="M475.292-260.565c-.069.129-.139.258-.21.388-.049.092-.1.184-.152.273-.072.129-.146.256-.224.382-.27.451-.56.9-.873,1.33-.063.092-.129.181-.2.273-.086.12-.178.241-.273.361s-.178.228-.27.339a.124.124,0,0,1-.026.035l-.241.293c-.031.04-.066.08-.1.12-.134.162-.275.319-.416.478-.08.092-.166.184-.253.275-.126.135-.256.273-.388.405l-.034.034c-.146.153-.3.3-.451.446-.129.126-.264.252-.4.373-.074.072-.149.141-.227.207-.411.373-.845.732-1.293,1.086-.08.063-.161.127-.244.189s-.158.121-.238.178-.182.138-.273.2c-.3.219-.6.428-.908.638-.126.086-.256.172-.388.256s-.3.2-.451.29q-1.257.789-2.666,1.512c-.2.1-.4.2-.606.3-.478.232-.966.463-1.469.681-.2.092-.408.178-.615.268-.3.129-.615.256-.931.382-.256.1-.517.2-.781.3l-.035.014c-.534.2-1.086.4-1.649.586-.282.1-.569.193-.86.284q-.871.281-1.784.541c-.3.086-.609.173-.919.256q-1.835.5-3.827.917a.394.394,0,0,0-.06.011c-.675.144-1.365.282-2.069.408q-2.633.486-5.528.841c-.393.052-.8.1-1.2.143-.075.009-.152.017-.227.023a21.366,21.366,0,0,1-4.293,0c-.075-.006-.153-.014-.228-.023-.4-.045-.8-.092-1.2-.143q-2.9-.353-5.528-.841c-.7-.127-1.393-.264-2.068-.408a.434.434,0,0,0-.06-.011q-1.992-.419-3.828-.917c-.31-.083-.618-.17-.919-.256q-.914-.259-1.784-.541c-.291-.092-.578-.186-.859-.284q-.845-.279-1.646-.586c-.014-.006-.026-.009-.037-.014-.264-.1-.526-.2-.782-.3-.316-.127-.627-.253-.931-.382-.207-.089-.414-.175-.615-.268-.5-.218-.991-.448-1.468-.681-.2-.1-.405-.2-.607-.3q-1.409-.72-2.666-1.512c-.152-.095-.3-.192-.451-.29s-.261-.17-.388-.256c-.31-.21-.612-.42-.908-.638-.092-.066-.182-.135-.273-.2s-.158-.118-.239-.178-.164-.127-.244-.189c-.448-.354-.882-.713-1.293-1.086-.077-.066-.152-.135-.227-.207-.135-.121-.27-.248-.4-.373-.155-.146-.3-.293-.451-.446l-.035-.034c-.132-.132-.261-.27-.388-.405-.086-.092-.172-.184-.252-.275-.141-.158-.282-.316-.417-.478-.037-.04-.072-.08-.1-.12l-.241-.293a.138.138,0,0,1-.025-.035c-.092-.111-.181-.224-.271-.339s-.186-.241-.273-.361c-.068-.092-.135-.181-.2-.273-.313-.434-.6-.88-.873-1.33-.077-.127-.152-.253-.224-.382-.052-.089-.1-.182-.153-.273-.072-.13-.14-.259-.209-.388,3.555-4.347,13.893-15.594,24.99-14.775,4.752.275,7.062,4.184,10.918,4.819,3.856-.635,6.166-4.543,10.918-4.819C461.4-276.159,471.737-264.913,475.292-260.565Z" transform="translate(-398.333 327.503)" fill="none" stroke="#fff" stroke-miterlimit="10" stroke-width="1"/>
      <g id="Group_12924" data-name="Group 12924" transform="translate(2.864 58.06)">
        <path id="Path_18164" data-name="Path 18164" d="M476.987-267.721c-.012.25-.029.5-.049.747-.011.164-.025.325-.043.489-.037.376-.083.747-.141,1.118-.025.166-.054.336-.083.5-.032.187-.069.371-.107.555-.029.141-.057.282-.089.42-.014.072-.031.143-.049.215-.034.141-.066.279-.1.417a.531.531,0,0,1-.026.095c-.04.164-.086.327-.135.491-.052.182-.107.359-.164.534q-.073.233-.155.466a2.257,2.257,0,0,1-.086.236c-.032.1-.069.2-.109.3-.057.164-.121.325-.189.486-.035.089-.072.178-.112.264-.115.275-.241.549-.371.818-.15.308-.307.615-.477.917-.049.092-.1.184-.152.273-.072.129-.146.256-.224.382-.27.451-.56.9-.873,1.33-.063.092-.129.181-.2.273-.086.12-.178.241-.273.361s-.178.228-.27.339a.125.125,0,0,1-.026.035l-.241.293c-.031.04-.066.08-.1.12-.135.162-.273.319-.416.478-.08.092-.166.184-.253.275-.126.135-.256.273-.388.405l-.034.034c-.146.153-.3.3-.451.446-.129.126-.264.252-.4.373-.074.072-.149.141-.227.207-.411.373-.845.732-1.293,1.086-.08.063-.161.127-.244.189s-.158.121-.238.178-.182.138-.273.2c-.3.219-.6.428-.908.638-.126.086-.256.172-.388.256s-.3.2-.451.29q-1.257.789-2.666,1.512c-.2.1-.4.2-.606.3-.478.232-.966.459-1.469.681-.2.092-.408.178-.615.267-.3.129-.615.256-.931.382-.256.1-.517.2-.781.3l-.035.014c-.534.2-1.086.4-1.649.586-.282.1-.569.193-.86.284-.58.187-1.175.365-1.784.54-.3.086-.609.173-.919.256q-1.835.492-3.827.917a.392.392,0,0,0-.061.011c-.675.141-1.365.279-2.069.408q-2.633.482-5.528.841c-.471.057-.945.115-1.425.166a21.366,21.366,0,0,1-4.293,0c-.48-.052-.954-.109-1.426-.166q-2.9-.358-5.528-.841c-.7-.13-1.393-.267-2.068-.408a.428.428,0,0,0-.06-.011q-1.992-.423-3.828-.917c-.31-.083-.618-.17-.919-.256-.609-.175-1.2-.353-1.784-.54-.291-.092-.578-.186-.859-.284q-.845-.284-1.646-.586c-.014-.006-.026-.009-.037-.014-.264-.1-.526-.2-.782-.3-.316-.127-.627-.253-.931-.382-.207-.089-.414-.175-.615-.267q-.753-.332-1.468-.681c-.2-.1-.408-.2-.607-.3q-1.409-.72-2.666-1.512c-.152-.095-.3-.192-.451-.29s-.261-.17-.388-.256c-.31-.21-.612-.42-.908-.638-.092-.066-.182-.134-.273-.2s-.158-.118-.239-.178-.164-.127-.244-.189c-.448-.353-.882-.712-1.293-1.086-.077-.066-.152-.135-.227-.207-.135-.121-.27-.248-.4-.373-.155-.146-.3-.293-.451-.446l-.035-.034c-.132-.132-.261-.27-.388-.405-.086-.092-.172-.184-.252-.275-.141-.158-.282-.316-.417-.478-.037-.04-.072-.08-.1-.12l-.241-.293a.138.138,0,0,1-.026-.035c-.092-.111-.181-.224-.271-.339s-.186-.241-.273-.361c-.068-.092-.135-.182-.2-.273-.313-.434-.6-.88-.873-1.33-.077-.127-.152-.253-.224-.382-.052-.089-.1-.182-.153-.273-.17-.3-.327-.609-.477-.917-.129-.27-.256-.543-.37-.818-.041-.086-.078-.175-.112-.264-.069-.161-.132-.322-.19-.486-.041-.1-.078-.2-.109-.3a2.276,2.276,0,0,1-.087-.236q-.081-.233-.155-.466c-.057-.175-.111-.353-.163-.534-.049-.164-.1-.327-.135-.491a.585.585,0,0,1-.026-.095c-.037-.138-.069-.276-.1-.417-.018-.072-.035-.143-.049-.215-.032-.138-.061-.279-.089-.42-.037-.184-.074-.368-.106-.555-.029-.166-.057-.336-.084-.5-.057-.371-.1-.742-.141-1.118-.017-.164-.031-.325-.043-.489-.02-.247-.037-.5-.049-.747,2.813-.566,8.4-.523,9.215,8.413,2.919-.719,5.841,3.591,6.272,6.559,1.58-2.034,6.608-1.89,7.686,1.486,3.161-3.089,7.327-2.011,8.261,1.078,1.261-2.586,5.183-2.181,6.753-.584,1.568-1.6,5.491-2,6.752.584.934-3.089,5.1-4.167,8.261-1.078,1.078-3.375,6.106-3.52,7.686-1.486.431-2.968,3.353-7.278,6.272-6.559C468.59-268.244,474.173-268.287,476.987-267.721Z" transform="translate(-400.614 267.922)" fill="none" stroke="#fff" stroke-miterlimit="10" stroke-width="1"/>
        <g id="Group_12923" data-name="Group 12923" transform="translate(4.815 8.449)">
          <path id="Path_18165" data-name="Path 18165" d="M438.773-244.228a32.76,32.76,0,0,0-.111,4.312c.037.922,1.474.927,1.436,0a32.886,32.886,0,0,1,.111-4.312C440.293-245.149,438.856-245.143,438.773-244.228Z" transform="translate(-413.182 254.782)" fill="none" stroke="#fff" stroke-miterlimit="10" stroke-width="1"/>
          <path id="Path_18166" data-name="Path 18166" d="M428.639-245.811a7.982,7.982,0,0,0-.245,3.944c.106.907,1.544.918,1.437,0a7.137,7.137,0,0,1,.193-3.562C430.366-246.289,428.978-246.661,428.639-245.811Z" transform="translate(-411.068 255.062)" fill="none" stroke="#fff" stroke-miterlimit="10" stroke-width="1"/>
          <path id="Path_18167" data-name="Path 18167" d="M418.569-248.088a8.078,8.078,0,0,0-.3,2.92c.075.915,1.512.923,1.436,0a6.941,6.941,0,0,1,.248-2.539A.719.719,0,0,0,418.569-248.088Z" transform="translate(-409.024 255.531)" fill="none" stroke="#fff" stroke-miterlimit="10" stroke-width="1"/>
          <path id="Path_18168" data-name="Path 18168" d="M410.071-257.258a6.78,6.78,0,0,0-3.3,3.035.719.719,0,0,0,1.241.724,5.273,5.273,0,0,1,2.441-2.374C411.308-256.2,410.937-257.588,410.071-257.258Z" transform="translate(-406.662 257.308)" fill="none" stroke="#fff" stroke-miterlimit="10" stroke-width="1"/>
          <path id="Path_18169" data-name="Path 18169" d="M456.548-244.228a32.886,32.886,0,0,1,.111,4.312c-.037.927,1.4.922,1.437,0a32.908,32.908,0,0,0-.111-4.312C457.9-245.143,456.464-245.149,456.548-244.228Z" transform="translate(-416.834 254.782)" fill="none" stroke="#fff" stroke-miterlimit="10" stroke-width="1"/>
          <path id="Path_18170" data-name="Path 18170" d="M466.672-245.429a7.146,7.146,0,0,1,.194,3.562c-.107.918,1.33.907,1.436,0a7.974,7.974,0,0,0-.245-3.944C467.72-246.661,466.331-246.289,466.672-245.429Z" transform="translate(-418.888 255.062)" fill="none" stroke="#fff" stroke-miterlimit="10" stroke-width="1"/>
          <path id="Path_18171" data-name="Path 18171" d="M476.761-247.707a6.937,6.937,0,0,1,.248,2.539c-.076.923,1.362.915,1.437,0a8.077,8.077,0,0,0-.3-2.92A.719.719,0,0,0,476.761-247.707Z" transform="translate(-420.949 255.531)" fill="none" stroke="#fff" stroke-miterlimit="10" stroke-width="1"/>
          <path id="Path_18172" data-name="Path 18172" d="M489.3-254.223a6.778,6.778,0,0,0-3.3-3.035c-.866-.33-1.238,1.059-.382,1.385a5.277,5.277,0,0,1,2.441,2.374A.719.719,0,0,0,489.3-254.223Z" transform="translate(-422.662 257.308)" fill="none" stroke="#fff" stroke-miterlimit="10" stroke-width="1"/>
          <path id="Path_18173" data-name="Path 18173" d="M447.557-244.786q.012,2.719-.059,5.437c-.022.861,1.415.861,1.437,0q.072-2.718.059-5.437C448.99-245.646,447.553-245.648,447.557-244.786Z" transform="translate(-414.989 254.887)" fill="none" stroke="#fff" stroke-miterlimit="10" stroke-width="1"/>
        </g>
      </g>
    </g>
    <g id="Group_12926" data-name="Group 12926" transform="translate(481.339 -320.951)">
      <line id="Line_350" data-name="Line 350" x2="19.1" transform="translate(0.616 27.918)" fill="none" stroke="#fff" stroke-miterlimit="10" stroke-width="1"/>
      <line id="Line_351" data-name="Line 351" y1="13.501" x2="18.449" transform="translate(0 0)" fill="none" stroke="#fff" stroke-miterlimit="10" stroke-width="1"/>
      <line id="Line_352" data-name="Line 352" x2="18.449" y2="13.501" transform="translate(0 42.736)" fill="none" stroke="#fff" stroke-miterlimit="10" stroke-width="1"/>
    </g>
    <g id="Group_12927" data-name="Group 12927" transform="translate(349 -320.951)">
      <line id="Line_353" data-name="Line 353" x1="24.499" transform="translate(0 27.918)" fill="none" stroke="#fff" stroke-miterlimit="10" stroke-width="1"/>
      <line id="Line_354" data-name="Line 354" x1="23.664" y1="13.501" transform="translate(1.625 0)" fill="none" stroke="#fff" stroke-miterlimit="10" stroke-width="1"/>
      <line id="Line_355" data-name="Line 355" x1="23.664" y2="13.501" transform="translate(1.625 42.736)" fill="none" stroke="#fff" stroke-miterlimit="10" stroke-width="1"/>
    </g>
  </g>
</svg>
