<svg xmlns="http://www.w3.org/2000/svg" width="120.982" height="106.341" viewBox="0 0 120.982 106.341">
  <g id="smile" transform="translate(-75.114 -13.737)">
    <path id="Path_18143" data-name="Path 18143" d="M144.618,107.98a53.963,53.963,0,0,1,5.885,2.032c1.92.8,17.921,3.6,24.034,3.678a128.4,128.4,0,0,0,17.383-1.632,16.254,16.254,0,0,0,2.637-15.35,18.647,18.647,0,0,0-8.029-9.549c-3.235-1.951-7.422-2.708-9.807-5.876-3.338-4.432-.984-10.811-2.182-16.232-1-4.559-4.685-8.4-8.833-10.342-3.869-1.812-8.744-2.209-11.579-5.764-3.079-3.867-1.839-9.029-2.267-13.558-.607-6.478-4.7-12.331-10.1-15.955-.608-.407-1.242-.784-1.887-1.145a24.144,24.144,0,0,0-2.6-1.331,28.653,28.653,0,0,0-15.916-2.415c-.066.01-.131.025-.2.036-7.879.964-15,5.256-17.923,13.754-1.477,4.295-1.542,9.149-4.044,12.939-2.72,4.118-7.992,6.434-9.582,11.105-2,5.87,2.874,12.411,1,18.32C89.38,74.56,85.657,76.96,82.352,79.3s-6.719,5.5-6.738,9.549c-.029,5.636,6.586,10.555,4.552,15.812-.453,1.167-1.3,2.156-1.674,3.351a5.09,5.09,0,0,0,1.016,4.583c3.313-1.549,6.543-3.27,9.957-4.6,3.856-1.5,20.064-4.129,24-4.051C118.723,104.049,141.3,106.542,144.618,107.98Zm6.876-53.853c2.294.946,4.264,2.872,6.742,3.841,3.374,1.325,6.9,2.982,8.739,6.1a11.772,11.772,0,0,1,1.295,7.263,35.019,35.019,0,0,1-1.858,7.256,10.128,10.128,0,0,0-1.994-6.421c-2.391-3.2-6.437-4.7-9.257-7.53C152.876,62.352,150.232,57.42,151.494,54.127Z" transform="translate(0 0)" fill="none" stroke="#fff" stroke-miterlimit="10" stroke-width="1"/>
    <path id="Path_18144" data-name="Path 18144" d="M134.313,101.606" transform="translate(-18.557 -27.616)" fill="none" stroke="#fff" stroke-miterlimit="10" stroke-width="1"/>
    <path id="Path_18145" data-name="Path 18145" d="M143.511,79.73a20.366,20.366,0,0,1,3.449-13.4,42.35,42.35,0,0,0,3.1-5.636c4.344.988,7.943-4.517,5.693-6.7-1.736-1.679-4.206-1.021-5.606-.429a3.128,3.128,0,0,0-1.055.732,43.885,43.885,0,0,0-3.332-4.632,86.863,86.863,0,0,0-6.964-8.091c-3.175-3.126-5.909-5.742-7.264-10.037-4.868,3.417-5.66,3.047-8.441,4.856a17.462,17.462,0,0,0-4.041,4.163,30.023,30.023,0,0,0-3.45,5.171c0,1.444.01,3.1.07,4.885-.608-.568-1.455-1.082-2.175-.5-3.294,2.65.373,6.032,2.608,6.737v-.008c.936,8.279,3.6,16.739,11.132,17.513l.083,5.1" transform="translate(-11.559 -5.465)" fill="none" stroke="#fff" stroke-miterlimit="10" stroke-width="1"/>
    <path id="Path_18146" data-name="Path 18146" d="M180.191,140.649q-.263-1.369-.59-2.807c-5.411-23.661-22.146-27.838-40.267-30.53,0,0,.439-8.068-4.788-7.384a16.739,16.739,0,0,1-16.1,1.775s-3.814.471-2.5,7.146c0,0-20.371,9.472-26.727,15.728-2.045,2.012-3.625,7.241-5.117,14.184" transform="translate(-2.684 -27.072)" fill="none" stroke="#fff" stroke-miterlimit="10" stroke-width="1"/>
    <g id="Group_12919" data-name="Group 12919" transform="translate(108.374 50.172)">
      <path id="Path_18147" data-name="Path 18147" d="M135.132,81.841l.263.01c.09.006.18.011.269.015a13.333,13.333,0,0,0,10.063-3.758,9.454,9.454,0,0,0,2.525-7.289,3.371,3.371,0,0,0-.813-1.96,4.274,4.274,0,0,0-3.138-1.287h-.029c-.025,0-2.534.3-3.949.41a35.184,35.184,0,0,1-4.211.176l-.05,0-.064,0a35.05,35.05,0,0,1-4.174-.579c-.555-.1-1.1-.233-1.625-.363a12.511,12.511,0,0,0-2.3-.426c-2.451-.117-3.919.87-4.244,2.854a9.453,9.453,0,0,0,1.816,7.5A13.337,13.337,0,0,0,135.132,81.841Z" transform="translate(-123.518 -66.776)" fill="none" stroke="#fff" stroke-miterlimit="10" stroke-width="1"/>
      <g id="Group_12918" data-name="Group 12918" transform="translate(1.729 2.07)">
        <path id="Path_18148" data-name="Path 18148" d="M147.347,71.891c-.159-2.381-6.344-.729-10.579-.949-4.237-.186-10.235-2.423-10.622-.068a8.53,8.53,0,0,0-.1.859,2,2,0,0,0,.994.7,1.7,1.7,0,0,0,1.929-.572.126.126,0,0,1,.226.046,2.143,2.143,0,0,0,1.572,1.623,1.771,1.771,0,0,0,1.938-.852.125.125,0,0,1,.23.03,2,2,0,0,0,1.634,1.487,1.905,1.905,0,0,0,1.98-1.128.125.125,0,0,1,.235.012,1.869,1.869,0,0,0,1.838,1.311,2,2,0,0,0,1.77-1.325.125.125,0,0,1,.232-.008,1.772,1.772,0,0,0,1.848,1.034,2.144,2.144,0,0,0,1.721-1.466.126.126,0,0,1,.229-.024,1.7,1.7,0,0,0,1.866.754,2.5,2.5,0,0,0,1.075-.644C147.371,72.447,147.366,72.172,147.347,71.891Z" transform="translate(-126.047 -69.803)" fill="none" stroke="#fff" stroke-miterlimit="10" stroke-width="1"/>
        <path id="Path_18149" data-name="Path 18149" d="M138.16,79.794c-2.921-.14-5.5.655-6.843,1.939a15.04,15.04,0,0,0,13.468.646C143.573,80.972,141.081,79.934,138.16,79.794Z" transform="translate(-127.713 -72.956)" fill="none" stroke="#fff" stroke-miterlimit="10" stroke-width="1"/>
      </g>
    </g>
    <line id="Line_344" data-name="Line 344" y1="23.237" x2="3.926" transform="translate(132.724 80.24)" fill="none" stroke="#fff" stroke-miterlimit="10" stroke-width="1"/>
    <line id="Line_345" data-name="Line 345" x2="0.204" y2="22.169" transform="translate(113.264 81.776)" fill="none" stroke="#fff" stroke-miterlimit="10" stroke-width="1"/>
    <line id="Line_346" data-name="Line 346" x2="1.208" y2="17.677" transform="translate(107.238 85.384)" fill="none" stroke="#fff" stroke-miterlimit="10" stroke-width="1"/>
    <line id="Line_347" data-name="Line 347" x1="2.739" y2="25.88" transform="translate(138.427 81.894)" fill="none" stroke="#fff" stroke-miterlimit="10" stroke-width="1"/>
    <path id="Path_18150" data-name="Path 18150" d="M158.806,169" transform="translate(-26.3 -48.921)" fill="none" stroke="#fff" stroke-miterlimit="10" stroke-width="1"/>
    <line id="Line_348" data-name="Line 348" x2="10.528" y2="2.346" transform="translate(114.738 84.331)" fill="none" stroke="#fff" stroke-miterlimit="10" stroke-width="1"/>
    <line id="Line_349" data-name="Line 349" x2="9.277" y2="2.521" transform="translate(115.44 89.331)" fill="none" stroke="#fff" stroke-miterlimit="10" stroke-width="1"/>
    <path id="Path_18151" data-name="Path 18151" d="M134.192,93.411s11,1.551,15.722-1.586" transform="translate(-18.519 -24.524)" fill="none" stroke="#fff" stroke-miterlimit="10" stroke-width="1"/>
  </g>
</svg>
