<svg xmlns="http://www.w3.org/2000/svg" width="102.521" height="98.989" viewBox="0 0 102.521 98.989">
  <g id="sometimes" transform="translate(-108.055 -51.282)">
    <g id="Group_12784" data-name="Group 12784">
      <path id="Path_17801" data-name="Path 17801" d="M130.827,70.141h1.528a3.06,3.06,0,0,0,3.061-3.06V54.843a3.061,3.061,0,0,0-3.058-3.061h-1.531a3.062,3.062,0,0,0-3.061,3.061V67.081A3.06,3.06,0,0,0,130.827,70.141Z" fill="none" stroke="#fff" stroke-miterlimit="10" stroke-width="1"/>
      <path id="Path_17802" data-name="Path 17802" d="M173.188,70.141h1.528a3.059,3.059,0,0,0,3.06-3.06V54.843a3.056,3.056,0,0,0-3.057-3.061h-1.528a3.062,3.062,0,0,0-3.061,3.061V67.081A3.059,3.059,0,0,0,173.188,70.141Z" fill="none" stroke="#fff" stroke-miterlimit="10" stroke-width="1"/>
      <path id="Path_17803" data-name="Path 17803" d="M161.737,134.7H114.063V79.363h77.423v21.116a27.1,27.1,0,0,1,5.508,1.113V63.708a3.679,3.679,0,0,0-3.676-3.673H179.829v7.046a5.118,5.118,0,0,1-5.113,5.113h-1.528a5.118,5.118,0,0,1-5.114-5.113V60.035H137.468v7.046a5.117,5.117,0,0,1-5.113,5.113h-1.528a5.118,5.118,0,0,1-5.113-5.113V60.035H112.228a3.674,3.674,0,0,0-3.673,3.673v72.834a3.674,3.674,0,0,0,3.673,3.67h51.507A30.568,30.568,0,0,1,161.737,134.7Z" fill="none" stroke="#fff" stroke-miterlimit="10" stroke-width="1"/>
      <path id="Path_17804" data-name="Path 17804" d="M120.8,93.038h7.731a1.379,1.379,0,0,0,1.377-1.38V85.676a1.378,1.378,0,0,0-1.377-1.377H120.8a1.381,1.381,0,0,0-1.381,1.377v5.982A1.382,1.382,0,0,0,120.8,93.038Z" fill="none" stroke="#fff" stroke-miterlimit="10" stroke-width="1"/>
      <path id="Path_17805" data-name="Path 17805" d="M134.812,93.038h7.877a1.381,1.381,0,0,0,1.38-1.38V85.676a1.381,1.381,0,0,0-1.38-1.377h-7.877a1.381,1.381,0,0,0-1.38,1.377v5.982A1.38,1.38,0,0,0,134.812,93.038Z" fill="none" stroke="#fff" stroke-miterlimit="10" stroke-width="1"/>
      <path id="Path_17806" data-name="Path 17806" d="M148.964,93.038H156.7a1.379,1.379,0,0,0,1.377-1.38V85.676A1.378,1.378,0,0,0,156.7,84.3h-7.738a1.378,1.378,0,0,0-1.377,1.377v5.982A1.379,1.379,0,0,0,148.964,93.038Z" fill="none" stroke="#fff" stroke-miterlimit="10" stroke-width="1"/>
      <path id="Path_17807" data-name="Path 17807" d="M162.987,93.038h7.737a1.379,1.379,0,0,0,1.377-1.38V85.676a1.378,1.378,0,0,0-1.377-1.377h-7.737a1.378,1.378,0,0,0-1.377,1.377v5.982A1.381,1.381,0,0,0,162.987,93.038Z" fill="none" stroke="#fff" stroke-miterlimit="10" stroke-width="1"/>
      <path id="Path_17808" data-name="Path 17808" d="M177.015,93.038h7.732a1.381,1.381,0,0,0,1.38-1.38V85.676a1.381,1.381,0,0,0-1.38-1.377h-7.732a1.378,1.378,0,0,0-1.377,1.377v5.982A1.379,1.379,0,0,0,177.015,93.038Z" fill="none" stroke="#fff" stroke-miterlimit="10" stroke-width="1"/>
      <path id="Path_17809" data-name="Path 17809" d="M120.8,105.276h7.731a1.376,1.376,0,0,0,1.377-1.377V97.92a1.378,1.378,0,0,0-1.377-1.377H120.8a1.381,1.381,0,0,0-1.381,1.377V103.9A1.377,1.377,0,0,0,120.8,105.276Z" fill="none" stroke="#fff" stroke-miterlimit="10" stroke-width="1"/>
      <path id="Path_17810" data-name="Path 17810" d="M134.812,105.276h7.877a1.379,1.379,0,0,0,1.38-1.377V97.92a1.381,1.381,0,0,0-1.38-1.377h-7.877a1.381,1.381,0,0,0-1.38,1.377V103.9A1.375,1.375,0,0,0,134.812,105.276Z" fill="none" stroke="#fff" stroke-miterlimit="10" stroke-width="1"/>
      <path id="Path_17811" data-name="Path 17811" d="M148.964,105.276H156.7a1.376,1.376,0,0,0,1.377-1.377V97.92a1.378,1.378,0,0,0-1.377-1.377h-7.738a1.378,1.378,0,0,0-1.377,1.377V103.9A1.374,1.374,0,0,0,148.964,105.276Z" fill="none" stroke="#fff" stroke-miterlimit="10" stroke-width="1"/>
      <path id="Path_17812" data-name="Path 17812" d="M162.987,105.276h7.737A1.376,1.376,0,0,0,172.1,103.9V97.92a1.378,1.378,0,0,0-1.377-1.377h-7.737a1.378,1.378,0,0,0-1.377,1.377V103.9A1.376,1.376,0,0,0,162.987,105.276Z" fill="none" stroke="#fff" stroke-miterlimit="10" stroke-width="1"/>
      <path id="Path_17813" data-name="Path 17813" d="M186.127,100.485V97.92a1.379,1.379,0,0,0-1.38-1.377h-7.732a1.376,1.376,0,0,0-1.377,1.377V103.8A28.109,28.109,0,0,1,186.127,100.485Z" fill="none" stroke="#fff" stroke-miterlimit="10" stroke-width="1"/>
      <path id="Path_17814" data-name="Path 17814" d="M120.8,117.526h7.731a1.378,1.378,0,0,0,1.377-1.377v-5.981a1.376,1.376,0,0,0-1.377-1.377H120.8a1.379,1.379,0,0,0-1.381,1.377v5.981A1.381,1.381,0,0,0,120.8,117.526Z" fill="none" stroke="#fff" stroke-miterlimit="10" stroke-width="1"/>
      <path id="Path_17815" data-name="Path 17815" d="M134.812,117.526h7.877a1.381,1.381,0,0,0,1.38-1.377v-5.981a1.379,1.379,0,0,0-1.38-1.377h-7.877a1.379,1.379,0,0,0-1.38,1.377v5.981A1.379,1.379,0,0,0,134.812,117.526Z" fill="none" stroke="#fff" stroke-miterlimit="10" stroke-width="1"/>
      <path id="Path_17816" data-name="Path 17816" d="M148.964,117.526H156.7a1.378,1.378,0,0,0,1.377-1.377v-5.981a1.376,1.376,0,0,0-1.377-1.377h-7.738a1.376,1.376,0,0,0-1.377,1.377v5.981A1.378,1.378,0,0,0,148.964,117.526Z" fill="none" stroke="#fff" stroke-miterlimit="10" stroke-width="1"/>
      <path id="Path_17817" data-name="Path 17817" d="M162.837,117.517a28.155,28.155,0,0,1,6.073-8.726h-5.98a1.376,1.376,0,0,0-1.377,1.377v5.981A1.374,1.374,0,0,0,162.837,117.517Z" fill="none" stroke="#fff" stroke-miterlimit="10" stroke-width="1"/>
      <path id="Path_17818" data-name="Path 17818" d="M120.8,129.768h7.731a1.379,1.379,0,0,0,1.377-1.381v-5.975a1.376,1.376,0,0,0-1.377-1.377H120.8a1.379,1.379,0,0,0-1.381,1.377v5.975A1.38,1.38,0,0,0,120.8,129.768Z" fill="none" stroke="#fff" stroke-miterlimit="10" stroke-width="1"/>
      <path id="Path_17819" data-name="Path 17819" d="M134.812,129.768h7.877a1.382,1.382,0,0,0,1.38-1.381v-5.975a1.379,1.379,0,0,0-1.38-1.377h-7.877a1.379,1.379,0,0,0-1.38,1.377v5.975A1.378,1.378,0,0,0,134.812,129.768Z" fill="none" stroke="#fff" stroke-miterlimit="10" stroke-width="1"/>
      <path id="Path_17820" data-name="Path 17820" d="M148.964,129.768H156.7a1.379,1.379,0,0,0,1.377-1.381v-5.975a1.376,1.376,0,0,0-1.377-1.377h-7.738a1.376,1.376,0,0,0-1.377,1.377v5.975A1.377,1.377,0,0,0,148.964,129.768Z" fill="none" stroke="#fff" stroke-miterlimit="10" stroke-width="1"/>
    </g>
    <g id="Group_12785" data-name="Group 12785">
      <circle id="Ellipse_231" data-name="Ellipse 231" cx="3.758" cy="3.758" r="3.758" transform="translate(185.688 125.131)" fill="none" stroke="#fff" stroke-miterlimit="10" stroke-width="1"/>
      <path id="Path_17821" data-name="Path 17821" d="M210.077,129.869a20.755,20.755,0,0,1-36.194,12.906" fill="none" stroke="#fff" stroke-miterlimit="10" stroke-width="1"/>
      <path id="Path_17822" data-name="Path 17822" d="M168.591,128.57c.2-13.464,14.063-23.443,26.935-19.623a20.561,20.561,0,0,1,9.429,6.006" fill="none" stroke="#fff" stroke-miterlimit="10" stroke-width="1"/>
      <path id="Path_17823" data-name="Path 17823" d="M189.264,124.945a4.384,4.384,0,0,1,1.269.181v-9.507a1.088,1.088,0,1,0-2.175,0v9.414A4.565,4.565,0,0,1,189.264,124.945Z" fill="none" stroke="#fff" stroke-miterlimit="10" stroke-width="1"/>
      <path id="Path_17824" data-name="Path 17824" d="M198.125,127.856h-5.046a4.743,4.743,0,0,1,.073,2.067h4.973a1.037,1.037,0,0,0,1.034-1.034h0A1.036,1.036,0,0,0,198.125,127.856Z" fill="none" stroke="#fff" stroke-miterlimit="10" stroke-width="1"/>
      <path id="Path_17825" data-name="Path 17825" d="M173.47,145.626v-3.144h3.144" fill="none" stroke="#fff" stroke-miterlimit="10" stroke-width="1"/>
      <path id="Path_17826" data-name="Path 17826" d="M205.228,112.088v3.144h-3.144" fill="none" stroke="#fff" stroke-miterlimit="10" stroke-width="1"/>
    </g>
  </g>
</svg>
