<svg xmlns="http://www.w3.org/2000/svg" width="122.09" height="126.518" viewBox="0 0 122.09 126.518">
  <g id="status-quo" transform="translate(-5305.494 1321.43)">
    <path id="Path_18003" data-name="Path 18003" d="M5413.928-1248.571" fill="none" stroke="#fff" stroke-miterlimit="10" stroke-width="1"/>
    <path id="Path_18004" data-name="Path 18004" d="M5422.047-1250.364a10.366,10.366,0,0,0-1.5-12.617" fill="none" stroke="#fff" stroke-miterlimit="10" stroke-width="1"/>
    <path id="Path_18005" data-name="Path 18005" d="M5420.254-1229.335a10.366,10.366,0,0,0-1.5-12.617" fill="none" stroke="#fff" stroke-miterlimit="10" stroke-width="1"/>
    <path id="Path_18006" data-name="Path 18006" d="M5411.214-1238.9a29.183,29.183,0,0,1-.944-7.924" fill="none" stroke="#fff" stroke-miterlimit="10" stroke-width="1"/>
    <path id="Path_18007" data-name="Path 18007" d="M5413.324-1238.693a11.572,11.572,0,0,0-1.006-8.449" fill="none" stroke="#fff" stroke-miterlimit="10" stroke-width="1"/>
    <path id="Path_18008" data-name="Path 18008" d="M5415.673-1232.208a11.337,11.337,0,0,0-1.565-13.144" fill="none" stroke="#fff" stroke-miterlimit="10" stroke-width="1"/>
    <path id="Path_18009" data-name="Path 18009" d="M5412.2-1211.887a10.367,10.367,0,0,0-1.5-12.617" fill="none" stroke="#fff" stroke-miterlimit="10" stroke-width="1"/>
    <path id="Path_18010" data-name="Path 18010" d="M5415.329-1213.229a10.367,10.367,0,0,0-1.5-12.617" fill="none" stroke="#fff" stroke-miterlimit="10" stroke-width="1"/>
    <g id="Group_12888" data-name="Group 12888">
      <g id="Group_12885" data-name="Group 12885">
        <path id="Path_18011" data-name="Path 18011" d="M5307.848-1245.3l22.371-4.474,32.213-30.871s17.806-29.533,16.059-35.572,10.917,3.579,11.23,5.145c1.273,6.363-1.565,20.625-1.565,20.625l-7.579,12.885-8.527,14.5" fill="none" stroke="#fff" stroke-miterlimit="10" stroke-width="1"/>
        <path id="Path_18012" data-name="Path 18012" d="M5380.1-1277.563s-1.3,14.63,4.832,14.5,37.046-3.222,37.046-3.222,12.482,14.451-1.611,17.717a145.377,145.377,0,0,1-28.992,3.222l-12.885-4.832,1.61-12.885-4.831,35.434v17.714l3.914,6.006a5.841,5.841,0,0,0,2.662,5.164" fill="none" stroke="#fff" stroke-miterlimit="10" stroke-width="1"/>
      </g>
      <path id="Path_18013" data-name="Path 18013" d="M5413.928-1245.349l11.275,6.443s1.745,11.05-3.221,11.275a80.579,80.579,0,0,0-11.275,1.61l-25.772-4.832-8.053-6.443,1.61-8.053,6.443-1.611" fill="none" stroke="#fff" stroke-miterlimit="10" stroke-width="1"/>
      <path id="Path_18014" data-name="Path 18014" d="M5418.8-1225.843l1.342,6.04-6.219,8.277h-6.443l-27.381-8.053-4.832-4.832,1.611-6.443,3.221-1.611,4.832,1.611" fill="none" stroke="#fff" stroke-miterlimit="10" stroke-width="1"/>
      <path id="Path_18015" data-name="Path 18015" d="M5380.1-1217.969s-7.919,4.609-1.61,9.664,16.42,4.7,22.549,6.443,3.222,3.221,3.222,3.221" fill="none" stroke="#fff" stroke-miterlimit="10" stroke-width="1"/>
      <path id="Path_18016" data-name="Path 18016" d="M5412.314-1211.526l1.61,6.443s1.566,6.577-4.832,6.443-25.77,0-25.77,0l-33.824,3.222-22.548-6.443-20.936-1.611,1.834-41.833" fill="none" stroke="#fff" stroke-miterlimit="10" stroke-width="1"/>
      <path id="Path_18017" data-name="Path 18017" d="M5393.079-1258.235a10.368,10.368,0,0,0,0,12.707" fill="none" stroke="#fff" stroke-miterlimit="10" stroke-width="1"/>
      <path id="Path_18018" data-name="Path 18018" d="M5405.037-1241.935s-.17-1.738-.433-3.634" fill="none" stroke="#fff" stroke-miterlimit="10" stroke-width="1"/>
      <path id="Path_18019" data-name="Path 18019" d="M5407.872-1240.665s-.242-2.343-.583-4.9" fill="none" stroke="#fff" stroke-miterlimit="10" stroke-width="1"/>
      <path id="Path_18020" data-name="Path 18020" d="M5410.411-1198.461a10.367,10.367,0,0,0-1.5-12.617" fill="none" stroke="#fff" stroke-miterlimit="10" stroke-width="1"/>
      <path id="Path_18021" data-name="Path 18021" d="M5388.6-1243.918a10.367,10.367,0,0,0,0,12.707" fill="none" stroke="#fff" stroke-miterlimit="10" stroke-width="1"/>
      <path id="Path_18022" data-name="Path 18022" d="M5386.368-1229.153a10.365,10.365,0,0,0,0,12.706" fill="none" stroke="#fff" stroke-miterlimit="10" stroke-width="1"/>
      <path id="Path_18023" data-name="Path 18023" d="M5396.568-1256.445s-4.787,4.609,0,9.664" fill="none" stroke="#fff" stroke-miterlimit="10" stroke-width="1"/>
      <path id="Path_18024" data-name="Path 18024" d="M5390.305-1240.338s-4.788,4.609,0,9.664" fill="none" stroke="#fff" stroke-miterlimit="10" stroke-width="1"/>
      <path id="Path_18025" data-name="Path 18025" d="M5387.173-1216.179s-4.787,4.609,0,9.664" fill="none" stroke="#fff" stroke-miterlimit="10" stroke-width="1"/>
      <path id="Path_18026" data-name="Path 18026" d="M5391.1-1213s-2.144,6.29,4.428,8.589" fill="none" stroke="#fff" stroke-miterlimit="10" stroke-width="1"/>
      <path id="Path_18027" data-name="Path 18027" d="M5387.241-1203.908a5.838,5.838,0,0,0,2.661,5.164" fill="none" stroke="#fff" stroke-miterlimit="10" stroke-width="1"/>
      <path id="Path_18028" data-name="Path 18028" d="M5384.108-1203.908a5.841,5.841,0,0,0,2.662,5.164" fill="none" stroke="#fff" stroke-miterlimit="10" stroke-width="1"/>
      <path id="Path_18029" data-name="Path 18029" d="M5373.661-1255.013s6.219,22.236-9.663,27.381-22.549,8.053-22.549,8.053" fill="none" stroke="#fff" stroke-miterlimit="10" stroke-width="1"/>
      <line id="Line_313" data-name="Line 313" x2="8.053" y2="20.939" transform="translate(5365.608 -1226.022)" fill="none" stroke="#fff" stroke-miterlimit="10" stroke-width="1"/>
      <path id="Path_18030" data-name="Path 18030" d="M5364-1221.189s.044,8.366,4.832,14.5" fill="none" stroke="#fff" stroke-miterlimit="10" stroke-width="1"/>
      <path id="Path_18031" data-name="Path 18031" d="M5355.944-1227.631s9.619-5.146,8.054-16.107l-1.566-10.962" fill="none" stroke="#fff" stroke-miterlimit="10" stroke-width="1"/>
      <path id="Path_18032" data-name="Path 18032" d="M5328.563-1243.739s-4.787,8.009,0,19.328,1.61,17.717,1.61,17.717-.045,3.266,8.053,8.053" fill="none" stroke="#fff" stroke-miterlimit="10" stroke-width="1"/>
      <ellipse id="Ellipse_243" data-name="Ellipse 243" cx="1.566" cy="4.921" rx="1.566" ry="4.921" transform="translate(5376.75 -1316.442)" fill="none" stroke="#fff" stroke-miterlimit="10" stroke-width="1"/>
      <ellipse id="Ellipse_244" data-name="Ellipse 244" cx="4.698" cy="4.027" rx="4.698" ry="4.027" transform="translate(5378.538 -1256.49)" fill="none" stroke="#fff" stroke-miterlimit="10" stroke-width="1"/>
      <ellipse id="Ellipse_245" data-name="Ellipse 245" cx="3.803" cy="4.921" rx="3.803" ry="4.921" transform="translate(5377.196 -1245.305)" fill="none" stroke="#fff" stroke-miterlimit="10" stroke-width="1"/>
      <ellipse id="Ellipse_246" data-name="Ellipse 246" cx="3.356" cy="4.027" rx="3.356" ry="4.027" transform="translate(5376.75 -1230.988)" fill="none" stroke="#fff" stroke-miterlimit="10" stroke-width="1"/>
      <ellipse id="Ellipse_247" data-name="Ellipse 247" cx="3.356" cy="4.027" rx="3.356" ry="4.027" transform="translate(5378.091 -1218.013)" fill="none" stroke="#fff" stroke-miterlimit="10" stroke-width="1"/>
      <g id="Group_12886" data-name="Group 12886">
        <line id="Line_314" data-name="Line 314" x1="14.823" y1="4.098" transform="translate(5349.598 -1312.454)" fill="none" stroke="#fff" stroke-miterlimit="10" stroke-width="1"/>
        <line id="Line_315" data-name="Line 315" x1="13.138" y1="8.225" transform="translate(5353.021 -1321.006)" fill="none" stroke="#fff" stroke-miterlimit="10" stroke-width="1"/>
        <line id="Line_316" data-name="Line 316" x1="15.498" y2="0.309" transform="translate(5348.107 -1303.541)" fill="none" stroke="#fff" stroke-miterlimit="10" stroke-width="1"/>
      </g>
      <g id="Group_12887" data-name="Group 12887">
        <line id="Line_317" data-name="Line 317" x2="14.823" y2="4.098" transform="translate(5398.166 -1299.775)" fill="none" stroke="#fff" stroke-miterlimit="10" stroke-width="1"/>
        <line id="Line_318" data-name="Line 318" x2="13.138" y2="8.225" transform="translate(5396.427 -1295.351)" fill="none" stroke="#fff" stroke-miterlimit="10" stroke-width="1"/>
        <line id="Line_319" data-name="Line 319" y1="0.309" x2="15.498" transform="translate(5398.981 -1304.899)" fill="none" stroke="#fff" stroke-miterlimit="10" stroke-width="1"/>
      </g>
    </g>
  </g>
</svg>
