<svg xmlns="http://www.w3.org/2000/svg" width="132.522" height="138.115" viewBox="0 0 132.522 138.115">
  <g id="time" transform="translate(-5525.092 1095.422)">
    <g id="Group_12866" data-name="Group 12866">
      <g id="Group_12865" data-name="Group 12865">
        <g id="Group_12864" data-name="Group 12864">
          <g id="Group_12863" data-name="Group 12863">
            <path id="Rectangle_6111" data-name="Rectangle 6111" d="M5595.9-994.124v5.72a2.271,2.271,0,0,1-2.271,2.271h-4.559a2.27,2.27,0,0,1-2.27-2.271v-5.72h9.1Z" fill="none" stroke="#fff" stroke-miterlimit="10" stroke-width="1"/>
            <path id="Path_17915" data-name="Path 17915" d="M5622.328-1007.954" fill="none" stroke="#fff" stroke-miterlimit="10" stroke-width="1"/>
            <path id="Path_17916" data-name="Path 17916" d="M5622.673-1004.321c4.63,0,14.578,1.748,14.577-5.455h-12.195" fill="none" stroke="#fff" stroke-miterlimit="10" stroke-width="1"/>
            <path id="Path_17917" data-name="Path 17917" d="M5558.248-1009.776h-12.792a5.455,5.455,0,0,0,5.455,5.455h9.261" fill="none" stroke="#fff" stroke-miterlimit="10" stroke-width="1"/>
            <path id="Path_17918" data-name="Path 17918" d="M5625.284-1048.106" fill="none" stroke="#fff" stroke-miterlimit="10" stroke-width="1"/>
            <path id="Path_17919" data-name="Path 17919" d="M5625.284-1048.106h11.966a5.455,5.455,0,0,0-5.455-5.455H5621.48" fill="none" stroke="#fff" stroke-miterlimit="10" stroke-width="1"/>
            <path id="Path_17920" data-name="Path 17920" d="M5561.736-1053.561h-10.825a5.455,5.455,0,0,0-5.455,5.455h13.035" fill="none" stroke="#fff" stroke-miterlimit="10" stroke-width="1"/>
            <path id="Path_17921" data-name="Path 17921" d="M5561.513-1053.253" fill="none" stroke="#fff" stroke-miterlimit="10" stroke-width="1"/>
            <path id="Path_17922" data-name="Path 17922" d="M5558.49-1048.106c.14-.263.293-.519.46-.77" fill="none" stroke="#fff" stroke-miterlimit="10" stroke-width="1"/>
            <g id="Group_12843" data-name="Group 12843">
              <rect id="Rectangle_6112" data-name="Rectangle 6112" width="26.479" height="38.331" rx="1.922" transform="translate(5630.635 -1048.106)" fill="none" stroke="#fff" stroke-miterlimit="10" stroke-width="1"/>
              <rect id="Rectangle_6113" data-name="Rectangle 6113" width="26.479" height="3.867" transform="translate(5630.635 -1017.738)" fill="none" stroke="#fff" stroke-miterlimit="10" stroke-width="1"/>
              <rect id="Rectangle_6114" data-name="Rectangle 6114" width="26.479" height="3.867" transform="translate(5630.635 -1044.011)" fill="none" stroke="#fff" stroke-miterlimit="10" stroke-width="1"/>
            </g>
            <g id="Group_12844" data-name="Group 12844">
              <rect id="Rectangle_6115" data-name="Rectangle 6115" width="26.479" height="38.331" rx="1.922" transform="translate(5525.592 -1048.106)" fill="none" stroke="#fff" stroke-miterlimit="10" stroke-width="1"/>
              <rect id="Rectangle_6116" data-name="Rectangle 6116" width="26.479" height="3.867" transform="translate(5525.592 -1017.738)" fill="none" stroke="#fff" stroke-miterlimit="10" stroke-width="1"/>
              <rect id="Rectangle_6117" data-name="Rectangle 6117" width="26.479" height="3.867" transform="translate(5525.592 -1044.011)" fill="none" stroke="#fff" stroke-miterlimit="10" stroke-width="1"/>
            </g>
            <g id="Group_12862" data-name="Group 12862">
              <g id="Group_12861" data-name="Group 12861">
                <g id="Group_12860" data-name="Group 12860">
                  <g id="Group_12859" data-name="Group 12859">
                    <g id="Group_12846" data-name="Group 12846">
                      <g id="Group_12845" data-name="Group 12845">
                        <path id="Path_17923" data-name="Path 17923" d="M5596.556-991.107a38.172,38.172,0,0,0,32.582-43.04,38.171,38.171,0,0,0-43.041-32.582,38.171,38.171,0,0,0-32.582,43.04,38.172,38.172,0,0,0,26.678,31.282,37.889,37.889,0,0,0,5.448,1.232" fill="none" stroke="#fff" stroke-miterlimit="10" stroke-width="1"/>
                      </g>
                    </g>
                    <g id="Group_12849" data-name="Group 12849">
                      <g id="Group_12848" data-name="Group 12848">
                        <g id="Group_12847" data-name="Group 12847">
                          <path id="Path_17924" data-name="Path 17924" d="M5623.355-1031.45a30.8,30.8,0,0,0-1.207-6.719" fill="none" stroke="#fff" stroke-miterlimit="10" stroke-width="1"/>
                          <path id="Path_17925" data-name="Path 17925" d="M5620.221-1015.344a32.016,32.016,0,0,0,3.114-11.558" fill="none" stroke="#fff" stroke-miterlimit="10" stroke-width="1"/>
                          <path id="Path_17926" data-name="Path 17926" d="M5609.275-1002.759a32.374,32.374,0,0,0,8.559-8.486" fill="none" stroke="#fff" stroke-miterlimit="10" stroke-width="1"/>
                          <path id="Path_17927" data-name="Path 17927" d="M5593.874-997.274a32.648,32.648,0,0,0,11.114-3.039" fill="none" stroke="#fff" stroke-miterlimit="10" stroke-width="1"/>
                          <path id="Path_17928" data-name="Path 17928" d="M5577.9-1000.009a31.411,31.411,0,0,0,11.411,2.816" fill="none" stroke="#fff" stroke-miterlimit="10" stroke-width="1"/>
                          <path id="Path_17929" data-name="Path 17929" d="M5565.013-1010.933a31.3,31.3,0,0,0,8.763,8.637" fill="none" stroke="#fff" stroke-miterlimit="10" stroke-width="1"/>
                          <path id="Path_17930" data-name="Path 17930" d="M5559.6-1026.516a32.356,32.356,0,0,0,3.1,11.573" fill="none" stroke="#fff" stroke-miterlimit="10" stroke-width="1"/>
                          <path id="Path_17931" data-name="Path 17931" d="M5562.669-1043.025a32.371,32.371,0,0,0-3.094,11.931" fill="none" stroke="#fff" stroke-miterlimit="10" stroke-width="1"/>
                          <path id="Path_17932" data-name="Path 17932" d="M5573.614-1055.648a31.458,31.458,0,0,0-8.686,8.666" fill="none" stroke="#fff" stroke-miterlimit="10" stroke-width="1"/>
                          <path id="Path_17933" data-name="Path 17933" d="M5588.85-1060.926a31.866,31.866,0,0,0-11.178,2.98" fill="none" stroke="#fff" stroke-miterlimit="10" stroke-width="1"/>
                          <path id="Path_17934" data-name="Path 17934" d="M5604.992-1057.981a32.442,32.442,0,0,0-11.655-2.97" fill="none" stroke="#fff" stroke-miterlimit="10" stroke-width="1"/>
                          <path id="Path_17935" data-name="Path 17935" d="M5618.214-1046.6a32.037,32.037,0,0,0-9.163-9.118" fill="none" stroke="#fff" stroke-miterlimit="10" stroke-width="1"/>
                          <path id="Path_17936" data-name="Path 17936" d="M5622.149-1038.172a31.846,31.846,0,0,0-1.671-4.381" fill="none" stroke="#fff" stroke-miterlimit="10" stroke-width="1"/>
                        </g>
                      </g>
                    </g>
                    <g id="Group_12850" data-name="Group 12850">
                      <path id="Path_17937" data-name="Path 17937" d="M5624.991-1028.941a1.5,1.5,0,0,0-1.5-1.5h-3.3a1.5,1.5,0,0,0-1.5,1.5,1.5,1.5,0,0,0,1.5,1.5h3.3A1.5,1.5,0,0,0,5624.991-1028.941Z" fill="none" stroke="#fff" stroke-miterlimit="10" stroke-width="1"/>
                      <path id="Path_17938" data-name="Path 17938" d="M5564.011-1028.941a1.5,1.5,0,0,0-1.5-1.5h-3.3a1.5,1.5,0,0,0-1.5,1.5,1.5,1.5,0,0,0,1.5,1.5h3.3A1.5,1.5,0,0,0,5564.011-1028.941Z" fill="none" stroke="#fff" stroke-miterlimit="10" stroke-width="1"/>
                      <path id="Path_17939" data-name="Path 17939" d="M5592.851-1057.782v-3.3a1.5,1.5,0,0,0-1.5-1.5,1.5,1.5,0,0,0-1.5,1.5v3.3a1.5,1.5,0,0,0,1.5,1.5A1.5,1.5,0,0,0,5592.851-1057.782Z" fill="none" stroke="#fff" stroke-miterlimit="10" stroke-width="1"/>
                      <path id="Path_17940" data-name="Path 17940" d="M5592.851-996.8v-3.3a1.5,1.5,0,0,0-1.5-1.5,1.5,1.5,0,0,0-1.5,1.5h0v3.3a1.5,1.5,0,0,0,1.5,1.5A1.5,1.5,0,0,0,5592.851-996.8Z" fill="none" stroke="#fff" stroke-miterlimit="10" stroke-width="1"/>
                    </g>
                    <g id="Group_12851" data-name="Group 12851">
                      <path id="Path_17941" data-name="Path 17941" d="M5620.484-1045.758a1.5,1.5,0,0,0-2.047-.548l-2.857,1.648a1.5,1.5,0,0,0-.634,2.024,1.5,1.5,0,0,0,2.024.634c.038-.019.074-.04.11-.063l2.858-1.649A1.5,1.5,0,0,0,5620.484-1045.758Z" fill="none" stroke="#fff" stroke-miterlimit="10" stroke-width="1"/>
                      <path id="Path_17942" data-name="Path 17942" d="M5567.674-1015.27a1.5,1.5,0,0,0-2.047-.548l-2.857,1.65a1.5,1.5,0,0,0-.647,2.02,1.5,1.5,0,0,0,2.021.647c.043-.022.085-.047.126-.073l2.857-1.649A1.5,1.5,0,0,0,5567.674-1015.27Z" fill="none" stroke="#fff" stroke-miterlimit="10" stroke-width="1"/>
                      <path id="Path_17943" data-name="Path 17943" d="M5578.23-1054.667l-1.65-2.857a1.5,1.5,0,0,0-2.071-.461,1.5,1.5,0,0,0-.524,1.961l1.65,2.857a1.5,1.5,0,0,0,2.07.461A1.5,1.5,0,0,0,5578.23-1054.667Z" fill="none" stroke="#fff" stroke-miterlimit="10" stroke-width="1"/>
                      <path id="Path_17944" data-name="Path 17944" d="M5608.721-1001.856l-1.65-2.857a1.5,1.5,0,0,0-2.025-.634,1.5,1.5,0,0,0-.633,2.025c.019.037.04.073.063.109l1.649,2.857a1.5,1.5,0,0,0,2.05.55,1.5,1.5,0,0,0,.55-2.05h0Z" fill="none" stroke="#fff" stroke-miterlimit="10" stroke-width="1"/>
                    </g>
                    <g id="Group_12852" data-name="Group 12852">
                      <path id="Path_17945" data-name="Path 17945" d="M5608.171-1058.073a1.5,1.5,0,0,0-2.046.549l-1.649,2.857a1.5,1.5,0,0,0,.447,2.074,1.5,1.5,0,0,0,2.074-.448c.026-.041.05-.083.073-.126l1.65-2.858A1.5,1.5,0,0,0,5608.171-1058.073Z" fill="none" stroke="#fff" stroke-miterlimit="10" stroke-width="1"/>
                      <path id="Path_17946" data-name="Path 17946" d="M5577.681-1005.265a1.5,1.5,0,0,0-2.046.549l-1.649,2.857a1.5,1.5,0,0,0,.447,2.074,1.5,1.5,0,0,0,2.074-.448c.026-.041.05-.083.073-.126l1.65-2.857A1.5,1.5,0,0,0,5577.681-1005.265Z" fill="none" stroke="#fff" stroke-miterlimit="10" stroke-width="1"/>
                      <path id="Path_17947" data-name="Path 17947" d="M5567.125-1044.658l-2.857-1.65a1.5,1.5,0,0,0-2.05.55,1.5,1.5,0,0,0,.55,2.05l2.857,1.649a1.5,1.5,0,0,0,2.024-.634,1.5,1.5,0,0,0-.524-1.961Z" fill="none" stroke="#fff" stroke-miterlimit="10" stroke-width="1"/>
                      <path id="Path_17948" data-name="Path 17948" d="M5619.936-1014.169l-2.857-1.649a1.5,1.5,0,0,0-2.071.461,1.5,1.5,0,0,0,.461,2.071c.036.022.072.044.11.063l2.857,1.65a1.5,1.5,0,0,0,2.05-.55,1.5,1.5,0,0,0-.55-2.05Z" fill="none" stroke="#fff" stroke-miterlimit="10" stroke-width="1"/>
                    </g>
                    <g id="Group_12853" data-name="Group 12853">
                      <path id="Path_17949" data-name="Path 17949" d="M5595.683-1027.776h19.22a1.164,1.164,0,0,0,1.164-1.164,1.164,1.164,0,0,0-1.164-1.165h-19.5A12.187,12.187,0,0,1,5595.683-1027.776Z" fill="none" stroke="#fff" stroke-miterlimit="10" stroke-width="1"/>
                    </g>
                    <path id="Path_17950" data-name="Path 17950" d="M5595.1-1030.9l.749-.749.414.414,3.8-3.8-2.853-2.853-3.8,3.8.413.413-1.03,1.031A3.084,3.084,0,0,1,5595.1-1030.9Z" fill="none" stroke="#fff" stroke-miterlimit="10" stroke-width="1"/>
                    <path id="Path_17951" data-name="Path 17951" d="M5574.261-1010.063l15.166-15.169a16.217,16.217,0,0,1-1.361-1.252,1.742,1.742,0,0,1-.483-.954l-15.349,15.347a1.433,1.433,0,0,0,0,2.027,1.433,1.433,0,0,0,2.027,0h0Z" fill="none" stroke="#fff" stroke-miterlimit="10" stroke-width="1"/>
                    <g id="Group_12854" data-name="Group 12854">
                      <path id="Path_17952" data-name="Path 17952" d="M5592.518-1012.777v-12.216a2.832,2.832,0,0,1-.718.034,1.7,1.7,0,0,1-1.611.169v12.012a1.165,1.165,0,0,0,1.164,1.165,1.166,1.166,0,0,0,1.165-1.165Z" fill="none" stroke="#fff" stroke-miterlimit="10" stroke-width="1"/>
                    </g>
                    <g id="Group_12856" data-name="Group 12856">
                      <g id="Group_12855" data-name="Group 12855">
                        <path id="Path_17953" data-name="Path 17953" d="M5591.353-1032.972a4.031,4.031,0,0,0-4.028,4.034,4.03,4.03,0,0,0,4.034,4.028,4.031,4.031,0,0,0,4.028-4.031,4.032,4.032,0,0,0-4.031-4.031Z" fill="none" stroke="#fff" stroke-miterlimit="10" stroke-width="1"/>
                      </g>
                    </g>
                    <g id="Group_12858" data-name="Group 12858">
                      <g id="Group_12857" data-name="Group 12857">
                        <path id="Path_17954" data-name="Path 17954" d="M5591.353-1030.782a1.84,1.84,0,0,0-1.84,1.842,1.84,1.84,0,0,0,1.842,1.84,1.841,1.841,0,0,0,1.84-1.841A1.842,1.842,0,0,0,5591.353-1030.782Z" fill="none" stroke="#fff" stroke-miterlimit="10" stroke-width="1"/>
                      </g>
                    </g>
                  </g>
                </g>
              </g>
            </g>
          </g>
        </g>
      </g>
    </g>
    <line id="Line_279" data-name="Line 279" x2="1.506" y2="17.272" transform="translate(5577.443 -1094.751)" fill="none" stroke="#fff" stroke-miterlimit="10" stroke-width="1"/>
    <line id="Line_280" data-name="Line 280" x2="9.353" y2="14.598" transform="translate(5559.606 -1088.063)" fill="none" stroke="#fff" stroke-miterlimit="10" stroke-width="1"/>
    <line id="Line_281" data-name="Line 281" x1="1.405" y2="17.28" transform="translate(5592.215 -1095.382)" fill="none" stroke="#fff" stroke-miterlimit="10" stroke-width="1"/>
    <line id="Line_282" data-name="Line 282" x1="4.276" y2="16.802" transform="translate(5605.399 -1093.298)" fill="none" stroke="#fff" stroke-miterlimit="10" stroke-width="1"/>
    <line id="Line_283" data-name="Line 283" x1="1.506" y1="17.272" transform="translate(5597.824 -975.25)" fill="none" stroke="#fff" stroke-miterlimit="10" stroke-width="1"/>
    <line id="Line_284" data-name="Line 284" x1="9.353" y1="14.598" transform="translate(5607.813 -979.265)" fill="none" stroke="#fff" stroke-miterlimit="10" stroke-width="1"/>
    <line id="Line_285" data-name="Line 285" y1="17.28" x2="1.405" transform="translate(5583.152 -974.628)" fill="none" stroke="#fff" stroke-miterlimit="10" stroke-width="1"/>
    <line id="Line_286" data-name="Line 286" y1="16.802" x2="4.276" transform="translate(5567.098 -976.233)" fill="none" stroke="#fff" stroke-miterlimit="10" stroke-width="1"/>
  </g>
</svg>
